<svg xmlns="http://www.w3.org/2000/svg" viewBox="0 0 123.086 123.086">
  <defs>
    <style>
      .cls-2 {
        fill:#727AAA
      }
    </style>
  </defs>
  <g id="coffee-cup" class="cls-1" transform="translate(0 0)">
    <g id="Group_445" data-name="Group 445" transform="translate(0 42.15)">
      <g id="Group_444" data-name="Group 444">
        <path id="Path_242" data-name="Path 242" class="cls-2" d="M120.682,182.826H100.969v-5.089a2.4,2.4,0,0,0-2.4-2.4H46.638a2.4,2.4,0,1,0,0,4.808H96.161v18.431A45.8,45.8,0,0,1,73.559,238H27.41a45.8,45.8,0,0,1-22.6-39.426V180.141H20.915a2.4,2.4,0,1,0,0-4.808H2.4a2.4,2.4,0,0,0-2.4,2.4v20.835A50.4,50.4,0,0,0,18.959,238H2.4A2.4,2.4,0,0,0,0,240.4a15.884,15.884,0,0,0,15.867,15.867H90.872A15.884,15.884,0,0,0,106.739,240.4a2.4,2.4,0,0,0-2.4-2.4H82.011a50.775,50.775,0,0,0,11.131-12.421h6.786a23.185,23.185,0,0,0,23.159-23.159V185.23A2.4,2.4,0,0,0,120.682,182.826Zm-19.015,59.981a11.078,11.078,0,0,1-10.8,8.655H15.867a11.078,11.078,0,0,1-10.8-8.655h96.6Zm-.7-44.234V197.25h7.693v5.169a8.744,8.744,0,0,1-8.735,8.735h-.546A50.607,50.607,0,0,0,100.969,198.572Zm17.309,3.846a18.372,18.372,0,0,1-18.351,18.351H95.836a50.193,50.193,0,0,0,2.052-4.808h2.039a13.558,13.558,0,0,0,13.543-13.543v-7.573a2.4,2.4,0,0,0-2.4-2.4h-10.1v-4.808h17.309Z" transform="translate(0 -175.333)"/>
      </g>
    </g>
    <g id="Group_447" data-name="Group 447" transform="translate(45.336 0)">
      <g id="Group_446" data-name="Group 446">
        <path id="Path_243" data-name="Path 243" class="cls-2" d="M196.029,13.3l-1.251-1.571a6.266,6.266,0,0,1-.006-7.835A2.4,2.4,0,0,0,191.005.909a11.053,11.053,0,0,0,.012,13.82l1.251,1.571a8.19,8.19,0,0,1,.009,10.24l-1.282,1.615a2.4,2.4,0,1,0,3.766,2.989l1.282-1.615A12.976,12.976,0,0,0,196.029,13.3Z" transform="translate(-188.585 0)"/>
      </g>
    </g>
    <g id="Group_449" data-name="Group 449" transform="translate(58.662 5.405)">
      <g id="Group_448" data-name="Group 448">
        <path id="Path_244" data-name="Path 244" class="cls-2" d="M251.458,35.788l-1.251-1.57a6.267,6.267,0,0,1-.007-7.836,2.4,2.4,0,0,0-3.766-2.989,11.054,11.054,0,0,0,.012,13.82l1.251,1.571a8.19,8.19,0,0,1,.008,10.24l-1.282,1.615a2.4,2.4,0,1,0,3.766,2.989l1.281-1.615A12.976,12.976,0,0,0,251.458,35.788Z" transform="translate(-244.014 -22.484)"/>
      </g>
    </g>
    <g id="Group_451" data-name="Group 451" transform="translate(32.011 5.405)">
      <g id="Group_450" data-name="Group 450">
        <path id="Path_245" data-name="Path 245" class="cls-2" d="M140.6,35.789l-1.251-1.57a6.267,6.267,0,0,1-.007-7.836,2.4,2.4,0,1,0-3.766-2.989,11.054,11.054,0,0,0,.012,13.82l1.251,1.571a8.19,8.19,0,0,1,.009,10.24l-1.282,1.615a2.4,2.4,0,1,0,3.766,2.989l1.282-1.615A12.977,12.977,0,0,0,140.6,35.789Z" transform="translate(-133.156 -22.485)"/>
      </g>
    </g>
    <g id="Group_453" data-name="Group 453" transform="translate(32.024 42.15)">
      <g id="Group_452" data-name="Group 452">
        <path id="Path_246" data-name="Path 246" class="cls-2" d="M137.314,176.034a2.406,2.406,0,1,0,.7,1.7A2.422,2.422,0,0,0,137.314,176.034Z" transform="translate(-133.21 -175.33)"/>
      </g>
    </g>
    <g id="Group_455" data-name="Group 455" transform="translate(73.995 62.985)">
      <g id="Group_454" data-name="Group 454">
        <path id="Path_247" data-name="Path 247" class="cls-2" d="M320.826,262a2.4,2.4,0,0,0-2.4,2.4,34.444,34.444,0,0,1-9.931,24.06,2.4,2.4,0,1,0,3.415,3.384A39.287,39.287,0,0,0,323.23,264.4,2.4,2.4,0,0,0,320.826,262Z" transform="translate(-307.795 -262)"/>
      </g>
    </g>
    <g id="Group_457" data-name="Group 457" transform="translate(66.098 94.751)">
      <g id="Group_456" data-name="Group 456">
        <path id="Path_248" data-name="Path 248" class="cls-2" d="M279.5,395.36a2.4,2.4,0,0,0-3.275-.913l-.055.031a2.4,2.4,0,1,0,2.362,4.188l.055-.031A2.4,2.4,0,0,0,279.5,395.36Z" transform="translate(-274.945 -394.136)"/>
      </g>
    </g>
  </g>
</svg>
