<svg xmlns="http://www.w3.org/2000/svg" viewBox="0 0 128.757 128.79">
  <defs>
    <style>
      .cls-2 {
        fill:#727AAA
      }
    </style>
  </defs>
  <g id="high-five" class="cls-1" transform="translate(-0.067)">
    <g id="Group_429" data-name="Group 429" transform="translate(102.281 123.759)">
      <g id="Group_428" data-name="Group 428">
        <path id="Path_234" data-name="Path 234" class="cls-2" d="M410.708,492.737a2.514,2.514,0,1,0,.737,1.778A2.53,2.53,0,0,0,410.708,492.737Z" transform="translate(-406.414 -492)"/>
      </g>
    </g>
    <g id="Group_431" data-name="Group 431" transform="translate(47.322)">
      <g id="Group_430" data-name="Group 430">
        <path id="Path_235" data-name="Path 235" class="cls-2" d="M267.689,42.222a9.837,9.837,0,0,0-6.455-4.158,9.947,9.947,0,0,0-10.451,5.067V16.589a9.746,9.746,0,0,0-14.589-8.465,9.751,9.751,0,0,0-19.229,0,9.745,9.745,0,0,0-14.541,7.51,9.747,9.747,0,0,0-14.5,8.517,2.515,2.515,0,1,0,5.031,0,4.722,4.722,0,0,1,9.419-.489v6.706a2.515,2.515,0,1,0,5.031,0V16.589a4.722,4.722,0,0,1,9.419-.489V35.67c0,.115.026.952.026.952a2.515,2.515,0,0,0,5.031,0V16.589c0-.225-.011-.448-.026-.669V9.753a4.722,4.722,0,1,1,9.444,0v6.166c-.015.221-.026.444-.026.669V51.964a2.515,2.515,0,0,0,5.031,0l.026-35.865a4.722,4.722,0,0,1,9.419.489V53.8a3.582,3.582,0,0,0,7.061.853l1.958-7.987A4.882,4.882,0,0,1,264.3,48.77l-3.79,19.219a32.838,32.838,0,0,1-9.061,16.958l-7.825,7.8a2.515,2.515,0,0,0-.739,1.781v22.437a2.515,2.515,0,1,0,5.031,0V95.574L255,88.509a37.852,37.852,0,0,0,10.445-19.547l3.79-19.219A9.839,9.839,0,0,0,267.689,42.222Z" transform="translate(-187.927)"/>
      </g>
    </g>
    <g id="Group_433" data-name="Group 433" transform="translate(57.55 77.727)">
      <g id="Group_432" data-name="Group 432">
        <path id="Path_236" data-name="Path 236" class="cls-2" d="M245.694,309a2.516,2.516,0,0,0-2.515,2.515v7.377a30.7,30.7,0,0,1-9.085,21.888l-4.766,4.753a2.515,2.515,0,0,0-.739,1.781v10.233a2.515,2.515,0,0,0,5.031,0v-9.189l4.027-4.016a35.7,35.7,0,0,0,10.564-25.451v-7.378A2.516,2.516,0,0,0,245.694,309Z" transform="translate(-228.588 -309)"/>
      </g>
    </g>
    <g id="Group_435" data-name="Group 435" transform="translate(72.14 68.797)">
      <g id="Group_434" data-name="Group 434">
        <path id="Path_237" data-name="Path 237" class="cls-2" d="M290.887,274.237a2.514,2.514,0,1,0,.737,1.778A2.535,2.535,0,0,0,290.887,274.237Z" transform="translate(-286.593 -273.5)"/>
      </g>
    </g>
    <g id="Group_437" data-name="Group 437" transform="translate(0.067 26.803)">
      <g id="Group_436" data-name="Group 436">
        <path id="Path_238" data-name="Path 238" class="cls-2" d="M67.834,120.126a9.276,9.276,0,0,0-4.353,1.08,9.332,9.332,0,0,0-13.717-7.077,9.335,9.335,0,0,0-18.335,0,9.334,9.334,0,0,0-13.788,8.206v24.476a9.519,9.519,0,0,0-9.73-4.378A9.488,9.488,0,0,0,.249,153.612l3.572,18.113a35.819,35.819,0,0,0,9.884,18.5l6.635,6.617v9.189a2.515,2.515,0,1,0,5.031,0V195.795a2.516,2.516,0,0,0-.739-1.781l-7.374-7.354a30.8,30.8,0,0,1-8.5-15.908L5.185,152.638a4.457,4.457,0,0,1,8.7-1.923l1.845,7.528a3.521,3.521,0,0,0,6.94-.838V122.335a4.306,4.306,0,0,1,8.588-.452v18.434a2.516,2.516,0,0,0,2.515,2.515H33.8a2.516,2.516,0,0,0,2.515-2.515V122.335c0-.214-.01-.425-.024-.636v-5.807a4.306,4.306,0,0,1,8.612,0V121.7c-.014.21-.024.422-.024.636v17.983a2.516,2.516,0,0,0,2.515,2.515h.024a2.516,2.516,0,0,0,2.515-2.515V121.884a4.306,4.306,0,0,1,8.588.452L58.5,140.318a2.516,2.516,0,0,0,2.515,2.515h.024a2.516,2.516,0,0,0,2.515-2.515V129.012a4.306,4.306,0,0,1,8.588.452v11.75a2.515,2.515,0,0,0,5.031,0v-11.75A9.348,9.348,0,0,0,67.834,120.126Z" transform="translate(-0.067 -106.556)"/>
      </g>
    </g>
    <g id="Group_439" data-name="Group 439" transform="translate(19.941 0.007)">
      <g id="Group_438" data-name="Group 438">
        <path id="Path_239" data-name="Path 239" class="cls-2" d="M96.634,14.026,83.371.763A2.515,2.515,0,0,0,79.813,4.32L93.077,17.584a2.515,2.515,0,1,0,3.557-3.557Z" transform="translate(-79.076 -0.026)"/>
      </g>
    </g>
    <g id="Group_441" data-name="Group 441" transform="translate(19.947 20.748)">
      <g id="Group_440" data-name="Group 440">
        <path id="Path_240" data-name="Path 240" class="cls-2" d="M87.755,82.481H81.616a2.515,2.515,0,0,0,0,5.031h6.138a2.515,2.515,0,1,0,0-5.031Z" transform="translate(-79.101 -82.481)"/>
      </g>
    </g>
    <g id="Group_443" data-name="Group 443" transform="translate(40.567)">
      <g id="Group_442" data-name="Group 442">
        <path id="Path_241" data-name="Path 241" class="cls-2" d="M163.589,0a2.516,2.516,0,0,0-2.515,2.515V8.859a2.515,2.515,0,0,0,5.031,0V2.515A2.516,2.516,0,0,0,163.589,0Z" transform="translate(-161.074)"/>
      </g>
    </g>
  </g>
</svg>
