<svg id="instagram" xmlns="http://www.w3.org/2000/svg" viewBox="0 0 60.316 60.316">
  <defs>
    <style>
      .cls-1 {
        fill: #727aaa;
      }
    </style>
  </defs>
  <path id="Path_264" data-name="Path 264" class="cls-1" d="M284.85,279.077a5.772,5.772,0,1,1-5.772-5.772A5.772,5.772,0,0,1,284.85,279.077Zm0,0" transform="translate(-248.919 -248.919)"/>
  <path id="Path_265" data-name="Path 265" class="cls-1" d="M206.579,182.871a5.735,5.735,0,0,0-3.287-3.287,9.582,9.582,0,0,0-3.215-.6c-1.826-.083-2.374-.1-7-.1s-5.172.017-7,.1a9.587,9.587,0,0,0-3.215.6,5.737,5.737,0,0,0-3.287,3.287,9.583,9.583,0,0,0-.6,3.216c-.083,1.826-.1,2.374-.1,7s.018,5.171.1,7a9.58,9.58,0,0,0,.6,3.215,5.735,5.735,0,0,0,3.287,3.287,9.569,9.569,0,0,0,3.216.6c1.826.083,2.373.1,7,.1s5.172-.017,7-.1a9.569,9.569,0,0,0,3.216-.6,5.735,5.735,0,0,0,3.287-3.287,9.59,9.59,0,0,0,.6-3.215c.083-1.826.1-2.374.1-7s-.018-5.172-.1-7A9.57,9.57,0,0,0,206.579,182.871Zm-13.5,19.106a8.892,8.892,0,1,1,8.892-8.892A8.892,8.892,0,0,1,193.079,201.977Zm9.244-16.058a2.078,2.078,0,1,1,2.078-2.078A2.078,2.078,0,0,1,202.323,185.918Zm0,0" transform="translate(-162.921 -162.926)"/>
  <path id="Path_266" data-name="Path 266" class="cls-1" d="M30.158,0A30.158,30.158,0,1,0,60.316,30.158,30.161,30.161,0,0,0,30.158,0ZM47.371,37.3a12.706,12.706,0,0,1-.8,4.2A8.855,8.855,0,0,1,41.5,46.566a12.714,12.714,0,0,1-4.2.8c-1.847.084-2.437.1-7.14.1s-5.293-.02-7.14-.1a12.714,12.714,0,0,1-4.2-.8A8.855,8.855,0,0,1,13.75,41.5a12.7,12.7,0,0,1-.8-4.2c-.085-1.847-.1-2.437-.1-7.14s.02-5.293.1-7.14a12.707,12.707,0,0,1,.8-4.2,8.861,8.861,0,0,1,5.065-5.065,12.717,12.717,0,0,1,4.2-.8c1.847-.084,2.437-.1,7.14-.1s5.293.02,7.14.1a12.72,12.72,0,0,1,4.2.8,8.857,8.857,0,0,1,5.065,5.065,12.7,12.7,0,0,1,.805,4.2c.084,1.847.1,2.437.1,7.14S47.455,35.451,47.371,37.3Zm0,0"/>
</svg>
