<svg id="earth-grid-select-language-button" xmlns="http://www.w3.org/2000/svg" viewBox="0 0 18.548 18.548">
  <defs>
    <style>
      .cls-1 {
        fill: #fff;
      }
    </style>
  </defs>
  <g id="language">
    <path id="Path_171" data-name="Path 171" class="cls-1" d="M9.274,0a9.274,9.274,0,1,0,9.274,9.274A9.3,9.3,0,0,0,9.274,0Zm6.4,5.564H12.983a14.657,14.657,0,0,0-1.3-3.339A7.464,7.464,0,0,1,15.673,5.564Zm-6.4-3.71a12.453,12.453,0,0,1,1.762,3.71H7.512A13.635,13.635,0,0,1,9.274,1.855ZM2.133,11.129a5.979,5.979,0,0,1-.278-1.855,5.979,5.979,0,0,1,.278-1.855H5.286a12.429,12.429,0,0,0-.093,1.855c0,.649.093,1.206.093,1.855Zm.742,1.855H5.564a14.657,14.657,0,0,0,1.3,3.339A7.464,7.464,0,0,1,2.875,12.983ZM5.564,5.564H2.875A7.816,7.816,0,0,1,6.863,2.226,14.657,14.657,0,0,0,5.564,5.564Zm3.71,11.129a12.452,12.452,0,0,1-1.762-3.71h3.524A13.636,13.636,0,0,1,9.274,16.693Zm2.133-5.564H7.141a12.568,12.568,0,0,1-.185-1.855,12.568,12.568,0,0,1,.185-1.855H11.5a12.568,12.568,0,0,1,.185,1.855A12.8,12.8,0,0,1,11.407,11.129Zm.278,5.193a13.157,13.157,0,0,0,1.3-3.339h2.689A7.464,7.464,0,0,1,11.685,16.322Zm1.669-5.193a12.429,12.429,0,0,0,.093-1.855c0-.649-.093-1.206-.093-1.855h3.153a5.979,5.979,0,0,1,.278,1.855,5.981,5.981,0,0,1-.278,1.855Z"/>
  </g>
</svg>
