<svg xmlns="http://www.w3.org/2000/svg" viewBox="0 0 401.755 113.711"><defs><style>.a{fill:#c1d82f;}.b{fill:#f1f5d2;}.c{fill:#30355e;}</style></defs><g transform="translate(-730.966 -37)"><g transform="translate(730.966 37)"><g transform="translate(316.424 12.41)"><path class="a" d="M583,33.6A11.617,11.617,0,1,1,571.387,21.98,11.616,11.616,0,0,1,583,33.6Z" transform="translate(-559.77 -21.98)"/><path class="b" d="M563.284,32.489c.531,2.917,4.341,3.307,7.236,3.3a50.818,50.818,0,0,1,5.721.028,6.878,6.878,0,0,1,5.065,3.171,5.517,5.517,0,0,1,.837,2.877,7.514,7.514,0,0,1-1.012,3.363c.226-.447.7-.7.978-1.1a7.069,7.069,0,0,0,.774-1.221,6.173,6.173,0,0,0,.452-2.335,5.628,5.628,0,0,0-2.114-4.409,9.037,9.037,0,0,0-4.72-2.046c-2.216-.311-4.37.124-6.58.119a11.108,11.108,0,0,1-2.08-.164,8.48,8.48,0,0,1-3-.955c-.526-.328-1.99-1.888-1.345-2.606A2.888,2.888,0,0,0,563.284,32.489Z" transform="translate(-561.266 -25.688)"/></g><g transform="translate(150.451 38.996)"><path class="a" d="M450.128,71.43a6.088,6.088,0,0,1-1.572,2.374A132.946,132.946,0,0,1,425.889,93.86a149.213,149.213,0,0,1-33.7,18.581c-2.99,1.4-6.1,2.663-9.265,3.861.989-.3,1.956-.644,2.945-.972,14.556-4.986,27.479-11.815,40.385-19.977,12.126-7.807,21.82-15.568,31.08-25.879.418-.469.673-.6.588-.311a4.781,4.781,0,0,1-.888,1.34,108.079,108.079,0,0,1-14.438,13.8c-5.031,4.042-10.351,7.852-16.6,11.956-12.906,8.417-25.376,15.065-39.638,19.91a130.827,130.827,0,0,1-18.027,4.658,118.475,118.475,0,0,1-11.837,2.357c5.161-.6,10.26-1.5,15.365-2.566a148.336,148.336,0,0,0,33.324-11.051c1.622-.757,3.041-1.187,3.233-.9.175.283-.995,1.21-2.612,1.973a142.8,142.8,0,0,1-34.065,11.487,140.507,140.507,0,0,1-22.827,3.064,119.267,119.267,0,0,1-23.313-1.255,84.874,84.874,0,0,1-22.968-6.789,55.5,55.5,0,0,1-19.847-15.212c-.537-.633-.876-1.221-.746-1.238.1-.073.628.464,1.159,1.063l-.305-.22a63.244,63.244,0,0,0,21.786,15.223c2.81.825,5.919,1.662,9.169,2.4a78.26,78.26,0,0,1-9.271-3.358,50.606,50.606,0,0,1-21.436-17.258c-.062-.1.045-.073.09-.1-.175-.3-.153-.39.062-.192a5.278,5.278,0,0,1,.718.859c7.869,9.678,19.045,15.376,30.181,18.626a114.079,114.079,0,0,0,34.1,4.121,2.89,2.89,0,0,1,.317-.017,110.378,110.378,0,0,0,13.5-1.5c.791-.124,1.475-.141,1.521.006.006.04-.028.085-.1.13,1.781-.266,3.556-.554,5.325-.876a8.764,8.764,0,0,1,1.786-.175c3.68-.967,7.191-2.092,10.6-3.3-1.2.362-2.419.667-3.646.984-10.062,2.487-20.232,4.121-30.141,3.951a96.548,96.548,0,0,1-28.219-4.449c-.294-.1-.356-.187-.124-.2a2.637,2.637,0,0,1,.893.153,100.283,100.283,0,0,0,26.156,3.68,114.815,114.815,0,0,0,26.9-3.137c6.733-2.414,15.365-4.929,22.73-8.112a3.239,3.239,0,0,1,1.786-.435c.158.124-.424.543-1.238.9-2.7,1.215-5.466,2.346-8.287,3.341,3.527-1.249,7.027-2.623,10.464-4.206,1.809-.944,3.607-1.905,5.382-2.928a5.309,5.309,0,0,1,1.764-.678c.073,0,.107.023.124.051a166.33,166.33,0,0,0,42.759-32.5C449.411,71.577,450.123,71.068,450.128,71.43ZM310.682,119a103.969,103.969,0,0,0,27.23,4.715q-3.468-.254-6.925-.8A131.15,131.15,0,0,1,310.682,119Z" transform="translate(-273.052 -69.01)"/><path class="a" d="M348.859,166.514c5.229.876,10.644,1.475,15.512,2.176.232.04.379.09.26.13a1.775,1.775,0,0,1-.661.006c-4.669-.69-9.955-1.289-14.963-2.109a1.192,1.192,0,0,1-.571-.2C348.39,166.469,348.611,166.469,348.859,166.514Z" transform="translate(-301.925 -111.382)"/><path class="a" d="M382.257,146.7a94.4,94.4,0,0,0,24.568-.712A142.187,142.187,0,0,0,431.1,140a169.648,169.648,0,0,0,36.167-17.756c3.81-2.419,7.49-5,10.921-7.326.288-.2.486-.266.424-.13a2.538,2.538,0,0,1-.684.65c-14.121,10.13-29.825,19.265-46.665,24.833a150.863,150.863,0,0,1-24.511,5.919,94.467,94.467,0,0,1-24.9.667c-.215-.023-.339-.085-.26-.124A2.176,2.176,0,0,1,382.257,146.7Z" transform="translate(-316.335 -88.877)"/><path class="a" d="M463.025,139.894a214.328,214.328,0,0,1-26.738,11.136,88.829,88.829,0,0,1-15.427,3.98,209.881,209.881,0,0,1-21.131,2.244,1.237,1.237,0,0,1-.56-.045c-.017-.045.147-.1.4-.119,3.991-.294,7.841-.6,11.69-1.085,3.787-.492,7.569-1.029,11.43-1.769,14.37-2.8,27.388-8.225,40.283-14.539.271-.141.458-.187.492-.147C463.471,139.612,463.268,139.77,463.025,139.894Z" transform="translate(-323.981 -99.668)"/><path class="a" d="M415.866,152.642a116.523,116.523,0,0,1-15.919,2.9,71.525,71.525,0,0,1-15.4-.164c-.254-.045-.294-.1-.136-.141a2.411,2.411,0,0,1,.741-.023A68.326,68.326,0,0,0,400.2,155.2a135.017,135.017,0,0,0,15.449-2.86,1.9,1.9,0,0,1,.989-.068C416.68,152.365,416.364,152.517,415.866,152.642Z" transform="translate(-317.524 -105.186)"/><path class="a" d="M310.571,135.623c10.622,2.453,21.249,2.951,31.476,2.826,4.867-.305,9.751-.927,14.488-1.7.678-.119,1.249-.124,1.283,0s-.492.334-1.176.452c-2.386.4-4.794.865-7.241,1.136.079.034.119.068.1.113a167.6,167.6,0,0,0,25.139-4.9c.452-.136.814-.164.837-.09s-.317.254-.763.384a152.313,152.313,0,0,1-26.111,4.969,7.43,7.43,0,0,1-1.108.147,123.755,123.755,0,0,1-22.663-.424c-10.967-1.232-21.769-3.154-32.363-8.417a59.393,59.393,0,0,1-11.866-8.05,43.878,43.878,0,0,1-8.429-9.175A46.362,46.362,0,0,1,266.2,99.247c-.073-.271-.034-.311.068-.119a3.054,3.054,0,0,1,.294.729,51.3,51.3,0,0,0,5.936,13.324,59.9,59.9,0,0,0,20.226,16.914C298.683,132.82,304.409,134.159,310.571,135.623Z" transform="translate(-266.163 -82.051)"/></g><path class="c" d="M111.359,111.877c.062,1.023.673,1.639,2.3,1.481,1.47-.141,2.956.068,4.432-.034a5.392,5.392,0,0,0,2.742-1.023c1.148-.6,1.668-.226,2.923-.119a36.688,36.688,0,0,0,4.59.317c2.465-.1,5.568.684,7.948.04,1.47-.4,3.985-1.9,3.652-3.737-.4-2.188-4.115-1.379-5.6-1.718-3.143-.718-4.732-4.285-7.677-5.427-3.115,2.776-6.32-2.521-7.615-5.059h0a79.092,79.092,0,0,0-3.929-7.388c-1.362-2.075-2.222-4.211-3.471-6.365-1.012-1.752-2.759-3.1-3.618-4.929-.82-1.741-.707-4.014-1.916-5.568-.554-.712-2.012-1.08-2.8-1.453-.35-.17-1.2-.418-1.43-.757-.311-.469.322-.8-.079-1.306a3.432,3.432,0,0,0-1.063-.627c-.582-.322-1.266-.5-1.809-.871a75.093,75.093,0,0,0-6.218-4.381c-1.108-.6-2.256-1.176-3.341-1.815a7.884,7.884,0,0,0-2.233-1.119c.124-.588.266-1.244.362-1.877.791.916,2.544.848,3.646.944,1.43.119,2.86.266,4.285.418,2.521.271,5.144.017,7.677.04,1.317.011,2.634-.153,3.951-.1a5.484,5.484,0,0,1,1.713.243c.48.192.859.627,1.362.831a4.234,4.234,0,0,1,1.458.622,6.732,6.732,0,0,1,.656.882,2.5,2.5,0,0,0,1.458.938,3.064,3.064,0,0,0,1.735-.26c.305-.107.52-.424.831-.492a.952.952,0,0,0,1.193.006c.181-.13.4-.56.627-.5.045.011.226.254.317.311a.656.656,0,0,0,.452.113c.435.006.639-.175.633-.633a12.576,12.576,0,0,0-.215-1.5,2.26,2.26,0,0,0-.91-1.5,5.111,5.111,0,0,1-.978-.967,5.834,5.834,0,0,0-1.046-1.328,5.755,5.755,0,0,0-1.521-.644c-.271-.107-.48-.305-.741-.424a4.853,4.853,0,0,0-.854-.22,39.943,39.943,0,0,0-9.847-1.374,19.055,19.055,0,0,1-5.969-1.295,16.249,16.249,0,0,1-3.646-1.509c-.56-.339-2.86-.757-3.126-1.2-.8-1.351,2.21-2.708,3.007-3.126,1.882-.984,2.979-2.555,4.319-4.211.752-.933,1.47-1.837,2.154-2.8a19.962,19.962,0,0,1,1.769-2.5c1.108,1.165,2.425,2.244,3.5,3.414s1.362,2.521,2.086,3.872c.808,1.509,2.109,2.663,3.047,4.093,1.091,1.662,1.673,3.279,3.318,4.477,1.894,1.385,2.634,2.832,3.923,4.782h0c.458.707,1.278,1.159,1.713,1.82.379.582.373,2.34,1.419,2.125.322-.068.413-.215.78-.175a2.482,2.482,0,0,0,1.04-.006,8.575,8.575,0,0,1,.944-.339,4.052,4.052,0,0,0,1.057-.277c.373-.153.786.057,1.159-.073.317-.107.56-.571.735-.842a2.207,2.207,0,0,0,.271-1.3,13.749,13.749,0,0,0-.48-2.793,2.918,2.918,0,0,0-1.2-1.945,2.35,2.35,0,0,0-1.295-.226c-.531-.045-1.046-.334-1.583-.4-.43-.051-.933.1-1.232-.271a3.171,3.171,0,0,1-.475-1.21,15.9,15.9,0,0,0-.526-2.928,39.287,39.287,0,0,0-2.64-4.958c-.9-1.447-2.272-2.363-3.267-3.714-2.21-3-2.51-7.925-2.928-11.487a11.033,11.033,0,0,0-2.736-5.941c-.921-1.114-2.323-1.786-3.075-3.053-.978-1.662.22-1.956.5-3.59.187-1.08.045-2.075.271-3.188a17.945,17.945,0,0,0,.311-4.364,20.489,20.489,0,0,0-.588-4.047c-.588-2.318-2.679-3.183-4.833-3.878C96.984-.859,91.178.786,90.324,5.608c-.339,1.916.283,4.556.509,6.484.136,1.165.1,3.917,1.413,4.392A7.669,7.669,0,0,0,88.075,17.6c-2.487,1.577-5.625,2.069-7.942,3.917-2.125,1.7-3.16,4.341-4.969,6.32-1.521,1.668-3.064,2.51-4.036,4.607-1,2.165-2.436,4.217-3.561,6.371-.746,1.43-.769,3.217-1.628,4.579a13.26,13.26,0,0,1-3.906,3.59C60,48.276,59.68,49.69,58.962,51.758c-.379,1.091-1.142,1.843-1.278,3.041a14.5,14.5,0,0,0,.379,3.55c.384,2.736.724,5.478,1.227,8.191a19.468,19.468,0,0,1,.82,2.832,9.375,9.375,0,0,1-.848,2.934,16.473,16.473,0,0,1-1.555,3.872h0c-1.114,1.764-3.906,3.064-1.8,4.907-.531,2.176-2.589,3.3-3.584,5.161A16.408,16.408,0,0,1,49.6,90.153c-1.7,1.718-4.194,2.063-6.427,2.663a43.235,43.235,0,0,0-6.461,2.815,53.944,53.944,0,0,0-6.371,4,22.4,22.4,0,0,1-3.036,1.775c-.888.379-3.109,1.7-4,.921-1.1-.972.017-2.917-1.063-4.014-1.244-1.261-3.409-.447-4.771.085a24.17,24.17,0,0,0-5.319,3.132,54.782,54.782,0,0,1-6.4,4.262c-1.515.842-3.465,1.413-4.579,2.821C.33,109.673-.5,111.883.415,113.07c1.425,1.854,5.065-.7,6.637-1.17,1.939-.588,3.951-.062,5.879-.39a66.433,66.433,0,0,1,6.727-.961c2.12-.141,4.064-1.2,6.122-1.735,5.659-1.458,11.317-2.849,17-4.274a27.663,27.663,0,0,0,5.1-1.8c1.487-.7,2.815-.859,4.3-1.453,1.639-.656,2.849-2.555,4.07-3.754,2.1-2.063,4.421-4.014,6.648-6.026,1.181-1.068,2.369-2.137,3.544-3.217a11.637,11.637,0,0,1,1.735-1.651c.435-.243.916-.119,1.295-.367,2.544-1.634,4.432-5.5,5.969-8.027h0a14.146,14.146,0,0,1,2.442-3.527c.215-.22,3.963,1.311,4.347,1.464,2.1.825,4.262,1.673,6.4,2.369,1.5.486,2.713,1.588,4.319,1.945.215.045.52.48.7.469.865-.073,1.074-1.43,2.058-1.43.933.006,1.792,1.4,2.289,2.041a25.2,25.2,0,0,1,2.968,5.11,31.333,31.333,0,0,0,2.335,4.9c2.719,4,9.124,6.077,10.452,11.114C114.231,104.579,111.2,109.407,111.359,111.877Z" transform="translate(-0.017 -0.027)"/><g transform="translate(108.04 37.202)"><path class="c" d="M226.906,91.362c.192.062.724.384.871.124.175-.311-.6-.882-.8-.978a23.95,23.95,0,0,0-11.051-1.888c-.39.011-1.639.3-1.526-.413.073-.458.9-.684,1.255-.825a15.225,15.225,0,0,0,5.562-4.3,23.249,23.249,0,0,0,1.99-2.3c.4-.6.735-1.238,1.1-1.86a6.171,6.171,0,0,0,.944-1.634c.011-.045-.011-.763-.187-.639a5.571,5.571,0,0,0-1.4,1.685A34.837,34.837,0,0,1,220.14,82.7a14.212,14.212,0,0,1-2.436,2.052,28.48,28.48,0,0,1-3.137,2.018,6.372,6.372,0,0,1-1.419.667c-.469.13-.639-.153-1.085-.175-.464-.023-6.484,1.549-7.354,1.82-1.345.418-2.742.724-4.1,1.1-1.775.492-3.6.859-5.387,1.311a31.579,31.579,0,0,1-4.081.808,11.232,11.232,0,0,0,.656,3.3c.458-.17.995-.119,1.47-.254,4.149-1.153,8.417-1.939,12.623-2.9a34.872,34.872,0,0,0,3.59-.848c.684-.237,1.413-.367,2.1-.582a5.884,5.884,0,0,0,1.035-.305,9.981,9.981,0,0,1,.887-.582,6.817,6.817,0,0,1,2.414-.328c.825-.011,1.651-.136,2.487-.073.452.034.91.124,1.362.192a46.8,46.8,0,0,1,5.139.916C225.566,91.046,226.25,91.164,226.906,91.362Z" transform="translate(-191.14 -70.535)"/><g transform="translate(31.264)"><path class="c" d="M272.977,73.267a11.4,11.4,0,0,0-6.388-6.478,13.451,13.451,0,0,0-3.38-.865,16.623,16.623,0,0,0-13.465,5.054c-2.855,2.962-4.324,7.445-2.482,11.351a11.022,11.022,0,0,0,7.6,5.975,18.446,18.446,0,0,0,6.235.249,23.154,23.154,0,0,0,4.251-.938,12.32,12.32,0,0,0,7.5-6.642A9.615,9.615,0,0,0,272.977,73.267Zm-1.815,8.412-.051-.147.164-.051C271.236,81.548,271.2,81.616,271.163,81.678Zm-1.538,2.052-.237-.644L270,82.9l.107.288C269.953,83.374,269.789,83.555,269.625,83.73Zm-10.441,3.544.831-.249.226.616c-.3.023-.6.04-.9.051Zm-6.337-.831c-.164-.085-.328-.181-.492-.277l.622-.187.237.644Zm-2.889-2.267,2.126-.639.226.616-1.837.554C250.3,84.539,250.123,84.363,249.959,84.177Zm-2.267-5.9,2.233-.673.192.526-2.419.729C247.686,78.665,247.686,78.473,247.692,78.275Zm.317-2.069,1.261-.384.209.565-1.622.48C247.9,76.647,247.952,76.427,248.008,76.206Zm2.306-4.223.464-.141.311.854-1.04.317-.181-.492C250.015,72.34,250.162,72.159,250.315,71.983Zm.367-.4.011.028-.051.017c.011-.017.028-.028.04-.045ZM265.73,67.71l.181.492-.859.26-.305-.831.435-.13C265.368,67.563,265.549,67.636,265.73,67.71Zm1.679.9.107.294-.916.283-.322-.888.413-.124C266.934,68.315,267.177,68.462,267.409,68.614Zm4.285,12.058c-.079.17-.164.339-.249.5l-.424.124-.249-.69.921-.277.068.192C271.739,80.576,271.717,80.627,271.694,80.672Zm-1.006-.294-.215-.594.921-.277.215.594Zm-3.94-9.881.266.724-.859.254-.26-.712Zm-.073-1.1.916-.283.288.791-.916.283Zm1.374,10.011-.226-.616.6-.181.226.616Zm.7.051.192.526-.611.181-.192-.526ZM267.4,77.636l-.243-.667.611-.181.243.667Zm.7.051.254.69-.611.181-.249-.69Zm-.9.271.254.69-.616.187-.254-.69Zm-.7-.051-.243-.667.616-.187.243.667Zm-8.553-1.877.26.718-.65.2-.26-.718Zm-.735-.04-.192-.526.65-.2.192.526Zm2.572,2.063-.209-.577.684-.209.209.577Zm.769.028.2.554-.684.209-.2-.56Zm-.7.831-.56.17-.2-.56.56-.17Zm-.367-1.668-.2-.565.684-.2.2.565Zm-.13.3.209.577-.56.17-.209-.577Zm-.644-.068-.2-.565.56-.17.2.565Zm-.294-.8-.26-.718.56-.17.26.718Zm-.345-.95-.192-.526.56-.17.192.526Zm.22,1.249.2.565-.65.2-.2-.565Zm.288.8.209.577-.65.2-.209-.577Zm.294.814.2.554-.65.2-.2-.56Zm.294.786.243.667-.65.2-.243-.667Zm.215-.062.56-.17.243.667-.56.17Zm.769-.232.684-.209.243.667-.684.209Zm.611-1.063.639-.192.2.56-.639.192Zm.288.791.639-.192.243.667-.639.192Zm.565-1.051.514-.153.2.56-.514.153Zm.288.791.514-.153.243.667-.514.153Zm.729-.215.65-.2.243.667-.65.2Zm.859-.26.656-.2.243.667-.656.2Zm-.085-.237-.2-.554.656-.2.2.56Zm-.288-.791-.209-.577.656-.2.209.577Zm-.13.3.2.554-.65.2-.2-.56Zm-.735-.04-.209-.577.65-.2.209.577Zm-.294-.808-.2-.565.65-.2.2.565Zm-.13.3.209.577-.514.153-.209-.577Zm-.6-.079-.2-.565.514-.153.2.565Zm-.13.3.209.577-.639.192-.209-.577Zm-.718-.045-.2-.565.639-.192.2.565Zm-.294-.8-.26-.718.639-.192.26.718Zm-.345-.95-.192-.526.639-.192.192.526Zm-.13.3.26.718-.684.2-.26-.718Zm-.769-.028-.192-.526.684-.209.192.526Zm-.277-.757-.254-.7.684-.2.254.69Zm-.215.062-.56.17-.254-.7.56-.164Zm-.774.232-.65.2-.26-.707.65-.192Zm-.865.266-.661.2-.26-.712.661-.2Zm.085.232.192.526-.661.2-.192-.526Zm.277.757.26.718-.661.2-.26-.718Zm.345.95.2.565-.661.2-.2-.565Zm.294.8.209.577-.661.2-.209-.577Zm.294.814.2.56-.661.2-.2-.554Zm.288.791.243.667-.661.2-.243-.667Zm.328.9.254.69-.661.2-.249-.69Zm.215-.068.65-.2.254.69-.65.2Zm.871-.26.56-.17.254.69-.56.17Zm.769-.232.684-.209.254.69-.684.2Zm.9-.271.639-.192.249.69-.639.192Zm.854-.254.514-.153.254.69-.514.153Zm.729-.22.65-.2.254.69-.65.2Zm.865-.26.656-.2.249.69-.656.2Zm.865-.52-.243-.667.6-.181.243.667Zm.684.051.254.69-.6.181-.254-.69Zm.215-.322-.243-.667.611-.187.243.667Zm-.334-.9-.2-.554.611-.187.2.56Zm-.288-.786-.209-.577.611-.187.209.577Zm-.209.322.2.56-.6.181-.2-.554Zm-.69-.051-.209-.577.6-.181.209.577Zm-.294-.814-.2-.565.6-.181.2.565Zm-.294-.8-.26-.718.6-.181.26.718Zm-.209.322.2.565-.656.2-.2-.565Zm-.741-.034-.26-.718.656-.2.26.718Zm-.215.062-.65.2-.26-.718.65-.2Zm-.995-.752-.192-.526.65-.2.192.526Zm-.13.294.26.718-.514.153-.26-.718Zm-.6-.079-.192-.526.514-.153.192.526Zm-.277-.757-.249-.684.514-.153.249.684Zm-.215.068-.639.192-.254-.69.639-.187Zm-.972-.735-.237-.65.639-.192.237.656Zm-.215.062-.684.2-.237-.644.684-.209Zm-.9.266-.56.164-.232-.639.554-.17Zm-.769.232-.65.192-.232-.627.65-.2Zm-.871.254-.661.2-.226-.622.661-.2Zm-.876.26-.831.243-.22-.611.831-.254Zm.085.232.26.712-.831.249-.26-.718Zm.345.95.192.526-.831.249-.192-.526Zm.277.757.26.718-.831.249-.26-.718Zm.345.95.2.565-.831.249-.2-.565Zm.294.8.209.577-.831.249L256,78.552Zm.294.808.2.554-.831.249-.2-.554Zm.288.791.243.667-.831.249-.243-.667Zm.328.9.254.69-.831.249-.254-.69Zm.339.921.226.616-.831.249-.226-.616Zm.311.854.192.526-.831.249-.192-.526Zm.13-.3-.226-.616.661-.2.226.616Zm.746.034.192.526-.661.2-.192-.526Zm.13-.3-.226-.616.65-.2.226.616Zm.735.04.192.526-.65.2-.192-.526Zm.13-.3-.226-.616.56-.17.226.616Zm.644.068.192.526-.56.17-.192-.526Zm.13-.3-.226-.616.684-.209.226.616Zm.769.028.192.526-.684.209-.192-.531Zm.13-.3-.226-.616.639-.192.226.616Zm.724.04.192.526-.639.192-.192-.526Zm.13-.3-.226-.616.514-.153.226.616Zm.594.085.192.526-.509.153-.192-.526Zm.13-.3-.226-.616.65-.2.226.616Zm.735.034.192.526-.65.2-.192-.526Zm.13-.3-.226-.616.656-.2.226.616Zm.741.04.192.526-.656.2-.192-.526Zm-.017-.938.6-.181.226.616-.6.181Zm.814-.509-.254-.69.611-.187.249.69Zm.243-2.1-.2-.554.616-.187.2.554Zm-.288-.791-.209-.577.616-.187.209.577Zm-.294-.808-.2-.565.616-.187.2.565Zm-.294-.8-.26-.718.616-.187.26.718Zm-.209.322.2.565-.611.187-.2-.565Zm-.7-.051-.26-.718.611-.187.26.718Zm-.345-.95-.192-.526.611-.187.192.526Zm-.277-.757-.243-.667.611-.181.243.661Zm-.209.322.192.526-.6.181-.192-.526Zm-.69-.051-.243-.673.6-.181.243.667Zm-.209.322.192.526-.656.2-.192-.526Zm-.741-.04-.249-.678.656-.192.243.673Zm-.215.068-.65.2-.249-.684.65-.192Zm-.984-.718-.243-.667.65-.2.243.673Zm-.215.062-.514.153-.243-.661.509-.158Zm-.831-.718-.288-.791.514-.158.288.791Zm-.215.062-.639.192-.288-.791.639-.192Zm-.854.26-.684.209-.288-.791.684-.209Zm-.9.277-.554.17-.288-.791.56-.17Zm-.769.232-.65.2-.288-.791.65-.2Zm-.865.266-.661.2-.288-.791.661-.2Zm-.876.266-.831.254-.288-.791.831-.254Zm-1.046.317-.791.243-.288-.791.791-.243Zm-.707,1.119-1.063.317-.215-.594,1.057-.322Zm-.006-.667.791-.243.22.611-.791.232Zm1.1.6.26.718-.791.237-.266-.724Zm.345.95.192.526-.791.237-.192-.526Zm.277.763.26.718-.791.237-.26-.718Zm.345.95.2.565-.791.237-.2-.565Zm.294.8L256,79.2l-.791.237L255,78.857Zm.294.808.2.554-.791.237-.2-.554Zm.288.791.243.667-.791.237-.243-.667Zm.334.9.254.69-.791.237-.254-.69Zm-.447,1.849-1.063.322-.226-.616,1.063-.322Zm.085.232.192.526-1.063.322-.192-.526Zm.13-.3-.226-.616.791-.237.226.616Zm.876-.006.192.526-.791.237-.192-.526Zm.277.763.215.594-.791.237-.215-.594Zm.215-.062.831-.249.215.594-.831.249Zm1.046-.317.661-.2.215.594-.661.2Zm.876-.266.65-.2.215.594-.65.2Zm.871-.26.56-.17.215.594-.56.17Zm.769-.232.684-.2.215.594-.684.209Zm.9-.271.639-.192.215.594-.639.192Zm.938.633.249.69-.639.192-.249-.69Zm-.085-.893.514-.153.215.594-.514.153Zm.729-.22.65-.2.215.594-.65.2Zm.859-.26.656-.2.215.594-.656.2Zm.865-.52-.192-.526.6-.181.192.526Zm.4-1.645.61-.187.226.616-.611.187Zm.927.667.192.526-.611.187-.192-.526Zm-.017-.944.616-.187.226.616-.616.187Zm.927.667.192.526-.616.187-.192-.526Zm.8-1.447-.254-.69.859-.26.254.69Zm-.339-.927-.243-.667.859-.26.243.667Zm-.328-.9-.2-.56.859-.26.2.554Zm-.288-.791-.209-.577.859-.26.209.577Zm-.209.328.2.554-.611.181-.2-.56Zm-.7-.051-.209-.577.611-.181.209.577Zm-.294-.814-.2-.565.611-.181.2.565Zm-.294-.8-.26-.718.611-.181.26.718Zm-.345-.95-.192-.526.611-.181.192.526Zm-.277-.757-.237-.656.611-.181.237.65Zm-.209.322.192.526-.616.187-.192-.526Zm-.7-.051-.243-.661.616-.181.237.656Zm-.328-.893-.254-.7.616-.187.254.7ZM264,71.1l-.288-.791.616-.187.288.791Zm-.215.3.254.7-.616.181-.254-.69Zm-.69-.028-.288-.791.611-.187.288.791Zm-.22.305.249.684-.6.175-.249-.678Zm-.678-.028-.288-.791.6-.181.288.791Zm-.22.3.249.678-.656.192-.243-.673Zm-.729-.011-.288-.791.656-.2.288.791Zm-.215.068-.65.2-.288-.791.65-.2Zm-1.018-.808-.328-.893.65-.2.328.893Zm-.215.068-.509.158-.328-.893.509-.158Zm-.724.22-.639.192-.328-.9.639-.192Zm-.854.26-.684.209-.328-.9.684-.209Zm-.893.271-.56.17-.328-.9.56-.17Zm-.774.237-.65.2-.328-.9.65-.2Zm-.865.26-.661.2-.328-.9.661-.2Zm-.876.271-.831.254-.328-.9.831-.249Zm-1.04.317-.791.243-.328-.9.791-.237Zm-.644,1.311-1.057.322-.288-.791,1.057-.322Zm-1.272.384-1.034.317-.288-.791,1.04-.317Zm.079.215.215.588-1.04.305-.215-.582Zm.3.82.266.735-1.04.311-.271-.741Zm.35.967.192.526-1.04.311-.192-.526Zm.13-.3-.266-.729,1.063-.311.266.724Zm1.148-.085.192.526-1.063.322-.192-.526Zm.277.757.26.718-1.063.322-.26-.718Zm.345.955.2.565-1.063.322-.2-.565Zm.294.8.209.577-1.063.322-.209-.577Zm.294.808.2.554-1.063.322-.2-.56Zm.288.791.243.667-1.063.322-.243-.667Zm.328.9.254.69-1.063.322-.254-.69Zm-.712,1.928-1.04.311-.226-.616,1.04-.311Zm.09.232.192.526-1.04.311-.192-.526Zm.277.763.215.594-1.04.311-.215-.594Zm.215-.068,1.063-.322.215.594-1.063.322Zm1.362.509.249.69-1.063.322-.249-.69Zm.215-.062.791-.237.249.69-.791.237Zm1.006-.305.831-.249.249.684-.831.249Zm1.046-.317.661-.2.249.69-.661.2Zm.876-.266.65-.2.249.69-.65.2Zm.865-.26.56-.17.249.69-.56.17Zm.774-.232.684-.209.249.69-.684.209Zm1.018.718.254.7-.684.209-.254-.7Zm.215-.068.639-.192.254.7-.639.192Zm.514-1.176.514-.153.249.69-.514.153Zm.729-.22.65-.2.249.69-.65.2Zm.865-.26.656-.2.249.69-.656.2Zm.865-.52-.215-.594.6-.181.215.594Zm.69.051.249.69-.6.181L266,82.057Zm.209-.322-.215-.594.611-.187.215.594Zm.7.045.249.69-.61.187-.249-.69Zm.209-.322-.215-.594.616-.187.215.594Zm.707.051.249.69-.616.187-.249-.69ZM268.63,81l-.215-.594.611-.181.215.594Zm.69.051.249.69-.611.181-.249-.69Zm.215-.328-.215-.594.859-.26.215.594Zm-.305-.825-.192-.526.859-.26.192.526Zm-.277-.757-.226-.616.859-.26.226.616Zm.842-1.2-.254-.69.921-.277.254.69Zm-.339-.921-.243-.667.916-.277.243.667Zm-.328-.9-.2-.554.916-.277.2.56Zm-.288-.791-.209-.577.921-.277.209.577Zm-.294-.814-.2-.565.916-.277.2.565Zm-.294-.8-.26-.718.916-.277.26.718Zm-.209.328.2.565-.859.26-.2-.565Zm-.944.023-.26-.718.859-.26.26.718Zm-.345-.95-.192-.526.859-.26.192.526Zm-.277-.757-.237-.65.859-.254.237.644Zm-.661-1.809-.288-.791.859-.26.288.791Zm-.22.3.26.712-.611.181-.26-.707Zm-.684-.023-.288-.791.6-.187.288.791Zm-.367-1.006-.328-.888.61-.187.328.888Zm-.39-1.08-.305-.831.611-.181.305.831Zm.1,1.17-.616.187-.328-.893.616-.187Zm-.91.277-.61.187-.328-.893.611-.187Zm-.9.277-.6.187-.328-.893.6-.181Zm-.9.271-.656.2-.328-.893.656-.2Zm-1.051-.888-.305-.837.656-.2.305.837Zm-.215.068-.65.2-.305-.842.65-.2Zm-.865.26-.514.153-.305-.842.514-.153Zm-.724.22-.639.192-.305-.842.639-.192Zm-.854.26-.684.209-.311-.842.684-.209Zm-.9.271-.56.17-.311-.848.56-.17Zm-.769.237-.65.2-.311-.848.65-.2Zm-.865.26-.661.2-.311-.848.661-.2Zm-.876.266-.831.254-.311-.854.831-.249Zm-1.046.317-.791.237-.311-.854.791-.237Zm-.6,1.4-1.063.322-.328-.9,1.063-.322Zm-1.278.39-1.04.317-.333-.9,1.04-.317Zm-.882,1.385-1.2.367-.288-.791,1.2-.367Zm.073.209.209.577-1.2.356-.209-.565Zm.3.814.271.741-1.2.362-.271-.746Zm.356.972.192.526-1.2.362-.192-.526Zm.277.757.26.718-1.2.362-.26-.718Zm.215-.062,1.04-.311.26.718-1.04.311Zm1.385.639.2.565-1.04.311-.2-.565Zm.288.8.209.577-1.04.311-.209-.577Zm.3.808.2.56-1.04.311-.2-.554Zm.288.791.243.667-1.04.311-.243-.667Zm.328.9.254.69-1.04.311-.249-.69Zm-.69,1.922-1.2.362-.226-.616,1.2-.362Zm.085.232.192.526-1.2.362-.192-.526Zm.277.763.215.594-1.2.362-.215-.594Zm.305.825.249.69-1.2.362-.249-.69Zm.215-.068,1.04-.311.249.69-1.04.311Zm1.374.611.254.7-1.04.311-.254-.7Zm.215-.062,1.063-.322.254.7-1.063.322Zm1.272-.384.791-.237.254.7-.791.237Zm1.006-.305.831-.249.254.7-.831.249Zm1.046-.317.661-.2.254.7-.661.2Zm.876-.266.65-.2.254.7-.65.2Zm.871-.26.56-.17.254.7-.56.17Zm.893.763.283.769-.56.17-.283-.769Zm.215-.062.684-.209.283.769-.684.2Zm.9-.271.639-.192.283.769-.639.192Zm.514-1.187.514-.153.254.7-.514.153Zm.729-.22.65-.2.254.7-.65.2Zm.859-.26.656-.2.254.7-.656.2Zm.995.735.283.769-.656.2-.283-.769Zm.215-.322-.254-.7.6-.181.254.7Zm.684.051.283.769-.6.181-.283-.769Zm.215-.322-.254-.7.611-.187.254.7Zm.7.045.283.769-.611.187-.283-.769Zm.209-.322-.254-.7.616-.187.254.7Zm.7.051.283.769-.616.187-.283-.769Zm.215-.322-.254-.7.611-.181.254.7Zm.56-1.21-.249-.69.859-.26.249.69Zm.514-2.092-.192-.526.921-.277.192.526Zm-.277-.763-.226-.616.916-.277.226.616Zm.9-1.215-.254-.69,1.69-.509a6.8,6.8,0,0,1,.028.757Zm-.339-.927-.243-.667,1.888-.571c.045.237.079.469.107.707Zm-.328-.9-.2-.554,1.984-.6c.057.192.1.379.147.577Zm-.288-.791-.209-.577,2.007-.6q.11.288.2.577Zm-.3-.808-.2-.565L271.5,73c.09.181.175.362.249.548Zm-.288-.8-.26-.718,1.786-.537c.141.22.277.447.4.673Zm-.35-.955-.192-.526,1.566-.469c.119.153.237.311.35.475Zm-.271-.757-.232-.633,1.227-.362c.17.175.333.362.492.548Zm-.215.322.192.526-.921.277-.192-.526Zm-1,.045-.232-.644.921-.271.232.639Zm-.322-.876-.266-.724.916-.277.266.729Zm.871-1.306-.288-.791.079-.023c.271.2.543.418.8.639Zm-1.871-.543-.859.26-.322-.888.859-.26ZM264.668,67.4l-.023-.068c.04.011.085.028.124.04Zm-.3.09-.611.181-.215-.588q.365.059.729.153Zm-.514,1.34-.616.187-.305-.837.616-.187Zm-.91.271-.611.187-.305-.837.611-.187Zm-.9.277-.6.181-.305-.837.6-.181Zm-.995-.888-.56-1.538c.22-.017.441-.028.656-.034l.509,1.391Zm-.3.09-.656.2-.622-1.718q.348-.051.7-.085Zm-.865.26-.65.2-.661-1.815c.226-.045.447-.09.673-.124Zm-.865.26-.514.153-.678-1.86c.175-.045.345-.09.52-.13Zm-.729.22-.639.192-.678-1.86c.209-.068.424-.136.639-.192Zm-.854.254-.684.209-.661-1.815c.22-.09.441-.17.667-.249Zm-.9.271-.56.17-.627-1.724c.175-.079.356-.158.531-.232Zm-.769.237-.65.2-.577-1.583c.2-.107.4-.209.611-.311Zm-.865.26-.661.2-.509-1.391c.2-.124.4-.237.6-.35Zm-.876.266-.831.249-.4-1.091c.243-.17.486-.339.741-.5Zm-1.046.311-.791.237-.266-.724c.22-.187.452-.362.684-.531Zm-.611,1.391-1.063.322-.311-.854,1.063-.322Zm-2.527.769-.464.141c.107-.164.22-.328.339-.486Zm.068.192.334.9-1.2.367-.175-.475c.107-.2.22-.4.339-.588Zm-1.08,1.334-.266.079c.057-.119.107-.232.164-.35Zm.073.215.288.791-1.108.339a9.028,9.028,0,0,1,.362-.989Zm.661,1.8.271.746-2.131.644a7.465,7.465,0,0,1,.1-.871Zm.633,1.741.26.718-2.668.8a7.122,7.122,0,0,1-.09-.769Zm.35.95.2.565-2.77.837c-.057-.192-.1-.39-.141-.582Zm.288.8.209.577c-.458.136-.91.283-1.362.418-.243.073-1.006.328-1.413.441-.079-.2-.153-.4-.215-.594Zm.13-.3-.2-.565,1.2-.362.2.565Zm1.289-.13.209.577-1.2.362-.209-.577Zm.294.814.2.554-1.2.362-.2-.554Zm-1.125,1.215.243.667-2.521.757a7.144,7.144,0,0,1-.39-.622Zm.215-.062,1.2-.362.243.667-1.2.362Zm1.526.537.254.69-1.2.362-.249-.69Zm-.763,2.2.192.526-1.408.424c-.17-.141-.339-.283-.5-.435Zm.277.757.215.594-.814.243c-.22-.141-.441-.3-.656-.464Zm2.052,1.323.254.7-.141.045a11.355,11.355,0,0,1-1.215-.407Zm.588.859,1.006-.305.192.52c-.4-.057-.786-.124-1.17-.215C255.335,87.337,255.323,87.331,255.318,87.331Zm1.221-.367,1.063-.322.283.769-.718.215c-.136-.011-.266-.028-.4-.045Zm1.425.678.017.04c-.04,0-.085-.006-.124-.006Zm-.147-1.063.791-.237.283.769-.791.237Zm1.006-.305.831-.249.283.769-.831.249Zm1.046-.317.661-.2.283.769-.661.2Zm.876-.266.65-.2.283.769-.65.2Zm1.018.808.328.9c-.226.04-.452.079-.684.107l-.3-.814Zm.215-.068.56-.17.356.978-.577.119Zm.769-.232.684-.2.373,1.029q-.348.093-.7.17Zm.9-.271.639-.192.379,1.034c-.209.068-.424.13-.639.187Zm.486-1.255.514-.153.283.769-.514.153Zm.729-.22.65-.2.283.769-.65.2Zm1.012.8.339.927c-.2.1-.413.181-.622.266l-.362-1Zm.215-.062.656-.2.283.774q-.3.17-.611.322Zm.95-.288.6-.181.2.537c-.175.119-.356.237-.543.35Zm.9-.271.611-.187.079.215c-.17.141-.35.277-.531.413Zm.91-.271.2-.062-.17.153Zm1.447-1.549.136-.04-.1.136Zm.379-.373-.464.141-.254-.7.859-.26.141.39C270.863,82.159,270.773,82.3,270.671,82.441Zm1.227-2.431-.215-.594.526-.158c-.062.243-.141.486-.226.729Zm-.3-.825-.192-.526.984-.294c-.028.209-.068.413-.113.616Zm-.277-.763-.226-.616,1.379-.418c-.006.237-.023.469-.051.7Zm-1.685-7.976-1.114.328-.266-.735.712-.215c.22.2.435.4.644.6A.044.044,0,0,1,269.636,70.446Zm-3.194-2.4-.232.073-.085-.226c.028.017.062.028.09.045C266.29,67.964,266.363,68,266.443,68.043ZM263.2,67.026l.266.729-.616.187-.362-.995c.147.011.294.023.435.04C263.017,67,263.107,67.015,263.2,67.026Zm-1.046-.1.4,1.1-.611.187-.475-1.306C261.694,66.913,261.92,66.918,262.152,66.93Zm-10.413,3.663.232.633-1.063.322-.051-.141Q251.281,70.983,251.739,70.593ZM248.37,81.769c.413-.13,1.4-.435,1.6-.5.39-.119.774-.232,1.165-.35l.2.56-2.708.814c-.068-.13-.136-.26-.2-.39A.723.723,0,0,1,248.37,81.769Zm.921,1.583,2.459-.741.254.69-2.222.673C249.608,83.77,249.45,83.566,249.292,83.352Zm8.932,4.341-.04-.113.791-.237.13.356C258.811,87.7,258.517,87.7,258.223,87.693Zm2.787-.13c-.181.023-.356.04-.537.057l-.243-.661.661-.2.283.78C261.123,87.546,261.067,87.557,261.01,87.563Zm3.867-.854-.379-1.034.514-.153.367,1.012C265.216,86.6,265.046,86.653,264.877,86.709Z" transform="translate(-246.446 -65.837)"/></g></g><g transform="translate(170.053 32.789)"><path class="c" d="M332.841,92.521H322.525V67.269H311.157V92.515H300.84V59.05h32.007V92.521Z" transform="translate(-300.84 -58.473)"/><path class="c" d="M369.56,59.06h17.191q5.613,0,8.412,2.674t2.8,7.6a10.319,10.319,0,0,1-3.047,7.92q-3.044,2.858-9.3,2.855h-5.664V92.531H369.56Zm10.39,14.268h2.533c2,0,3.392-.345,4.2-1.04a3.334,3.334,0,0,0,1.21-2.657,3.7,3.7,0,0,0-1.051-2.668q-1.051-1.094-3.951-1.1h-2.945v7.462Z" transform="translate(-330.713 -58.478)"/><path class="c" d="M429.33,59.06h27.716v7.145H439.7v5.319h16.094v6.823H439.7v6.6h17.852v7.581H429.336V59.06Z" transform="translate(-356.695 -58.478)"/><path class="c" d="M488.9,59.06h13.6l5.246,20.362,5.206-20.362h13.59V92.525h-8.468V67l-6.523,25.523H503.88L497.368,67V92.525H488.9Z" transform="translate(-382.591 -58.478)"/><path class="c" d="M626.058,82.349a15.008,15.008,0,0,1-5.444,7.428q-3.892,2.866-11.153,2.866-8.055,0-12.521-4.534t-4.46-13q0-8.123,4.511-12.6T609.88,58.03q11.278,0,15.432,8.423L616,69.992a5.949,5.949,0,0,0-6.116-4.2q-5.893,0-6.874,6.461h10.136V78.46H603.051q.848,6.419,6.778,6.416,5.088,0,6.506-5.161Z" transform="translate(-427.618 -58.03)"/><path class="c" d="M660.48,59.06h17.191q5.613,0,8.411,2.674t2.8,7.6a10.319,10.319,0,0,1-3.047,7.92q-3.044,2.858-9.3,2.855h-5.664V92.531H660.48V59.06Zm10.39,14.268H673.4c2,0,3.392-.345,4.2-1.04a3.334,3.334,0,0,0,1.21-2.657,3.7,3.7,0,0,0-1.051-2.668q-1.052-1.094-3.951-1.1h-2.945v7.462Z" transform="translate(-457.178 -58.478)"/></g></g></g></svg>