<svg id="Group_256" data-name="Group 256" xmlns="http://www.w3.org/2000/svg" viewBox="0 0 760.761 215.322">
  <defs>
    <style>
      .cls-1 {
        fill: #727aaa;
      }
    </style>
  </defs>
  <g id="Group_244" data-name="Group 244" transform="translate(601.181 22.499)">
    <path id="Path_150" data-name="Path 150" class="cls-1" d="M603.765,43.977a22,22,0,1,1-22-22A22,22,0,0,1,603.765,43.977Z" transform="translate(-559.77 -21.98)"/>
  </g>
  <g id="Group_246" data-name="Group 246">
    <g id="Group_243" data-name="Group 243" transform="translate(284.892 73.843)">
      <g id="Group_234" data-name="Group 234">
        <path id="Path_141" data-name="Path 141" class="cls-1" d="M600.357,73.591c.032.706-1.317,2.676-2.976,4.5-12.909,14.74-27.35,26.707-42.924,37.979a282.545,282.545,0,0,1-63.819,35.185c-5.663,2.655-11.55,5.042-17.544,7.311,1.873-.567,3.7-1.22,5.577-1.841,27.564-9.441,52.034-22.372,76.472-37.829,22.961-14.783,41.319-29.48,58.852-49,.792-.888,1.274-1.135,1.113-.589a9.059,9.059,0,0,1-1.681,2.537,204.656,204.656,0,0,1-27.339,26.129c-9.527,7.654-19.6,14.868-31.428,22.64-24.438,15.939-48.052,28.527-75.059,37.7a247.726,247.726,0,0,1-34.136,8.82,224.337,224.337,0,0,1-22.415,4.464c9.773-1.135,19.428-2.837,29.094-4.86a280.888,280.888,0,0,0,63.1-20.927c3.072-1.434,5.759-2.248,6.123-1.7.332.535-1.884,2.291-4.945,3.736a270.4,270.4,0,0,1-64.5,21.751c-14.14,2.858-28.527,5.277-43.224,5.8a225.842,225.842,0,0,1-44.145-2.376,160.719,160.719,0,0,1-43.492-12.856c-13.98-6.583-27.371-16.035-37.583-28.805-1.017-1.2-1.659-2.312-1.413-2.344.193-.139,1.188.878,2.194,2.012l-.578-.417a119.758,119.758,0,0,0,41.255,28.827c5.32,1.563,11.207,3.147,17.362,4.549a148.179,148.179,0,0,1-17.555-6.358c-16.72-7.386-30.486-18.262-40.591-32.68-.118-.182.086-.139.171-.193-.332-.567-.289-.739.118-.364a9.992,9.992,0,0,1,1.359,1.627c14.9,18.326,36.063,29.116,57.151,35.271,21.28,6.144,43.138,8.253,64.569,7.8a5.468,5.468,0,0,1,.6-.032,209,209,0,0,0,25.573-2.837c1.5-.235,2.794-.268,2.879.011.011.075-.053.161-.182.246,3.372-.5,6.733-1.049,10.083-1.659a16.6,16.6,0,0,1,3.383-.332c6.969-1.831,13.616-3.961,20.071-6.251-2.269.685-4.582,1.263-6.9,1.863-19.054,4.71-38.311,7.8-57.076,7.482a182.821,182.821,0,0,1-53.436-8.424c-.557-.193-.674-.353-.235-.375a4.992,4.992,0,0,1,1.691.289,189.9,189.9,0,0,0,49.529,6.969c16.913.321,33.9-2.173,50.942-5.941,12.749-4.571,29.094-9.334,43.042-15.361,1.595-.706,3.1-1.06,3.383-.824.3.235-.8,1.028-2.344,1.7-5.117,2.3-10.351,4.442-15.693,6.326,6.68-2.366,13.306-4.967,19.814-7.964,3.425-1.788,6.829-3.607,10.191-5.545a10.053,10.053,0,0,1,3.34-1.285c.139,0,.2.043.236.1,30.764-16.057,57.654-37.315,80.968-61.55C599,73.87,600.347,72.906,600.357,73.591ZM336.3,163.669a196.876,196.876,0,0,0,51.563,8.927q-6.567-.482-13.113-1.509A248.345,248.345,0,0,1,336.3,163.669Z" transform="translate(-265.047 -69.01)"/>
        <path id="Path_142" data-name="Path 142" class="cls-1" d="M349.243,166.544c9.9,1.659,20.156,2.794,29.373,4.121.439.075.717.171.492.246a3.362,3.362,0,0,1-1.252.011c-8.842-1.306-18.85-2.441-28.334-3.993a2.256,2.256,0,0,1-1.081-.375C348.355,166.459,348.773,166.459,349.243,166.544Z" transform="translate(-260.369 -62.145)"/>
        <path id="Path_143" data-name="Path 143" class="cls-1" d="M382.865,175.286a178.747,178.747,0,0,0,46.521-1.349,269.242,269.242,0,0,0,45.975-11.347c24.534-8.456,46.543-19.685,68.486-33.622,7.215-4.581,14.183-9.473,20.681-13.873.546-.385.921-.5.8-.246a4.806,4.806,0,0,1-1.3,1.231C537.3,135.262,507.56,152.56,475.671,163.1a285.675,285.675,0,0,1-46.414,11.207,178.883,178.883,0,0,1-47.142,1.263c-.407-.043-.642-.161-.492-.236A4.119,4.119,0,0,1,382.865,175.286Z" transform="translate(-258.034 -65.791)"/>
        <path id="Path_144" data-name="Path 144" class="cls-1" d="M520.086,140.215c-16.281,8.328-33.109,14.922-50.632,21.088a168.206,168.206,0,0,1-29.212,7.536,397.423,397.423,0,0,1-40.013,4.25,2.342,2.342,0,0,1-1.06-.086c-.032-.086.278-.182.749-.225,7.557-.557,14.847-1.135,22.137-2.055,7.172-.931,14.333-1.948,21.644-3.35,27.21-5.3,51.863-15.575,76.279-27.532.514-.268.867-.353.931-.278C520.932,139.679,520.547,139.979,520.086,140.215Z" transform="translate(-256.795 -64.043)"/>
        <path id="Path_145" data-name="Path 145" class="cls-1" d="M444.061,153.012a220.653,220.653,0,0,1-30.143,5.491,135.438,135.438,0,0,1-29.169-.31c-.482-.086-.557-.193-.257-.268a4.563,4.563,0,0,1,1.4-.043,129.386,129.386,0,0,0,28.495-.032,255.669,255.669,0,0,0,29.255-5.416,3.6,3.6,0,0,1,1.873-.128C445.6,152.487,445,152.776,444.061,153.012Z" transform="translate(-257.841 -63.149)"/>
        <path id="Path_146" data-name="Path 146" class="cls-1" d="M350.253,168.342c20.114,4.646,40.238,5.588,59.6,5.352,9.216-.578,18.465-1.756,27.435-3.211,1.285-.225,2.366-.236,2.43,0s-.931.632-2.226.856c-4.517.76-9.078,1.638-13.712,2.152.15.064.225.128.193.214a317.361,317.361,0,0,0,47.6-9.281c.856-.257,1.542-.31,1.584-.171.064.15-.6.482-1.445.728a288.418,288.418,0,0,1-49.443,9.409,14.071,14.071,0,0,1-2.1.278,234.346,234.346,0,0,1-42.914-.8c-20.767-2.334-41.223-5.973-61.282-15.939a112.465,112.465,0,0,1-22.468-15.243,83.085,83.085,0,0,1-15.96-17.373A87.789,87.789,0,0,1,266.235,99.46c-.139-.514-.064-.589.129-.225a5.78,5.78,0,0,1,.557,1.381,97.137,97.137,0,0,0,11.24,25.23c10.565,14.269,24.245,24.5,38.3,32.027C327.742,163.033,338.585,165.57,350.253,168.342Z" transform="translate(-266.163 -66.897)"/>
      </g>
    </g>
    <g id="Group_245" data-name="Group 245">
      <g id="Group_238" data-name="Group 238">
        <path id="Path_147" data-name="Path 147" class="cls-1" d="M210.853,211.827c.118,1.937,1.274,3.1,4.346,2.8,2.783-.268,5.6.128,8.392-.064,2.59-.182,3.169-.878,5.192-1.937,2.173-1.135,3.158-.428,5.534-.225a69.477,69.477,0,0,0,8.692.6c4.667-.182,10.544,1.3,15.05.075,2.783-.76,7.547-3.6,6.915-7.076-.749-4.143-7.793-2.612-10.608-3.254-5.952-1.359-8.96-8.114-14.536-10.276-5.9,5.256-11.967-4.774-14.419-9.58h0c-2.312-4.539-4.614-9.677-7.439-13.991-2.58-3.929-4.207-7.975-6.572-12.053-1.916-3.318-5.224-5.866-6.851-9.334-1.552-3.3-1.338-7.6-3.629-10.544-1.049-1.349-3.811-2.045-5.3-2.751-.664-.321-2.28-.792-2.708-1.434-.589-.888.61-1.509-.15-2.473a6.5,6.5,0,0,0-2.012-1.188c-1.1-.61-2.4-.942-3.425-1.648-3.918-2.687-7.589-6.016-11.775-8.3-2.1-1.145-4.271-2.226-6.326-3.436A14.93,14.93,0,0,0,165,113.625c.236-1.113.5-2.355.685-3.554,1.5,1.734,4.817,1.606,6.9,1.788,2.708.225,5.416.5,8.114.792,4.774.514,9.741.032,14.536.075,2.494.021,4.988-.289,7.482-.182a10.385,10.385,0,0,1,3.243.46c.91.364,1.627,1.188,2.58,1.574a8.018,8.018,0,0,1,2.762,1.177,12.75,12.75,0,0,1,1.242,1.67,4.732,4.732,0,0,0,2.762,1.777,5.8,5.8,0,0,0,3.286-.492c.578-.2.985-.8,1.574-.931a1.8,1.8,0,0,0,2.259.011c.343-.246.749-1.06,1.188-.953.086.021.428.482.6.589a1.242,1.242,0,0,0,.856.214c.824.011,1.21-.332,1.2-1.2a23.812,23.812,0,0,0-.407-2.837,4.28,4.28,0,0,0-1.723-2.847,9.676,9.676,0,0,1-1.852-1.83,11.048,11.048,0,0,0-1.98-2.516,10.9,10.9,0,0,0-2.879-1.22c-.514-.2-.91-.578-1.4-.8a9.19,9.19,0,0,0-1.616-.417,75.635,75.635,0,0,0-18.647-2.6c-4.046.011-7.7-1.285-11.3-2.451a30.77,30.77,0,0,1-6.9-2.858c-1.06-.642-5.416-1.434-5.919-2.28-1.52-2.558,4.185-5.127,5.695-5.92,3.565-1.863,5.641-4.838,8.178-7.975,1.424-1.766,2.783-3.479,4.078-5.309,1.006-1.413,2.237-3.693,3.35-4.742,2.1,2.205,4.592,4.25,6.626,6.465s2.58,4.774,3.95,7.332c1.531,2.858,3.993,5.042,5.77,7.75,2.066,3.147,3.168,6.209,6.283,8.478,3.586,2.623,4.988,5.363,7.429,9.056h0c.867,1.338,2.419,2.194,3.243,3.447.717,1.1.706,4.432,2.687,4.025.61-.128.781-.407,1.477-.332a4.7,4.7,0,0,0,1.97-.011,16.234,16.234,0,0,1,1.788-.642,7.673,7.673,0,0,0,2-.524c.707-.289,1.488.107,2.194-.139.6-.2,1.06-1.081,1.392-1.595a4.178,4.178,0,0,0,.514-2.462,26.034,26.034,0,0,0-.91-5.288,5.526,5.526,0,0,0-2.269-3.682,4.45,4.45,0,0,0-2.451-.428c-1.006-.086-1.98-.632-3-.76-.814-.1-1.766.182-2.334-.514a6,6,0,0,1-.9-2.291c-.417-1.83-.236-3.8-1-5.545a74.39,74.39,0,0,0-5-9.388c-1.713-2.74-4.3-4.474-6.187-7.033-4.185-5.673-4.753-15.008-5.545-21.751a20.891,20.891,0,0,0-5.181-11.25c-1.745-2.109-4.4-3.383-5.823-5.78-1.852-3.147.417-3.7.942-6.8.353-2.045.086-3.928.514-6.037a33.982,33.982,0,0,0,.589-8.264A38.8,38.8,0,0,0,200.6,8.208c-1.113-4.389-5.074-6.027-9.152-7.343-7.814-2.516-18.808.6-20.424,9.73-.642,3.629.535,8.628.963,12.278.257,2.205.182,7.418,2.676,8.317-3.126.257-5.031.3-7.9,2.109-4.71,2.987-10.651,3.918-15.04,7.418-4.025,3.211-5.984,8.221-9.409,11.967-2.879,3.158-5.8,4.753-7.643,8.724-1.895,4.1-4.614,7.985-6.744,12.064-1.413,2.708-1.456,6.091-3.083,8.671a25.108,25.108,0,0,1-7.4,6.8c-3.854,2.451-4.453,5.127-5.812,9.045-.717,2.066-2.162,3.49-2.419,5.759-.257,2.226.417,4.528.717,6.722.728,5.181,1.37,10.373,2.323,15.511.321,1.756,1.509,3.554,1.552,5.363.043,1.905-1.028,3.779-1.606,5.556a31.193,31.193,0,0,1-2.944,7.332h0c-2.109,3.34-7.4,5.8-3.415,9.291-1.006,4.121-4.9,6.241-6.787,9.773a31.069,31.069,0,0,1-5.149,7.4c-3.222,3.254-7.943,3.907-12.171,5.042s-8.264,3.511-12.235,5.331c-4.346,1.991-8.06,5.01-12.064,7.568a42.408,42.408,0,0,1-5.748,3.361c-1.681.717-5.887,3.211-7.568,1.745-2.077-1.841.032-5.523-2.012-7.6-2.355-2.387-6.455-.846-9.034.161A45.769,45.769,0,0,0,23,192.227,103.733,103.733,0,0,1,10.874,200.3c-2.869,1.595-6.562,2.676-8.671,5.341-1.595,2.012-3.158,6.2-1.434,8.446,2.7,3.511,9.591-1.317,12.567-2.216,3.672-1.113,7.482-.118,11.133-.739a125.779,125.779,0,0,1,12.738-1.82c4.014-.268,7.7-2.28,11.593-3.286,10.715-2.762,21.43-5.395,32.2-8.093a52.381,52.381,0,0,0,9.666-3.415c2.815-1.327,5.331-1.627,8.135-2.751,3.1-1.242,5.395-4.838,7.707-7.108,3.982-3.907,8.371-7.6,12.588-11.411,2.237-2.023,4.485-4.046,6.712-6.091,1-.921,2.119-2.473,3.286-3.126.824-.46,1.734-.225,2.451-.7,4.817-3.094,8.392-10.415,11.3-15.2h0c1.616-2.612,2.248-4.421,4.624-6.679.407-.417,7.5,2.483,8.232,2.772,3.971,1.563,8.071,3.168,12.128,4.485,2.837.921,5.138,3.008,8.178,3.682.407.086.985.91,1.317.888,1.638-.139,2.034-2.708,3.9-2.708,1.766.011,3.393,2.655,4.335,3.864a47.721,47.721,0,0,1,5.62,9.677c1.392,3.094,2.494,6.433,4.421,9.27,5.149,7.579,17.277,11.507,19.792,21.045C216.291,198.007,210.553,207.149,210.853,211.827Z" transform="translate(-0.017 -0.027)"/>
        <g id="Group_237" data-name="Group 237" transform="translate(204.585 70.446)">
          <path id="Path_148" data-name="Path 148" class="cls-1" d="M258.866,104.514c.364.118,1.37.728,1.648.235.332-.589-1.145-1.67-1.52-1.852-6.433-3.072-13.9-3.811-20.927-3.575-.739.021-3.1.567-2.89-.781.139-.867,1.713-1.3,2.376-1.563,4.175-1.659,7.579-4.8,10.533-8.135a44.017,44.017,0,0,0,3.768-4.346c.76-1.135,1.392-2.344,2.077-3.522.535-.921,1.595-2.034,1.788-3.094.021-.086-.021-1.445-.353-1.21a10.549,10.549,0,0,0-2.655,3.19,65.969,65.969,0,0,1-6.658,8.242,26.91,26.91,0,0,1-4.614,3.886,53.935,53.935,0,0,1-5.941,3.821,12.067,12.067,0,0,1-2.687,1.263c-.888.246-1.21-.289-2.055-.332-.878-.043-12.278,2.933-13.926,3.447-2.548.792-5.192,1.37-7.761,2.087-3.361.931-6.808,1.627-10.2,2.483a59.8,59.8,0,0,1-7.729,1.531c.246,2.034.375,4.378,1.242,6.251.867-.321,1.884-.225,2.783-.482,7.857-2.184,15.939-3.672,23.9-5.491a66.032,66.032,0,0,0,6.8-1.606c1.3-.45,2.676-.7,3.982-1.1a11.142,11.142,0,0,0,1.959-.578,18.9,18.9,0,0,1,1.681-1.1,12.909,12.909,0,0,1,4.571-.621c1.563-.021,3.126-.257,4.71-.139.856.064,1.723.235,2.58.364a88.621,88.621,0,0,1,9.73,1.734C256.329,103.914,257.625,104.139,258.866,104.514Z" transform="translate(-191.14 -65.076)"/>
          <g id="Group_236" data-name="Group 236" transform="translate(59.201)">
            <path id="Path_149" data-name="Path 149" class="cls-1" d="M296.686,79.906a21.579,21.579,0,0,0-12.1-12.267,25.47,25.47,0,0,0-6.4-1.638,31.476,31.476,0,0,0-25.5,9.57c-5.406,5.609-8.189,14.1-4.7,21.494a20.871,20.871,0,0,0,14.4,11.315,34.93,34.93,0,0,0,11.807.471,43.844,43.844,0,0,0,8.05-1.777A23.33,23.33,0,0,0,296.45,94.5,18.207,18.207,0,0,0,296.686,79.906ZM293.25,95.834l-.1-.278.31-.1C293.389,95.588,293.314,95.716,293.25,95.834Zm-2.912,3.886-.45-1.22,1.156-.343.2.546C290.959,99.045,290.649,99.388,290.338,99.719Zm-19.771,6.712,1.574-.471.428,1.167c-.567.043-1.135.075-1.713.1Zm-12-1.574c-.31-.161-.621-.343-.931-.525l1.177-.353.45,1.22C259.028,105.082,258.8,104.975,258.568,104.858Zm-5.47-4.292,4.025-1.21.428,1.167-3.479,1.049C253.74,101.25,253.408,100.918,253.1,100.565ZM248.805,89.39l4.228-1.274.364,1-4.581,1.381C248.794,90.128,248.794,89.764,248.805,89.39Zm.6-3.918,2.387-.728.4,1.07-3.072.91C249.191,86.307,249.3,85.889,249.4,85.472Zm4.367-8,.878-.268.589,1.616-1.97.6-.343-.931C253.2,78.15,253.483,77.808,253.772,77.476Zm.7-.76.021.054-.1.032c.021-.032.053-.054.075-.086Zm28.5-7.332.343.931-1.627.492-.578-1.574.824-.246C282.278,69.105,282.62,69.244,282.963,69.383Zm3.179,1.713.2.557-1.734.535L284,70.507l.781-.236C285.243,70.529,285.7,70.807,286.142,71.1Zm8.114,22.832c-.15.321-.311.642-.471.953l-.8.235-.471-1.306,1.745-.525.128.364C294.342,93.746,294.3,93.843,294.256,93.928Zm-1.905-.557-.407-1.124,1.745-.525.407,1.124ZM284.89,74.661l.5,1.37-1.627.482-.492-1.349Zm-.139-2.077,1.734-.535.546,1.5-1.734.535Zm2.6,18.957-.428-1.167,1.145-.343L288.5,91.2Zm1.317.1.364,1-1.156.343-.364-1Zm-2.548-3.458-.46-1.263,1.156-.343.46,1.263Zm1.317.1.482,1.306-1.156.343-.471-1.306Zm-1.713.514.482,1.306-1.167.353-.482-1.306Zm-1.327-.1-.46-1.263,1.167-.353.46,1.263ZM268.2,85.14l.492,1.359-1.231.375-.492-1.359Zm-1.392-.075-.364-1,1.231-.375.364,1Zm4.871,3.907-.4-1.092,1.3-.4.4,1.092Zm1.456.054.385,1.049-1.3.4-.385-1.06ZM271.82,90.6l-1.06.321-.385-1.06,1.06-.321Zm-.7-3.158-.385-1.07,1.3-.385.385,1.07Zm-.246.567.4,1.092-1.06.321-.4-1.092Zm-1.22-.128-.385-1.07,1.06-.321.385,1.07Zm-.557-1.509-.492-1.359,1.06-.321.492,1.359Zm-.653-1.8-.364-1,1.06-.321.364,1Zm.417,2.366.385,1.07-1.231.375-.385-1.07Zm.546,1.509.4,1.092-1.231.375-.4-1.092Zm.557,1.541.385,1.049-1.231.375-.385-1.06Zm.557,1.488.46,1.263-1.231.375-.46-1.263Zm.407-.118,1.06-.321.46,1.263-1.06.321Zm1.456-.439,1.3-.4.46,1.263-1.3.4Zm1.156-2.012,1.21-.364.385,1.06-1.21.364Zm.546,1.5,1.21-.364.46,1.263-1.21.364Zm1.071-1.991.974-.289.385,1.06-.974.289Zm.546,1.5.974-.289.46,1.263-.974.289Zm1.381-.407,1.231-.375.46,1.263-1.231.375Zm1.627-.492,1.242-.375.46,1.263-1.242.375Zm-.161-.45-.385-1.049,1.242-.375.385,1.06Zm-.546-1.5-.4-1.092,1.242-.375.4,1.092Zm-.246.567.385,1.049-1.231.375L276.53,88Zm-1.392-.075-.4-1.092,1.231-.375.4,1.092Zm-.557-1.531-.385-1.07,1.231-.375.385,1.07Zm-.246.567.4,1.092-.974.289-.4-1.092Zm-1.135-.15-.385-1.07.974-.289.385,1.07Zm-.246.567.4,1.092-1.21.364-.4-1.092Zm-1.359-.086-.385-1.07,1.21-.364.385,1.07Zm-.557-1.509-.492-1.359,1.21-.364.492,1.359Zm-.653-1.8-.364-1,1.21-.364.364,1Zm-.246.567.492,1.359-1.3.385-.492-1.359Zm-1.456-.054-.364-1,1.3-.4.364,1ZM269.39,82.7l-.482-1.317L270.2,81l.482,1.306Zm-.407.118-1.06.321-.482-1.327,1.06-.31Zm-1.466.439-1.231.375-.492-1.338,1.231-.364Zm-1.638.5-1.253.375-.492-1.349,1.252-.375Zm.161.439.364,1-1.253.375-.364-1Zm.525,1.434.492,1.359-1.252.375-.492-1.359Zm.653,1.8.385,1.07-1.252.375-.385-1.07Zm.557,1.509.4,1.092-1.252.375-.4-1.092Zm.557,1.541.385,1.06-1.252.375-.385-1.049Zm.546,1.5.46,1.263-1.252.375-.46-1.263Zm.621,1.7.482,1.306-1.252.375-.471-1.306Zm.407-.128,1.231-.375.482,1.306-1.231.375Zm1.648-.492,1.06-.321.482,1.306-1.06.321Zm1.456-.439,1.3-.4.482,1.306-1.3.385Zm1.7-.514,1.21-.364.471,1.306-1.21.364Zm1.616-.482.974-.289.482,1.306-.974.289Zm1.381-.417,1.231-.375.482,1.306-1.231.375Zm1.638-.492,1.242-.375.471,1.306-1.242.375Zm1.638-.985-.46-1.263,1.145-.343.46,1.263Zm1.3.1.482,1.306-1.145.343-.482-1.306Zm.407-.61-.46-1.263,1.156-.353.46,1.263Zm-.632-1.713-.385-1.049,1.156-.353.385,1.06Zm-.546-1.488-.4-1.092,1.156-.353.4,1.092Zm-.4.61.385,1.06-1.145.343-.385-1.049Zm-1.306-.1-.4-1.092,1.145-.343.4,1.092Zm-.557-1.541-.385-1.07,1.145-.343.385,1.07Zm-.557-1.509-.492-1.359,1.145-.343.492,1.359Zm-.4.61.385,1.07-1.242.375-.385-1.07Zm-1.4-.064-.492-1.359,1.242-.375.492,1.359Zm-.407.118-1.231.375-.492-1.359,1.231-.375ZM274.6,82.721l-.364-1,1.231-.375.364,1Zm-.246.557.492,1.359-.974.289-.492-1.359Zm-1.135-.15-.364-1,.974-.289.364,1Zm-.525-1.434-.471-1.3.974-.289.471,1.3Zm-.407.128-1.21.364L270.6,80.88l1.21-.353Zm-1.841-1.392L270,79.2l1.21-.364.45,1.242Zm-.407.118-1.3.385-.45-1.22,1.3-.4Zm-1.713.5-1.06.31-.439-1.21,1.049-.321Zm-1.456.439-1.231.364-.439-1.188,1.231-.375Zm-1.648.482-1.252.375-.428-1.177,1.252-.385Zm-1.659.492-1.573.46-.418-1.156,1.574-.482Zm.161.439.492,1.349-1.574.471-.492-1.359Zm.653,1.8.364,1-1.574.471-.364-1Zm.524,1.434L265.4,87.5l-1.574.471-.492-1.359Zm.653,1.8.385,1.07-1.574.471-.385-1.07Zm.557,1.509.4,1.092-1.574.471-.4-1.092Zm.557,1.531.385,1.049-1.574.471-.385-1.049Zm.546,1.5.46,1.263-1.574.471-.46-1.263Zm.621,1.713.482,1.306-1.573.471-.482-1.306Zm.642,1.745.428,1.167-1.573.471-.428-1.167Zm.589,1.616.364,1-1.574.471-.364-1Zm.246-.567-.428-1.167,1.252-.375.428,1.167Zm1.413.064.364,1-1.252.375-.364-1Zm.246-.567-.428-1.167,1.231-.375L272.2,96.1Zm1.392.075.364,1-1.231.375-.364-1Zm.246-.567-.428-1.167,1.06-.321.428,1.167Zm1.22.128.364,1-1.06.321-.364-1Zm.246-.567-.428-1.167,1.3-.4.428,1.167Zm1.456.054.364,1-1.3.4-.364-1.006Zm.246-.567-.428-1.167,1.21-.364.428,1.167Zm1.37.075.364,1-1.21.364-.364-1Zm.246-.567-.428-1.167.974-.289.428,1.167Zm1.124.161.364,1-.963.289-.364-1Zm.246-.567-.428-1.167,1.231-.375L280,93.757Zm1.392.064.364,1-1.231.375-.364-1Zm.246-.567-.428-1.167,1.242-.375.428,1.167Zm1.4.075.364,1-1.242.375-.364-1Zm-.032-1.777,1.145-.343.428,1.167-1.145.343Zm1.541-.963-.482-1.306,1.156-.353.471,1.306Zm.46-3.971-.385-1.049,1.167-.353.385,1.049Zm-.546-1.5-.4-1.092L284,84.048l.4,1.092Zm-.557-1.531-.385-1.07,1.167-.353.385,1.07Zm-.557-1.509-.492-1.359,1.167-.353.492,1.359Zm-.4.61.385,1.07-1.156.353-.385-1.07Zm-1.327-.1-.492-1.359,1.156-.353.492,1.359Zm-.653-1.8-.364-1,1.156-.353.364,1Zm-.525-1.434-.46-1.263,1.156-.343.46,1.252Zm-.4.61.364,1-1.145.343-.364-1Zm-1.306-.1-.46-1.274,1.145-.343.46,1.263Zm-.4.61.364,1-1.242.375-.364-1Zm-1.4-.075-.471-1.285,1.242-.364.46,1.274Zm-.407.128-1.231.375-.471-1.3,1.231-.364Zm-1.863-1.359-.46-1.263,1.231-.375.46,1.274Zm-.407.118-.974.289-.46-1.252.963-.3Zm-1.574-1.359-.546-1.5.974-.3.546,1.5Zm-.407.118-1.21.364-.546-1.5,1.21-.364Zm-1.616.492-1.3.4-.546-1.5,1.3-.4Zm-1.7.525-1.049.321-.546-1.5,1.06-.321Zm-1.456.439-1.231.375-.546-1.5,1.231-.375Zm-1.638.5-1.252.385-.546-1.5,1.252-.385Zm-1.659.5-1.574.482-.546-1.5,1.574-.482Zm-1.98.6-1.5.46-.546-1.5,1.5-.46Zm-1.338,2.119-2.012.6-.407-1.124,2-.61Zm-.011-1.263,1.5-.46.417,1.156-1.5.439Zm2.087,1.145.492,1.359-1.5.45-.5-1.37Zm.653,1.8.364,1-1.5.45-.364-1Zm.525,1.445.492,1.359-1.5.45-.492-1.359Zm.653,1.8.385,1.07-1.5.45-.385-1.07Zm.557,1.509.4,1.092-1.5.45-.4-1.092Zm.557,1.531.385,1.049-1.5.45-.385-1.049Zm.546,1.5.46,1.263-1.5.45-.46-1.263Zm.632,1.7.482,1.306-1.5.45-.482-1.306Zm-.846,3.5-2.012.61-.428-1.167,2.012-.61Zm.161.439.364,1-2.012.61-.364-1Zm.246-.567L265,96.979l1.5-.45.428,1.167Zm1.659-.011.364,1-1.5.45-.364-1Zm.524,1.445.407,1.124-1.5.45-.407-1.124Zm.407-.118,1.574-.471.407,1.124-1.574.471Zm1.98-.6,1.252-.375.407,1.124-1.252.375Zm1.659-.5,1.231-.375.407,1.124-1.231.375Zm1.649-.492,1.06-.321.407,1.124-1.06.321Zm1.456-.439,1.3-.385.407,1.124-1.3.4Zm1.7-.514,1.21-.364.407,1.124-1.21.364Zm1.777,1.2.471,1.306-1.21.364-.471-1.306Zm-.16-1.691.974-.289.407,1.124-.974.289Zm1.381-.417,1.231-.375.407,1.124-1.231.375Zm1.627-.492,1.242-.375.407,1.124-1.242.375Zm1.638-.985-.364-1,1.145-.343.364,1Zm.749-3.115,1.156-.353.428,1.167-1.156.353Zm1.756,1.263.364,1-1.156.353-.364-1Zm-.032-1.788,1.167-.353.428,1.167-1.167.353Zm1.756,1.263.364,1-1.167.353-.364-1Zm1.52-2.74-.482-1.306,1.627-.492.482,1.306Zm-.642-1.756-.46-1.263L289,85.9l.46,1.263Zm-.621-1.7-.385-1.06,1.627-.492.385,1.049Zm-.546-1.5-.4-1.092,1.627-.492.4,1.092Zm-.4.621.385,1.049-1.156.343-.385-1.06Zm-1.317-.1-.4-1.092,1.156-.342.4,1.092Zm-.557-1.541-.385-1.07,1.156-.343.385,1.07Zm-.557-1.509-.492-1.359,1.156-.343L285,81.586Zm-.653-1.8-.364-1,1.156-.343.364,1Zm-.525-1.434-.45-1.242,1.156-.343.45,1.231Zm-.4.61.364,1-1.167.353-.364-1Zm-1.327-.1-.46-1.252,1.167-.343.45,1.242Zm-.621-1.691-.482-1.317L281,75.849l.482,1.327Zm-.632-1.713-.546-1.5,1.167-.353.546,1.5Zm-.407.567.482,1.317-1.167.343-.482-1.306Zm-1.306-.054-.546-1.5,1.156-.353.546,1.5Zm-.417.578.471,1.3-1.145.332-.471-1.285Zm-1.285-.054-.546-1.5L276.872,75l.546,1.5Zm-.417.567.471,1.285-1.242.364-.46-1.274Zm-1.381-.021-.546-1.5,1.242-.375.546,1.5Zm-.407.128-1.231.375-.546-1.5,1.231-.375Zm-1.927-1.531L271.52,74.3l1.231-.375.621,1.691Zm-.407.128-.963.3-.621-1.691.963-.3Zm-1.37.417-1.21.364-.621-1.7,1.21-.364Zm-1.616.492-1.3.4-.621-1.7,1.3-.4Zm-1.691.514-1.06.321-.621-1.7,1.06-.321Zm-1.467.45-1.231.375-.621-1.7,1.231-.375Zm-1.638.492-1.252.385-.621-1.7,1.252-.385ZM262.293,79l-1.573.482-.621-1.713,1.574-.471Zm-1.97.6-1.5.46-.621-1.713,1.5-.45Zm-1.22,2.483-2,.61-.546-1.5,2-.61Zm-2.408.728-1.959.6-.546-1.5,1.97-.6Zm.15.407.407,1.113-1.97.578-.407-1.1Zm.567,1.552.5,1.392-1.97.589-.514-1.4Zm.664,1.83.364,1-1.97.589-.364-1Zm.246-.567-.5-1.381,2.012-.589.5,1.37Zm2.173-.161.364,1-2.012.61-.364-1Zm.524,1.434.492,1.359-2.012.61-.492-1.359Zm.653,1.809.385,1.07-2.012.61-.385-1.07Zm.557,1.509.4,1.092-2.012.61-.4-1.092Zm.557,1.531.385,1.049-2.013.61-.385-1.06Zm.546,1.5.46,1.263-2.012.61-.46-1.263Zm.621,1.7.482,1.306-2.012.61-.482-1.306ZM262.6,99l-1.97.589-.428-1.167,1.97-.589Zm.171.439.364,1-1.97.589-.364-1Zm.525,1.445.407,1.124-1.97.589-.407-1.124Zm.407-.128,2.012-.61.407,1.124-2.012.61Zm2.58.963.471,1.306-2.012.61-.471-1.306Zm.407-.118,1.5-.45.471,1.306-1.5.45Zm1.905-.578,1.574-.471.471,1.3-1.573.471Zm1.98-.6,1.252-.375.471,1.306-1.252.375Zm1.659-.5,1.231-.375.471,1.306-1.231.375Zm1.638-.492,1.06-.321.471,1.306-1.06.321Zm1.467-.439,1.3-.4.471,1.306-1.3.4Zm1.927,1.359.482,1.327-1.3.4-.482-1.327Zm.407-.128,1.21-.364.482,1.317-1.21.364ZM278.649,98l.974-.289.471,1.306-.974.289Zm1.381-.417,1.231-.375.471,1.306-1.231.375Zm1.638-.492,1.242-.375.471,1.306-1.242.375Zm1.638-.985-.407-1.124,1.145-.343.407,1.124Zm1.306.1.471,1.306-1.145.343-.471-1.3Zm.4-.61-.407-1.124,1.156-.353.407,1.124Zm1.317.086.471,1.306-1.156.353-.471-1.306Zm.4-.61-.407-1.124,1.167-.353.407,1.124Zm1.338.1.471,1.306-1.167.353-.471-1.306Zm.4-.61-.407-1.124,1.156-.343.407,1.124Zm1.306.1.471,1.306-1.156.343-.471-1.306Zm.407-.621L289.76,92.9l1.627-.492.407,1.124Zm-.578-1.563-.364-1,1.627-.492.364,1Zm-.524-1.434-.428-1.167,1.627-.492.428,1.167Zm1.595-2.28-.482-1.306,1.745-.525.482,1.306ZM290.017,87l-.46-1.263,1.734-.525.46,1.263Zm-.621-1.7-.385-1.049,1.734-.525.385,1.06Zm-.546-1.5-.4-1.092,1.745-.525.4,1.092Zm-.557-1.541-.385-1.07,1.734-.525.385,1.07Zm-.557-1.509-.492-1.359,1.734-.525.492,1.359Zm-.4.621.385,1.07-1.627.492-.385-1.07Zm-1.788.043-.492-1.359,1.627-.492.493,1.359Zm-.653-1.8-.364-1,1.627-.492.364,1Zm-.524-1.434-.45-1.231,1.627-.482.45,1.22Zm-1.252-3.425-.546-1.5,1.627-.492.546,1.5Zm-.418.567.492,1.349-1.156.343-.492-1.338Zm-1.3-.043-.546-1.5,1.145-.353.546,1.5Zm-.7-1.905-.621-1.681,1.156-.353.621,1.681Zm-.739-2.045-.578-1.574,1.156-.343.578,1.574Zm.182,2.216-1.167.353-.621-1.691,1.167-.353Zm-1.723.525-1.156.353-.621-1.691,1.156-.353Zm-1.713.525-1.145.353-.621-1.691,1.145-.343Zm-1.7.514-1.242.375-.621-1.691,1.242-.375Zm-1.991-1.681-.578-1.584,1.242-.375.578,1.584Zm-.407.128-1.231.375-.578-1.595,1.231-.375Zm-1.638.492-.974.289-.578-1.595.974-.289Zm-1.37.417-1.21.364-.578-1.595,1.21-.364ZM268,74.96l-1.3.4-.589-1.595,1.3-.4Zm-1.7.514-1.06.321-.589-1.606,1.06-.321Zm-1.456.45-1.231.375-.589-1.606,1.231-.375Zm-1.638.492-1.252.385-.589-1.606,1.252-.375Zm-1.659.5-1.574.482-.589-1.616,1.573-.471Zm-1.98.6-1.5.45-.589-1.616,1.5-.45Zm-1.145,2.655-2.012.61-.621-1.713,2.012-.61ZM256,80.912l-1.97.6L253.4,79.8l1.97-.6Zm-1.67,2.623-2.269.7-.546-1.5,2.269-.7Zm.139.4.4,1.092-2.28.674-.4-1.07Zm.567,1.541.514,1.4-2.269.685-.514-1.413Zm.674,1.841.364,1-2.269.685-.364-1Zm.525,1.434.492,1.359-2.269.685-.492-1.359Zm.407-.118,1.97-.589L259.1,89.4l-1.97.589Zm2.623,1.21.385,1.07-1.97.589-.385-1.07Zm.546,1.509.4,1.092-1.97.589-.4-1.092Zm.567,1.531.385,1.06-1.97.589-.385-1.049Zm.546,1.5.46,1.263-1.97.589-.46-1.263Zm.621,1.7.482,1.306-1.97.589-.471-1.306Zm-1.306,3.639-2.269.685-.428-1.167,2.269-.685Zm.161.439.364,1-2.269.685-.364-1Zm.525,1.445.407,1.124-2.269.685-.407-1.124Zm.578,1.563.471,1.306-2.269.685-.471-1.306Zm.407-.128,1.97-.589.471,1.306-1.97.589Zm2.6,1.156.482,1.327-1.97.589-.482-1.327Zm.407-.118,2.012-.61.482,1.317-2.013.61Zm2.408-.728,1.5-.45.482,1.327-1.5.45Zm1.905-.578,1.573-.471.482,1.327-1.574.471Zm1.98-.6,1.252-.375.482,1.327-1.252.375Zm1.659-.5,1.231-.375.482,1.327-1.231.375Zm1.648-.492,1.06-.321.482,1.327L275,102.5Zm1.691,1.445.535,1.456-1.06.321-.535-1.456Zm.407-.118,1.3-.4.535,1.456-1.3.385Zm1.7-.514,1.21-.364.535,1.456-1.21.364Zm.974-2.248.974-.289.482,1.327-.974.289Zm1.381-.418,1.231-.375.482,1.317-1.231.375Zm1.627-.492,1.242-.375.482,1.317-1.242.375Zm1.884,1.392.535,1.456-1.242.375-.535-1.456Zm.407-.61-.482-1.317,1.145-.343.482,1.327Zm1.3.1.535,1.456-1.145.343-.535-1.456Zm.407-.61-.482-1.327,1.156-.353.482,1.327Zm1.317.086.535,1.456-1.156.353-.535-1.456Zm.4-.61-.482-1.327,1.167-.353.482,1.317Zm1.327.1.535,1.456-1.167.353-.535-1.456Zm.407-.61-.482-1.327,1.156-.343.482,1.317Zm1.06-2.291-.471-1.306,1.627-.492.471,1.306Zm.974-3.961-.364-1,1.745-.525.364,1Zm-.525-1.445L290.82,89.2l1.734-.525.428,1.167Zm1.713-2.3-.482-1.306,3.2-.963a12.871,12.871,0,0,1,.054,1.434Zm-.642-1.756-.46-1.263,3.575-1.081c.086.45.15.888.2,1.338Zm-.621-1.7-.385-1.049,3.757-1.135c.107.364.193.717.278,1.092Zm-.546-1.5-.4-1.092,3.8-1.145q.209.546.385,1.092Zm-.567-1.531-.385-1.07,3.693-1.113c.171.343.332.685.471,1.038Zm-.546-1.509-.492-1.359,3.383-1.017c.268.417.525.846.76,1.274Zm-.664-1.809-.364-1,2.965-.888c.225.289.45.589.664.9Zm-.514-1.434-.439-1.2,2.323-.685c.321.332.631.685.931,1.038Zm-.407.61.364,1-1.745.525-.364-1Zm-1.895.086-.439-1.22,1.745-.514.439,1.21Zm-.61-1.659-.5-1.37,1.734-.525.5,1.381Zm1.649-2.473-.546-1.5.15-.043c.514.385,1.028.792,1.509,1.21Zm-3.543-1.028-1.627.492-.61-1.681,1.627-.492Zm-3.1-3.565-.043-.128c.075.021.161.054.235.075Zm-.567.171-1.156.343L278.82,68.2q.69.112,1.381.289Zm-.974,2.537-1.167.353-.578-1.584,1.167-.353Zm-1.723.514-1.156.353-.578-1.584,1.156-.353Zm-1.713.525-1.145.343-.578-1.584,1.145-.343Zm-1.884-1.681-1.06-2.912c.417-.032.835-.054,1.242-.064l.964,2.633Zm-.567.171-1.242.375L271.1,68.152q.658-.1,1.317-.161Zm-1.638.492-1.231.375L269.4,68.463c.428-.086.846-.171,1.274-.235Zm-1.638.492-.974.289-1.285-3.522c.332-.086.653-.171.985-.246Zm-1.381.417-1.21.364-1.284-3.522c.4-.128.8-.257,1.21-.364Zm-1.616.482-1.3.4L264.7,69.876c.417-.171.835-.321,1.263-.471Zm-1.7.514-1.06.321L263.3,70.486c.332-.15.674-.3,1.006-.439Zm-1.456.45-1.231.375-1.092-3c.385-.2.76-.4,1.156-.589Zm-1.638.492-1.252.375-.963-2.633c.375-.235.76-.45,1.145-.664Zm-1.659.5-1.574.471-.749-2.066c.46-.321.921-.642,1.4-.942Zm-1.98.589-1.5.45-.5-1.37c.417-.353.856-.685,1.3-1.006ZM257.658,78.1l-2.012.61-.589-1.616,2.012-.61Zm-4.785,1.456L252,79.82c.2-.31.417-.621.642-.921Zm.129.364.632,1.713-2.269.7-.332-.9c.2-.375.417-.749.642-1.113Zm-2.045,2.526-.5.15c.107-.225.2-.439.31-.664Zm.139.407.546,1.5-2.1.642a17.092,17.092,0,0,1,.685-1.873Zm1.252,3.415.514,1.413-4.036,1.22a14.137,14.137,0,0,1,.193-1.648Zm1.2,3.3.492,1.359-5.052,1.52a13.49,13.49,0,0,1-.171-1.456Zm.664,1.8.385,1.07-5.245,1.584c-.107-.364-.193-.739-.268-1.1Zm.546,1.509.4,1.092c-.867.257-1.723.535-2.58.792-.46.139-1.905.621-2.676.835-.15-.375-.289-.749-.407-1.124ZM255,92.3l-.385-1.07,2.269-.685.385,1.07Zm2.441-.246.4,1.092-2.269.685-.4-1.092ZM258,93.6l.385,1.049-2.269.685-.385-1.049Zm-2.13,2.3.46,1.263L251.556,98.6a13.524,13.524,0,0,1-.739-1.177Zm.407-.118,2.269-.685.46,1.263-2.269.685Zm2.89,1.017.482,1.306-2.269.685-.471-1.306Zm-1.445,4.175.364,1-2.665.8c-.321-.268-.642-.535-.942-.824Zm.524,1.434.407,1.124-1.541.46c-.417-.268-.835-.567-1.242-.878Zm3.886,2.5.482,1.317-.268.086a21.5,21.5,0,0,1-2.3-.771Zm1.113,1.627,1.905-.578.364.985c-.749-.107-1.488-.236-2.216-.407C263.278,106.549,263.256,106.538,263.245,106.538Zm2.312-.7,2.012-.61.535,1.456-1.359.407c-.257-.021-.5-.054-.76-.086Zm2.7,1.285.032.075c-.075,0-.161-.011-.235-.011Zm-.278-2.012,1.5-.45.535,1.456-1.5.45Zm1.905-.578,1.574-.471.535,1.456-1.574.471Zm1.98-.6,1.252-.375.535,1.456-1.253.375Zm1.659-.5,1.231-.375.535,1.456-1.231.375Zm1.927,1.531.621,1.713c-.428.075-.856.15-1.3.2l-.567-1.541Zm.407-.128,1.06-.321.674,1.852-1.092.225Zm1.456-.439,1.3-.385.706,1.948q-.658.177-1.317.321Zm1.7-.514,1.21-.364.717,1.959c-.4.128-.8.246-1.21.353Zm.921-2.376.974-.289.535,1.456-.974.289Zm1.381-.417,1.231-.375.535,1.456-1.231.375Zm1.916,1.52.642,1.755c-.385.182-.781.343-1.178.5l-.685-1.895Zm.407-.118,1.242-.375.535,1.467q-.562.321-1.156.61Zm1.8-.546,1.145-.343.375,1.017c-.332.225-.674.45-1.028.664Zm1.7-.514,1.156-.353.15.407c-.321.268-.664.524-1.006.781Zm1.723-.514.385-.118-.321.289Zm2.74-2.933.257-.075-.193.257Zm.717-.707-.878.268-.482-1.317,1.627-.492.268.739C292.682,96.744,292.511,97.011,292.318,97.279Zm2.323-4.6-.407-1.124,1-.3c-.118.46-.268.921-.428,1.381Zm-.567-1.563-.364-1,1.862-.557c-.054.4-.128.781-.214,1.167Zm-.524-1.445-.428-1.167,2.612-.792c-.011.45-.043.888-.1,1.327Zm-3.19-15.1-2.109.621-.5-1.392,1.349-.407c.418.375.824.749,1.22,1.135A.084.084,0,0,1,290.36,74.564Zm-6.048-4.549-.439.139-.161-.428c.054.032.118.054.171.086C284.023,69.865,284.162,69.94,284.312,70.015Zm-6.144-1.927.5,1.381-1.167.353-.685-1.884c.278.021.557.043.824.075C277.825,68.045,278,68.067,278.167,68.088Zm-1.98-.182.76,2.087-1.156.353-.9-2.473C275.32,67.874,275.748,67.885,276.187,67.906ZM256.47,74.843l.439,1.2-2.012.61-.1-.268Q255.6,75.581,256.47,74.843Zm-6.38,21.163c.781-.246,2.644-.824,3.029-.942.739-.225,1.467-.439,2.205-.664l.385,1.06L250.582,97c-.128-.246-.257-.492-.375-.739A1.37,1.37,0,0,1,250.09,96.005Zm1.745,3,4.656-1.4.482,1.306-4.207,1.274C252.434,99.794,252.134,99.409,251.835,99Zm16.913,8.221-.075-.214,1.5-.45.246.674C269.861,107.245,269.3,107.245,268.747,107.223Zm5.277-.246c-.342.043-.674.075-1.017.107l-.46-1.252,1.252-.375.535,1.477C274.239,106.945,274.132,106.966,274.025,106.977Zm7.322-1.616-.717-1.959.974-.289.7,1.916C281.989,105.147,281.668,105.254,281.346,105.361Z" transform="translate(-246.446 -65.837)"/>
          </g>
        </g>
      </g>
      <g id="Group_240" data-name="Group 240" transform="translate(322.011 62.089)">
        <path id="Path_152" data-name="Path 152" class="cls-1" d="M361.437,122.43H341.9V74.614H320.375V122.42H300.84V59.05h60.608v63.38Z" transform="translate(-300.84 -57.958)"/>
        <path id="Path_153" data-name="Path 153" class="cls-1" d="M369.56,59.06h32.552q10.629,0,15.928,5.063t5.3,14.4q0,9.6-5.77,15-5.764,5.411-17.619,5.406H389.224V122.44H369.56Zm19.675,27.018h4.8c3.779,0,6.423-.653,7.953-1.97a6.313,6.313,0,0,0,2.291-5.031,7.012,7.012,0,0,0-1.991-5.052q-1.991-2.071-7.482-2.077h-5.577v14.13Z" transform="translate(-296 -57.957)"/>
        <path id="Path_154" data-name="Path 154" class="cls-1" d="M429.33,59.06h52.483V72.59H448.962V82.663h30.475v12.92H448.962v12.492h33.8V122.43H429.341V59.06Z" transform="translate(-291.79 -57.957)"/>
        <path id="Path_155" data-name="Path 155" class="cls-1" d="M488.9,59.06h25.755l9.934,38.557,9.859-38.557H560.18v63.37H544.145V74.1l-12.353,48.33H517.267L504.935,74.1v48.33H488.9Z" transform="translate(-287.594 -57.957)"/>
        <path id="Path_156" data-name="Path 156" class="cls-1" d="M656.064,104.08a28.421,28.421,0,0,1-10.308,14.066q-7.37,5.427-21.12,5.427-15.254,0-23.71-8.585t-8.446-24.62q0-15.382,8.542-23.86t24.406-8.478q21.355,0,29.223,15.949l-17.641,6.7q-2.89-7.948-11.582-7.953-11.159,0-13.017,12.235H631.6V96.716H612.5q1.606,12.155,12.835,12.149,9.634,0,12.321-9.773Z" transform="translate(-280.298 -58.03)"/>
        <path id="Path_157" data-name="Path 157" class="cls-1" d="M660.48,59.06h32.552q10.629,0,15.928,5.063t5.3,14.4q0,9.6-5.769,15-5.765,5.411-17.62,5.406H680.144V122.44H660.48V59.06Zm19.674,27.018h4.8c3.778,0,6.422-.653,7.953-1.97a6.314,6.314,0,0,0,2.291-5.031,7.012,7.012,0,0,0-1.991-5.052q-1.991-2.071-7.482-2.077h-5.577v14.13Z" transform="translate(-275.509 -57.957)"/>
      </g>
      <g id="Group_241" data-name="Group 241" transform="translate(315.086 13.49)">
        <path id="Path_158" data-name="Path 158" class="cls-1" d="M300.921,39.69H311.8v2.569h-3.854v9.452h-3.179V42.259H300.91V39.69Z" transform="translate(-300.91 -34.723)"/>
        <path id="Path_159" data-name="Path 159" class="cls-1" d="M328.539,47.9l3.168.535a5.189,5.189,0,0,1-1.927,2.655,5.646,5.646,0,0,1-3.3.91,5.408,5.408,0,0,1-4.646-2.045,6.874,6.874,0,0,1-1.188-4.143,6.64,6.64,0,0,1,1.563-4.678,5.148,5.148,0,0,1,3.95-1.691,5.336,5.336,0,0,1,4.239,1.777q1.557,1.766,1.477,5.427H323.9a3.215,3.215,0,0,0,.771,2.205,2.4,2.4,0,0,0,1.83.781,1.954,1.954,0,0,0,1.252-.407A2.472,2.472,0,0,0,328.539,47.9Zm.182-3.211a3.022,3.022,0,0,0-.717-2.1,2.174,2.174,0,0,0-1.648-.717,2.233,2.233,0,0,0-1.723.76,2.917,2.917,0,0,0-.664,2.055Z" transform="translate(-299.52 -34.741)"/>
        <path id="Path_160" data-name="Path 160" class="cls-1" d="M342.11,39.69h3.179v4.4h4.549v-4.4h3.19V51.711h-3.19V46.659h-4.549v5.052H342.11Z" transform="translate(-298.008 -34.723)"/>
        <path id="Path_161" data-name="Path 161" class="cls-1" d="M363.98,38.354V35.41h3.179v2.944Zm0,13.659V39.991h3.179V52.012Z" transform="translate(-296.468 -35.025)"/>
        <path id="Path_162" data-name="Path 162" class="cls-1" d="M389.187,43.259l-3.136.567a2.268,2.268,0,0,0-.717-1.413,2.146,2.146,0,0,0-1.456-.471,2.38,2.38,0,0,0-1.895.824,4.223,4.223,0,0,0-.706,2.751,4.841,4.841,0,0,0,.717,3.019,2.368,2.368,0,0,0,1.927.888,2.122,2.122,0,0,0,1.477-.514,3.1,3.1,0,0,0,.813-1.777l3.126.535a5.51,5.51,0,0,1-1.873,3.254,5.8,5.8,0,0,1-3.7,1.1,5.537,5.537,0,0,1-4.207-1.659,6.433,6.433,0,0,1-1.563-4.6,6.468,6.468,0,0,1,1.574-4.635,5.611,5.611,0,0,1,4.26-1.659,5.768,5.768,0,0,1,3.49.942A4.92,4.92,0,0,1,389.187,43.259Z" transform="translate(-295.481 -34.739)"/>
        <path id="Path_163" data-name="Path 163" class="cls-1" d="M399.25,39.69h3.179v4.4h4.549v-4.4h3.19V51.711h-3.19V46.659h-4.549v5.052H399.25Z" transform="translate(-293.983 -34.723)"/>
        <path id="Path_164" data-name="Path 164" class="cls-1" d="M421.04,39.69H424.1v7.547l4.892-7.547h3.126V51.711h-3.062V44.025L424.1,51.711H421.04Z" transform="translate(-292.449 -34.723)"/>
        <path id="Path_165" data-name="Path 165" class="cls-1" d="M443.02,40.011h3.061v7.547l4.892-7.547H454.1V52.032h-3.062V44.346l-4.956,7.686H443.02V40.011Zm7.622-4.881h1.552a3.574,3.574,0,0,1-1.081,2.419,3.862,3.862,0,0,1-4.9,0,3.574,3.574,0,0,1-1.081-2.419h1.552a1.778,1.778,0,0,0,.567,1.22,2.6,2.6,0,0,0,2.826,0A1.779,1.779,0,0,0,450.641,35.13Z" transform="translate(-290.9 -35.044)"/>
        <path id="Path_166" data-name="Path 166" class="cls-1" d="M479.64,39.7h3.169v4.913a1.72,1.72,0,0,0,1.124-.482,6.391,6.391,0,0,0,.792-1.734,4.594,4.594,0,0,1,1.338-2.28,3.29,3.29,0,0,1,1.905-.5c.246,0,.664.021,1.252.054l.011,2.109a3.376,3.376,0,0,0-1.606.235,3.276,3.276,0,0,0-.76,1.488,2.943,2.943,0,0,1-1.6,2.045,4.38,4.38,0,0,1,2.548,2.612c.043.075.075.15.128.235l1.777,3.318h-3.415l-1.584-3.479a4.039,4.039,0,0,0-.846-1.349,1.585,1.585,0,0,0-1.06-.3v5.127h-3.169V39.7Z" transform="translate(-288.321 -34.729)"/>
        <path id="Path_167" data-name="Path 167" class="cls-1" d="M500.476,39.69h10.651V51.711h-3.169V42.27h-4.335v5.4a6.381,6.381,0,0,1-.471,2.89,2.466,2.466,0,0,1-1.049,1.092,4.9,4.9,0,0,1-1.852.257,12.559,12.559,0,0,1-2-.2V49.356c.064,0,.246.011.535.021q.5.032.771.032c.428,0,.7-.139.792-.428a10.52,10.52,0,0,0,.15-2.366V39.69Z" transform="translate(-287.01 -34.723)"/>
        <path id="Path_168" data-name="Path 168" class="cls-1" d="M520.26,39.69h3.383l2.879,8.531,2.8-8.531h3.3l-4.25,11.571-.76,2.1a7.9,7.9,0,0,1-.8,1.606,3.491,3.491,0,0,1-.867.9,3.7,3.7,0,0,1-1.21.535,6.284,6.284,0,0,1-1.627.193,8.414,8.414,0,0,1-1.8-.193l-.278-2.494a7.2,7.2,0,0,0,1.349.15,1.974,1.974,0,0,0,1.638-.653,4.454,4.454,0,0,0,.813-1.659Z" transform="translate(-285.46 -34.723)"/>
        <path id="Path_169" data-name="Path 169" class="cls-1" d="M551.434,35.05H553.6a3.655,3.655,0,0,1-.749,2.184q-.658.739-3.211.739c-.2,0-.407,0-.61-.011h-.407a7.582,7.582,0,0,0-2.473.332,2.974,2.974,0,0,0-1.552,1.3,6.181,6.181,0,0,0-.632,3.1,4.825,4.825,0,0,1,1.82-1.98,5.43,5.43,0,0,1,6.658,1.188,6.216,6.216,0,0,1,1.638,4.26,6.09,6.09,0,0,1-1.723,4.335,5.943,5.943,0,0,1-4.507,1.809,6.159,6.159,0,0,1-3.361-.921,5.123,5.123,0,0,1-2.077-2.5,15.769,15.769,0,0,1-.621-5.267q0-4.319,1.595-6.219T548.94,35.5h1.606A.866.866,0,0,0,551.434,35.05Zm-6.4,11.068a3.831,3.831,0,0,0,.824,2.6,2.537,2.537,0,0,0,2.012.953,2.59,2.59,0,0,0,2.1-1,4.392,4.392,0,0,0-.01-5.138,2.622,2.622,0,0,0-4.078-.021A3.822,3.822,0,0,0,545.033,46.118Z" transform="translate(-283.944 -35.05)"/>
      </g>
    </g>
  </g>
</svg>
