<svg id="Group_485" data-name="Group 485" xmlns="http://www.w3.org/2000/svg" viewBox="0 0 67.321 45.953">
  <path id="Path_138" data-name="Path 138" d="M45.005,45.228c.025.413.272.662.927.6.594-.057,1.195.027,1.791-.014a2.179,2.179,0,0,0,1.108-.413c.464-.242.674-.091,1.181-.048a14.827,14.827,0,0,0,1.855.128,15.572,15.572,0,0,0,3.212.016c.594-.162,1.611-.768,1.476-1.51-.16-.884-1.663-.557-2.264-.694-1.27-.29-1.912-1.732-3.1-2.193-1.259,1.122-2.554-1.019-3.077-2.045h0a31.964,31.964,0,0,0-1.588-2.986c-.551-.838-.9-1.7-1.4-2.572-.409-.708-1.115-1.252-1.462-1.992-.331-.7-.286-1.622-.774-2.25-.224-.288-.813-.436-1.131-.587-.142-.069-.487-.169-.578-.306-.126-.19.13-.322-.032-.528a1.387,1.387,0,0,0-.429-.254c-.235-.13-.512-.2-.731-.352a30.347,30.347,0,0,0-2.513-1.77c-.448-.244-.912-.475-1.35-.733a3.186,3.186,0,0,0-.9-.452c.05-.238.107-.5.146-.758.32.37,1.028.343,1.473.382.578.048,1.156.107,1.732.169,1.019.11,2.079.007,3.1.016.532,0,1.065-.062,1.6-.039a2.216,2.216,0,0,1,.692.1c.194.078.347.254.551.336a1.711,1.711,0,0,1,.589.251,2.72,2.72,0,0,1,.265.356,1.01,1.01,0,0,0,.589.379,1.238,1.238,0,0,0,.7-.105c.123-.043.21-.171.336-.2a.385.385,0,0,0,.482,0c.073-.053.16-.226.254-.2.018,0,.091.1.128.126a.265.265,0,0,0,.183.046c.178,0,.258-.071.256-.256a5.082,5.082,0,0,0-.087-.605.913.913,0,0,0-.368-.608,2.065,2.065,0,0,1-.4-.391,2.358,2.358,0,0,0-.423-.537,2.326,2.326,0,0,0-.615-.26c-.11-.043-.2-.123-.3-.171a1.961,1.961,0,0,0-.345-.089,16.142,16.142,0,0,0-3.98-.555,7.7,7.7,0,0,1-2.412-.523,6.567,6.567,0,0,1-1.473-.61c-.226-.137-1.156-.306-1.263-.487-.324-.546.893-1.094,1.215-1.263a5.761,5.761,0,0,0,1.745-1.7c.3-.377.594-.742.87-1.133a8.068,8.068,0,0,1,.715-1.012c.448.471.98.907,1.414,1.38a6.6,6.6,0,0,1,.843,1.565c.327.61.852,1.076,1.231,1.654a5.856,5.856,0,0,0,1.341,1.809A6.3,6.3,0,0,1,47.6,23.265h0c.185.286.516.468.692.736.153.235.151.946.573.859.13-.027.167-.087.315-.071a1,1,0,0,0,.42,0,3.466,3.466,0,0,1,.382-.137,1.637,1.637,0,0,0,.427-.112c.151-.062.318.023.468-.03.128-.043.226-.231.3-.34a.892.892,0,0,0,.11-.525,5.557,5.557,0,0,0-.194-1.129,1.179,1.179,0,0,0-.484-.786.95.95,0,0,0-.523-.091c-.215-.018-.423-.135-.64-.162-.174-.021-.377.039-.5-.11a1.281,1.281,0,0,1-.192-.489,6.422,6.422,0,0,0-.212-1.183,15.877,15.877,0,0,0-1.067-2c-.366-.585-.918-.955-1.32-1.5-.893-1.211-1.017-3.2-1.183-4.642a4.459,4.459,0,0,0-1.106-2.4c-.372-.45-.939-.722-1.243-1.234-.4-.672.089-.79.2-1.451.075-.436.018-.838.11-1.288a7.252,7.252,0,0,0,.126-1.764,8.28,8.28,0,0,0-.238-1.636C42.577.836,41.731.487,40.861.206,39.193-.331,36.847.333,36.5,2.282a10.169,10.169,0,0,0,.206,2.62c.055.471.039,1.583.571,1.775a3.1,3.1,0,0,0-1.686.45c-1.007.637-2.273.836-3.21,1.583a20.587,20.587,0,0,0-2.008,2.554c-.615.674-1.238,1.014-1.631,1.862-.4.875-.985,1.7-1.439,2.575-.3.578-.311,1.3-.658,1.85A5.387,5.387,0,0,1,25.069,19a2.96,2.96,0,0,0-1.24,1.93,5.537,5.537,0,0,0-.516,1.229,5.861,5.861,0,0,0,.153,1.435c.153,1.106.292,2.214.5,3.31a7.869,7.869,0,0,1,.331,1.145,3.789,3.789,0,0,1-.343,1.186,6.657,6.657,0,0,1-.628,1.565h0c-.45.713-1.579,1.238-.729,1.983-.215.88-1.046,1.332-1.448,2.086a6.63,6.63,0,0,1-1.1,1.579,5.362,5.362,0,0,1-2.6,1.076,17.472,17.472,0,0,0-2.611,1.138,21.8,21.8,0,0,0-2.575,1.615,9.052,9.052,0,0,1-1.227.717c-.359.153-1.256.685-1.615.372-.445-.393.007-1.179-.429-1.622-.5-.509-1.378-.18-1.928.034a9.768,9.768,0,0,0-2.15,1.266,22.137,22.137,0,0,1-2.588,1.722,5.684,5.684,0,0,0-1.85,1.14c-.34.429-.674,1.323-.306,1.8.576.749,2.047-.281,2.682-.473a18.094,18.094,0,0,1,2.376-.158,26.848,26.848,0,0,1,2.719-.388,13.936,13.936,0,0,0,2.474-.7c2.287-.589,4.574-1.151,6.872-1.727a11.179,11.179,0,0,0,2.063-.729c.6-.283,1.138-.347,1.736-.587.662-.265,1.151-1.033,1.645-1.517.85-.834,1.786-1.622,2.687-2.435.477-.432.957-.864,1.432-1.3a4.7,4.7,0,0,1,.7-.667c.176-.1.37-.048.523-.148,1.028-.66,1.791-2.223,2.412-3.244h0a5.768,5.768,0,0,1,.985-1.426,9.468,9.468,0,0,1,1.757.592c.848.334,1.722.676,2.588.957a18.593,18.593,0,0,0,1.745.786c.087.018.21.194.281.19.35-.03.434-.578.829-.578.377,0,.724.567.925.825a10.185,10.185,0,0,1,1.2,2.065,12.663,12.663,0,0,0,.943,1.978c1.1,1.617,3.687,2.456,4.224,4.491C46.166,42.279,44.941,44.23,45.005,45.228Z" transform="translate(-0.007 -0.027)"/>
  <g id="Group_233" data-name="Group 233" transform="translate(43.664 15.034)">
    <path id="Path_139" data-name="Path 139" d="M205.594,82.592c.078.025.295.155.352.05.071-.126-.244-.356-.324-.4a9.678,9.678,0,0,0-4.466-.763c-.158,0-.662.121-.617-.167.03-.185.366-.276.507-.334a6.153,6.153,0,0,0,2.248-1.736,9.4,9.4,0,0,0,.8-.928c.162-.242.3-.5.443-.752a2.494,2.494,0,0,0,.382-.66c0-.018,0-.308-.075-.258a2.218,2.218,0,0,0-.567.681,14.079,14.079,0,0,1-1.421,1.759,5.744,5.744,0,0,1-.985.829,11.509,11.509,0,0,1-1.268.816,2.576,2.576,0,0,1-.573.27c-.19.053-.258-.062-.439-.071s-2.62.626-2.972.736c-.544.169-1.108.292-1.656.445-.717.2-1.453.347-2.177.53a12.76,12.76,0,0,1-1.649.327,4.539,4.539,0,0,0,.265,1.334c.185-.069.4-.048.594-.1,1.677-.466,3.4-.784,5.1-1.172a14.093,14.093,0,0,0,1.451-.343c.276-.1.571-.148.85-.235a2.379,2.379,0,0,0,.418-.123,4.032,4.032,0,0,1,.359-.235,2.755,2.755,0,0,1,.975-.132c.334,0,.667-.055,1.005-.03.183.014.368.05.551.078a18.912,18.912,0,0,1,2.077.37C205.052,82.464,205.331,82.512,205.594,82.592Z" transform="translate(-191.14 -74.176)"/>
    <g id="Group_232" data-name="Group 232" transform="translate(12.634)">
      <path id="Path_140" data-name="Path 140" d="M257.168,68.84a4.605,4.605,0,0,0-2.581-2.618,5.436,5.436,0,0,0-1.366-.35,6.715,6.715,0,0,0-5.442,2.042,4.159,4.159,0,0,0-1,4.587,4.454,4.454,0,0,0,3.073,2.415,7.454,7.454,0,0,0,2.52.1,9.357,9.357,0,0,0,1.718-.379,4.979,4.979,0,0,0,3.031-2.684A3.886,3.886,0,0,0,257.168,68.84Zm-.733,3.4-.021-.059.066-.021C256.464,72.186,256.448,72.214,256.434,72.239Zm-.621.829-.1-.26.247-.073.043.117C255.943,72.924,255.879,73,255.813,73.068ZM251.594,74.5l.336-.1.091.249c-.121.009-.242.016-.366.021Zm-2.561-.336c-.066-.034-.132-.073-.2-.112l.251-.075.1.26Zm-1.167-.916.859-.258.091.249-.745.224C248,73.395,247.932,73.324,247.865,73.249Zm-.916-2.385.9-.272.078.212-.978.295C246.947,71.021,246.947,70.944,246.949,70.864Zm.128-.836.509-.155.085.228-.656.194C247.032,70.206,247.054,70.117,247.077,70.027Zm.932-1.706.187-.057.126.345-.418.128-.073-.2C247.888,68.465,247.948,68.392,248.009,68.321Zm.148-.162,0,.011-.021.007c0-.007.011-.011.016-.018Zm6.081-1.565.073.2-.345.105-.123-.336.174-.053C254.093,66.535,254.166,66.564,254.239,66.594Zm.678.366.043.119-.37.114-.13-.359.167-.05C254.726,66.838,254.824,66.9,254.918,66.959Zm1.732,4.873c-.032.069-.066.137-.1.2l-.171.05-.1-.279.372-.112.027.078C256.667,71.793,256.658,71.814,256.649,71.832Zm-.407-.119-.087-.24.372-.112.087.24ZM254.65,67.72l.107.292-.347.1-.105-.288Zm-.03-.443.37-.114.117.32-.37.114Zm.555,4.046-.091-.249.244-.073.091.249Zm.281.021.078.212-.247.073-.078-.212Zm-.544-.738-.1-.27.247-.073.1.27Zm.281.021.1.279-.247.073-.1-.279Zm-.366.11.1.279-.249.075-.1-.279Zm-.283-.021-.1-.27.249-.075.1.27Zm-3.456-.758.105.29-.263.08-.105-.29Zm-.3-.016-.078-.212.263-.08.078.212Zm1.039.834-.085-.233.276-.085.085.233Zm.311.011.082.224-.276.085-.082-.226Zm-.281.336-.226.069-.082-.226.226-.069Zm-.148-.674-.082-.228.276-.082.082.228Zm-.053.121.085.233-.226.069-.085-.233Zm-.26-.027-.082-.228.226-.069.082.228Zm-.119-.322-.105-.29.226-.069.105.29Zm-.139-.384-.078-.212.226-.069.078.212Zm.089.5.082.228-.263.08-.082-.228Zm.116.322.085.233-.263.08-.085-.233Zm.119.329.082.224-.263.08-.082-.226Zm.119.318.1.27-.263.08-.1-.27Zm.087-.025.226-.069.1.27-.226.069Zm.311-.094.276-.085.1.27-.276.085Zm.247-.429.258-.078.082.226-.258.078Zm.117.32L252.6,71l.1.27-.258.078Zm.228-.425.208-.062.082.226-.208.062Zm.117.32.208-.062.1.27-.208.062Zm.295-.087.263-.08.1.27-.263.08Zm.347-.105.265-.08.1.27-.265.08Zm-.034-.1-.082-.224.265-.08.082.226Zm-.117-.32-.085-.233.265-.08.085.233Zm-.053.121.082.224-.263.08-.082-.226Zm-.3-.016-.085-.233.263-.08.085.233Zm-.119-.327-.082-.228.263-.08.082.228Zm-.053.121.085.233-.208.062-.085-.233Zm-.242-.032-.082-.228.208-.062.082.228Zm-.052.121.085.233-.258.078-.085-.233Zm-.29-.018-.082-.228.258-.078.082.228Zm-.119-.322-.105-.29.258-.078.105.29Zm-.139-.384-.078-.212.258-.078.078.212Zm-.053.121.105.29-.276.082-.105-.29Zm-.311-.011-.078-.212.276-.085.078.212Zm-.112-.306-.1-.281.276-.082.1.279Zm-.087.025-.226.069-.1-.283.226-.066Zm-.313.094-.263.08-.105-.286.265-.078Zm-.35.107-.267.08-.105-.288.267-.08Zm.034.094.078.212-.267.08-.078-.212Zm.112.306.105.29-.267.08-.105-.29Zm.139.384.082.228-.267.08-.082-.228Zm.119.322.085.233-.267.08-.085-.233Zm.119.329.082.226-.267.08-.082-.224Zm.117.32.1.27-.267.08-.1-.27Zm.132.363.1.279-.267.08-.1-.279Zm.087-.027.263-.08.1.279-.263.08Zm.352-.105.226-.069.1.279-.226.069Zm.311-.094.276-.085.1.279-.276.082Zm.363-.11.258-.078.1.279-.258.078Zm.345-.1.208-.062.1.279-.208.062Zm.295-.089.263-.08.1.279-.263.08Zm.35-.105.265-.08.1.279-.265.08Zm.35-.21-.1-.27.245-.073.1.27Zm.276.021.1.279-.244.073-.1-.279Zm.087-.13-.1-.27.247-.075.1.27Zm-.135-.366-.082-.224.247-.075.082.226Zm-.116-.318-.085-.233.247-.075.085.233Zm-.085.13.082.226-.244.073-.082-.224Zm-.279-.021-.085-.233.244-.073.085.233Zm-.119-.329-.082-.228.244-.073.082.228Zm-.119-.322-.105-.29.244-.073.105.29Zm-.085.13.082.228-.265.08-.082-.228Zm-.3-.014-.105-.29.265-.08.105.29Zm-.087.025-.263.08-.105-.29.263-.08Zm-.4-.3-.078-.212.263-.08.078.212Zm-.053.119.105.29-.208.062-.105-.29Zm-.242-.032-.078-.212.208-.062.078.212Zm-.112-.306-.1-.276.208-.062.1.276Zm-.087.027-.258.078-.1-.279.258-.075Zm-.393-.3-.1-.263.258-.078.1.265Zm-.087.025-.276.082-.1-.26.276-.085Zm-.366.107-.226.066-.094-.258.226-.069Zm-.311.094-.263.078L250.449,69l.263-.08Zm-.352.1-.267.08-.091-.251.267-.082Zm-.354.105-.336.1-.089-.247.336-.1Zm.034.094.105.288-.336.1-.105-.29Zm.139.384.078.212-.336.1-.078-.212Zm.112.306.105.29-.336.1-.105-.29Zm.139.384.082.228-.336.1-.082-.228Zm.119.322.085.233-.336.1-.085-.233Zm.119.327.082.224-.336.1-.082-.224Zm.116.32.1.27-.336.1-.1-.27Zm.133.366.1.279-.336.1-.1-.279Zm.137.372.091.249-.336.1-.091-.249Zm.126.345.078.212-.336.1-.078-.212Zm.053-.121-.091-.249.267-.08.091.249Zm.3.014.078.212-.267.08-.078-.212Zm.053-.121-.091-.249.263-.08.091.249Zm.3.016.078.212-.263.08-.078-.212Zm.053-.121-.091-.249.226-.069.091.249Zm.26.027.078.212-.226.069-.078-.212Zm.053-.121-.091-.249.276-.085.091.249Zm.311.011.078.212-.276.085-.078-.215Zm.053-.121-.091-.249.258-.078.091.249Zm.292.016.078.212-.258.078-.078-.212Zm.053-.121-.091-.249.206-.062.091.249Zm.24.034.078.212-.206.062-.078-.212Zm.053-.121-.091-.249.263-.08.091.249Zm.3.014.078.212-.263.08-.078-.212Zm.053-.121-.091-.249.265-.08.091.249Zm.3.016.078.212-.265.08-.078-.212Zm-.007-.379.244-.073.091.249-.244.073Zm.329-.206-.1-.279.247-.075.1.279Zm.1-.848-.082-.224.249-.075.082.224Zm-.116-.32-.085-.233.249-.075.085.233Zm-.119-.327-.085-.228.249-.075.082.228Zm-.119-.322-.105-.29.249-.075.105.29Zm-.085.13.082.228-.247.075-.082-.228Zm-.283-.021-.105-.29.247-.075.105.29Zm-.139-.384-.078-.212.247-.075.078.212Zm-.112-.306-.1-.27.249-.073.1.267Zm-.085.13.078.212-.244.073-.078-.212Zm-.279-.021-.1-.272.244-.073.1.27Zm-.085.13.078.212-.265.08-.078-.212Zm-.3-.016-.1-.274.265-.078.1.272Zm-.087.027-.263.08-.1-.276.263-.078Zm-.4-.29-.1-.27.263-.08.1.272Zm-.087.025-.208.062-.1-.267.206-.064Zm-.336-.29-.117-.32.206-.064.117.32Zm-.087.025-.258.078-.117-.32.258-.078Zm-.345.105-.276.085-.117-.32.276-.085Zm-.363.112-.226.069-.116-.32.224-.069Zm-.311.094-.263.08-.116-.32.263-.08Zm-.35.107-.267.082-.117-.32.267-.082Zm-.354.107-.336.1-.116-.32.336-.1Zm-.423.128-.32.1-.116-.32.32-.1Zm-.286.452-.429.128-.087-.24.43-.13Zm0-.27.32-.1.089.247-.32.094Zm.445.244.105.29-.32.1-.107-.292Zm.139.384.078.212-.32.1-.078-.212Zm.112.308.105.29-.32.1-.105-.29Zm.139.384.082.228-.32.1-.082-.228Zm.119.322.085.233-.32.1L249.9,71.1Zm.119.327.082.224-.32.1-.082-.224Zm.117.32.1.27-.32.1-.1-.27Zm.135.363.1.279-.32.1-.1-.279Zm-.18.747-.429.13-.091-.249.43-.13Zm.034.094.078.212-.43.13-.078-.212Zm.053-.121-.091-.249.32-.1.091.249Zm.354,0,.078.212-.32.1-.078-.212Zm.112.308.087.24-.32.1-.087-.24Zm.087-.025.336-.1.087.24-.336.1Zm.423-.128.267-.08.087.24-.267.08Zm.354-.107.263-.08.087.24-.263.08Zm.352-.105.226-.069.087.24-.226.069Zm.311-.094.276-.082.087.24-.276.085Zm.363-.11.258-.078.087.24-.258.078Zm.379.256.1.279-.258.078-.1-.279Zm-.034-.361.208-.062.087.24-.208.062Zm.295-.089.263-.08.087.24-.263.08Zm.347-.105.265-.08.087.24-.265.08Zm.35-.21-.078-.212.244-.073.078.212Zm.16-.665.247-.075.091.249-.247.075Zm.375.27.078.212-.247.075-.078-.212Zm-.007-.382.249-.075.091.249-.249.075Zm.375.27.078.212-.249.075-.078-.212Zm.324-.585-.1-.279.347-.105.1.279Zm-.137-.375-.1-.27.347-.105.1.27Zm-.133-.363-.082-.226.347-.105.082.224Zm-.116-.32-.085-.233.347-.105.085.233Zm-.085.132.082.224-.247.073-.082-.226Zm-.281-.021-.085-.233.247-.073.085.233Zm-.119-.329-.082-.228.247-.073.082.228Zm-.119-.322-.105-.29.247-.073.105.29Zm-.139-.384-.078-.212.247-.073.078.212Zm-.112-.306-.1-.265.247-.073.1.263Zm-.085.13.078.212-.249.075-.078-.212Zm-.283-.021-.1-.267.249-.073.1.265Zm-.132-.361-.1-.281.249-.075.105.283Zm-.135-.366-.116-.32.249-.075.116.32Zm-.089.121.1.281-.247.073-.1-.279Zm-.276-.011-.117-.32.247-.075.116.32Zm-.089.123.1.276-.244.071-.1-.274Zm-.274-.011-.117-.32.244-.073.117.32Zm-.089.121.1.274-.265.078-.1-.272Zm-.295,0-.117-.32.265-.08.117.32Zm-.087.027-.263.08-.117-.32.263-.08ZM251.929,68l-.133-.361.263-.08.133.361Zm-.087.027-.208.064-.132-.361.206-.064Zm-.292.089-.258.078-.132-.363.258-.078Zm-.345.105-.276.085-.132-.363.276-.085Zm-.361.11-.226.069-.133-.363.226-.069Zm-.313.1-.263.08-.133-.363.263-.08Zm-.35.105-.267.082-.132-.363.267-.082Zm-.354.11-.336.1-.133-.366.336-.1Zm-.42.128-.32.1-.132-.366.32-.1Zm-.26.53-.427.13-.117-.32.427-.13Zm-.514.155-.418.128-.117-.32.42-.128Zm.032.087.087.238-.42.123-.087-.235Zm.121.331.107.3-.42.126-.11-.3Zm.142.391.078.212-.42.126-.078-.212Zm.053-.121-.107-.295.429-.126.107.292Zm.464-.034.078.212-.429.13-.078-.212Zm.112.306.105.29-.429.13-.105-.29Zm.139.386.082.228-.43.13-.082-.228Zm.119.322.085.233-.429.13-.085-.233Zm.119.327.082.224-.429.13-.082-.226Zm.117.32.1.27-.429.13-.1-.27Zm.132.363.1.279-.429.13-.1-.279Zm-.288.779-.42.126-.091-.249.42-.126Zm.037.094.078.212-.42.126-.078-.212Zm.112.308.087.24-.42.126-.087-.24Zm.087-.027.429-.13.087.24-.429.13Zm.551.206.1.279-.429.13-.1-.279Zm.087-.025.32-.1.1.279-.32.1Zm.407-.123.336-.1.1.276-.336.1Zm.423-.128.267-.08.1.279-.267.08Zm.354-.107.263-.08.1.279-.263.08Zm.35-.105.226-.069.1.279-.226.069Zm.313-.094.276-.085.1.279-.276.085Zm.411.29.1.283-.276.085-.1-.283Zm.087-.027.258-.078.1.281-.258.078Zm.208-.475.208-.062.1.279-.208.062Zm.295-.089.263-.08.1.279-.263.08Zm.35-.105.265-.08.1.279-.265.08Zm.35-.21-.087-.24.244-.073.087.24Zm.279.021.1.279-.244.073-.1-.276Zm.085-.13-.087-.24.247-.075.087.24Zm.281.018.1.279-.247.075-.1-.279Zm.085-.13-.087-.24.249-.075.087.24Zm.286.021.1.279-.249.075-.1-.279Zm.085-.13-.087-.24.247-.073.087.24Zm.279.021.1.279-.247.073-.1-.279Zm.087-.132-.087-.24.347-.105.087.24Zm-.123-.334-.078-.212.347-.105.078.212Zm-.112-.306-.091-.249.347-.105.091.249Zm.34-.487-.1-.279.372-.112.1.279Zm-.137-.372-.1-.27.372-.112.1.27Zm-.132-.363-.082-.224.37-.112.082.226Zm-.117-.32-.085-.233.372-.112.085.233Zm-.119-.329-.082-.228.372-.112.082.228Zm-.119-.322-.105-.29.372-.112.105.29Zm-.085.133.082.228-.347.105-.082-.228Zm-.381.009-.105-.29.347-.105.105.29Zm-.139-.384-.078-.212.347-.105.078.212Zm-.112-.306-.1-.263.347-.1.1.26Zm-.267-.731-.117-.32.347-.105.117.32Zm-.089.121.105.288-.247.073-.105-.286Zm-.276-.009-.117-.32.247-.075.117.32Zm-.148-.407-.132-.359.247-.075.13.359Zm-.158-.436-.123-.336.247-.073.123.336Zm.039.473-.249.075-.132-.361.249-.075Zm-.368.112-.247.075-.133-.361.247-.075Zm-.366.112-.242.075-.132-.361.244-.073Zm-.363.11-.265.08-.133-.361.265-.08Zm-.425-.359L252,67.119l.265-.08.123.338Zm-.087.027-.263.08-.123-.34.263-.08Zm-.35.105-.208.062-.123-.34.208-.062Zm-.292.089-.258.078-.123-.34.258-.078Zm-.345.105-.276.085-.126-.34.276-.085Zm-.363.11-.226.069-.126-.343.226-.069Zm-.311.1-.263.08-.126-.343.263-.08Zm-.349.105-.267.082-.126-.343.267-.08Zm-.354.107-.336.1-.126-.345.336-.1Zm-.423.128-.32.1-.126-.345.32-.1ZM249,68.9l-.429.13-.133-.366.427-.13Zm-.516.158-.418.128-.133-.366.42-.128Zm-.356.56-.484.148-.117-.32.484-.148Zm.03.085.085.233-.487.144-.085-.228Zm.121.329.11.3-.484.146-.11-.3Zm.144.393.078.212-.484.146-.078-.212Zm.112.306.105.29-.484.146-.105-.29Zm.087-.025.42-.126.105.29-.42.126Zm.56.258.082.228-.42.126-.082-.228Zm.116.322.085.233-.42.126-.085-.233Zm.121.327.082.226-.42.126L249,71.736Zm.116.32.1.27-.42.126-.1-.27Zm.133.363.1.279-.42.126-.1-.279Zm-.279.777-.484.146-.091-.249.484-.146Zm.034.094.078.212-.484.146-.078-.212Zm.112.308.087.24-.484.146-.087-.24Zm.123.334.1.279-.484.146-.1-.279Zm.087-.027.42-.126.1.279-.42.126Zm.555.247.1.283-.42.126-.1-.283Zm.087-.025.429-.13.1.281-.43.13Zm.514-.155.32-.1.1.283-.32.1Zm.407-.123.336-.1.1.283-.336.1Zm.423-.128.267-.08.1.283-.267.08Zm.354-.107.263-.08.1.283-.263.08Zm.352-.105.226-.069.1.283-.226.069Zm.361.308.114.311-.226.069-.114-.311Zm.087-.025.276-.085.114.311L253,73.97Zm.363-.11.258-.078.114.311-.258.078Zm.208-.48.208-.062.1.283-.208.062Zm.295-.089.263-.08.1.281-.263.08Zm.347-.105.265-.08.1.281-.265.08Zm.4.3.114.311-.265.08-.114-.311Zm.087-.13-.1-.281.244-.073.1.283Zm.276.021.114.311-.244.073-.114-.311Zm.087-.13-.1-.283.247-.075.1.283Zm.281.018.114.311-.247.075-.114-.311Zm.085-.13-.1-.283.249-.075.1.281Zm.283.021.114.311-.249.075-.114-.311Zm.087-.13-.1-.283.247-.073.1.281Zm.226-.489-.1-.279.347-.105.1.279Zm.208-.845-.078-.212.372-.112.078.212Zm-.112-.308-.091-.249.37-.112.091.249Zm.366-.491-.1-.279.683-.206a2.745,2.745,0,0,1,.011.306Zm-.137-.375-.1-.27.763-.231c.018.1.032.19.043.286Zm-.133-.363-.082-.224.8-.242c.023.078.041.153.059.233Zm-.117-.32-.085-.233.811-.244q.044.117.082.233Zm-.121-.327-.082-.228.788-.238c.036.073.071.146.1.222Zm-.116-.322-.105-.29.722-.217c.057.089.112.18.162.272Zm-.142-.386-.078-.212.633-.19c.048.062.1.126.142.192Zm-.11-.306-.094-.256.5-.146c.069.071.135.146.2.222Zm-.087.13.078.212-.372.112-.078-.212Zm-.4.018-.094-.26.372-.11.094.258Zm-.13-.354-.107-.292.37-.112.107.295Zm.352-.528-.116-.32.032-.009c.11.082.219.169.324.258Zm-.756-.219-.347.105-.13-.359.347-.105Zm-.662-.761-.011-.027c.018,0,.034.011.05.016Zm-.121.037-.247.073-.087-.238q.147.024.295.062Zm-.208.541-.249.075-.123-.338.249-.075Zm-.368.11-.247.075-.123-.338.247-.075Zm-.366.112-.244.073L252.379,67l.244-.073Zm-.4-.359-.226-.621c.089-.007.178-.011.265-.014l.206.562Zm-.119.037-.265.08-.254-.694q.141-.021.281-.034Zm-.352.105-.263.08-.267-.733c.091-.018.18-.037.272-.05Zm-.35.105-.208.062-.274-.752c.071-.018.139-.037.21-.053Zm-.295.089-.258.078-.274-.752c.085-.027.171-.055.258-.078Zm-.345.1-.276.085-.267-.733c.089-.037.178-.069.27-.1Zm-.363.11-.226.069-.256-.7c.071-.032.144-.064.215-.094Zm-.311.1-.263.08-.233-.64c.082-.043.162-.085.247-.126Zm-.35.105-.267.08-.206-.562c.08-.05.162-.1.244-.142Zm-.354.107-.336.1-.16-.441c.1-.069.2-.137.3-.2Zm-.423.126-.32.1-.107-.292c.089-.075.183-.146.276-.215Zm-.247.562-.429.13-.126-.345.429-.13Zm-1.021.311-.187.057c.043-.066.089-.133.137-.2Zm.027.078.132.366-.484.148-.071-.192c.043-.08.089-.16.137-.238Zm-.436.539-.107.032c.021-.048.043-.094.066-.142Zm.03.087.116.32-.448.137a3.644,3.644,0,0,1,.146-.4Zm.267.729.11.3-.861.26a3.01,3.01,0,0,1,.041-.352Zm.256.7.105.29-1.076.324a2.872,2.872,0,0,1-.037-.311Zm.142.384.082.228-1.119.338c-.023-.078-.041-.158-.057-.235Zm.117.322.085.233c-.183.055-.368.114-.551.169-.1.03-.407.132-.571.178-.032-.08-.062-.16-.087-.24Zm.053-.121-.082-.228.484-.146.082.228Zm.521-.053.085.233-.484.146-.085-.233Zm.119.329.082.224-.484.146-.082-.224Zm-.455.491.1.27-1.019.306a2.892,2.892,0,0,1-.158-.251Zm.087-.025.484-.146.1.27-.484.146Zm.617.217.1.279-.484.146-.1-.279Zm-.308.891.078.212-.569.171c-.069-.057-.137-.114-.2-.176Zm.112.306.087.24-.329.1c-.089-.057-.178-.121-.265-.187Zm.829.535.1.281-.057.018a4.589,4.589,0,0,1-.491-.164Zm.238.347.407-.123.078.21c-.16-.023-.318-.05-.473-.087C250.038,74.526,250.033,74.523,250.031,74.523Zm.493-.148.429-.13.114.311-.29.087c-.055,0-.107-.011-.162-.018Zm.576.274.007.016-.05,0Zm-.059-.429.32-.1.114.311-.32.1Zm.407-.123.336-.1.114.311-.336.1Zm.42-.128.267-.08.114.311-.267.08Zm.356-.107.263-.08.114.311-.263.08Zm.409.327.133.366c-.091.016-.183.032-.276.043l-.121-.329Zm.089-.027.226-.069.144.4-.233.048Zm.311-.094.276-.082.151.416q-.14.038-.281.069Zm.363-.11.258-.078.153.418c-.085.027-.171.053-.258.075Zm.2-.507.208-.062.114.311-.208.062Zm.295-.089.263-.08.114.311-.263.08Zm.409.324.137.375c-.082.039-.167.073-.251.107l-.146-.4Zm.087-.025.265-.08.114.313q-.12.069-.247.13Zm.384-.117.244-.073.08.217c-.071.048-.144.1-.219.142Zm.363-.11.247-.075.032.087c-.069.057-.142.112-.215.167Zm.368-.11.082-.025-.069.062Zm.585-.626.055-.016-.041.055Zm.153-.151-.187.057-.1-.281.347-.105.057.158C256.313,72.433,256.277,72.49,256.236,72.547Zm.5-.982-.087-.24.212-.064c-.025.1-.057.2-.091.295Zm-.121-.334-.078-.212.4-.119c-.011.085-.027.167-.046.249Zm-.112-.308-.091-.249.557-.169c0,.1-.009.19-.021.283Zm-.681-3.223-.45.132-.107-.3.288-.087c.089.08.176.16.263.242A.031.031,0,0,1,255.818,67.7Zm-1.291-.971-.094.03-.034-.091c.011.007.025.011.037.018C254.465,66.7,254.495,66.713,254.527,66.729Zm-1.311-.411.107.295-.249.075-.146-.4c.059,0,.119.009.178.016C253.142,66.308,253.179,66.313,253.216,66.318Zm-.423-.039.162.445-.247.075-.192-.528C252.608,66.272,252.7,66.274,252.793,66.279Zm-4.208,1.48.094.256-.429.13-.021-.057Q248.4,67.917,248.585,67.759Zm-1.362,4.516.646-.2.471-.142.082.226-1.094.329c-.027-.053-.055-.105-.08-.158A.29.29,0,0,1,247.223,72.275Zm.372.64.994-.3.1.279-.9.272C247.724,73.084,247.66,73,247.6,72.915Zm3.609,1.754-.016-.046.32-.1.053.144C251.443,74.674,251.324,74.674,251.205,74.67Zm1.126-.053c-.073.009-.144.016-.217.023l-.1-.267.267-.08.114.315Zm1.563-.345-.153-.418.208-.062.151.409C254.031,74.226,253.963,74.249,253.894,74.272Z" transform="translate(-246.446 -65.837)"/>
    </g>
  </g>
</svg>
