<svg id="Group_284" data-name="Group 284" xmlns="http://www.w3.org/2000/svg" viewBox="0 0 759.906 215.08">
  <defs>
    <style>
      .cls-1 {
        fill: #fff;
      }
    </style>
  </defs>
  <g id="Group_244" data-name="Group 244" transform="translate(600.506 22.473)">
    <path id="Path_150" data-name="Path 150" class="cls-1" d="M603.715,43.953A21.973,21.973,0,1,1,581.743,21.98,21.972,21.972,0,0,1,603.715,43.953Z" transform="translate(-559.77 -21.98)"/>
  </g>
  <g id="Group_246" data-name="Group 246">
    <g id="Group_243" data-name="Group 243" transform="translate(284.572 73.76)">
      <g id="Group_234" data-name="Group 234">
        <path id="Path_141" data-name="Path 141" class="cls-1" d="M600,73.586c.032.706-1.315,2.673-2.972,4.491-12.9,14.723-27.319,26.677-42.876,37.936A282.231,282.231,0,0,1,490.4,151.159c-5.656,2.652-11.537,5.036-17.525,7.3,1.871-.567,3.7-1.219,5.571-1.839,27.533-9.431,51.975-22.347,76.386-37.787,22.935-14.766,41.272-29.447,58.786-48.95.791-.887,1.272-1.133,1.112-.588a9.047,9.047,0,0,1-1.679,2.534,204.431,204.431,0,0,1-27.308,26.1c-9.516,7.645-19.578,14.852-31.393,22.614-24.411,15.921-48,28.5-74.975,37.658a247.449,247.449,0,0,1-34.1,8.811,224.086,224.086,0,0,1-22.39,4.459c9.762-1.133,19.407-2.833,29.062-4.854a280.572,280.572,0,0,0,63.031-20.9c3.069-1.433,5.752-2.245,6.116-1.7.331.535-1.882,2.288-4.94,3.732a270.1,270.1,0,0,1-64.432,21.727c-14.125,2.855-28.5,5.271-43.176,5.8a225.588,225.588,0,0,1-44.1-2.374,160.538,160.538,0,0,1-43.443-12.841c-13.964-6.576-27.34-16.017-37.541-28.773-1.016-1.2-1.657-2.31-1.411-2.342.193-.139,1.187.877,2.192,2.01l-.577-.417a119.624,119.624,0,0,0,41.208,28.794c5.314,1.561,11.195,3.144,17.343,4.544a148.021,148.021,0,0,1-17.535-6.351c-16.7-7.378-30.452-18.241-40.545-32.644-.118-.182.086-.139.171-.192-.332-.567-.289-.738.118-.364a9.98,9.98,0,0,1,1.358,1.625c14.884,18.305,36.022,29.083,57.086,35.231,21.256,6.137,43.09,8.244,64.5,7.795a5.46,5.46,0,0,1,.6-.032,208.771,208.771,0,0,0,25.544-2.833c1.5-.235,2.791-.267,2.876.011.011.075-.053.16-.182.246,3.368-.5,6.725-1.048,10.072-1.657a16.577,16.577,0,0,1,3.379-.331c6.961-1.828,13.6-3.956,20.048-6.244-2.267.684-4.576,1.262-6.9,1.86-19.032,4.7-38.268,7.795-57.012,7.474a182.617,182.617,0,0,1-53.376-8.415c-.556-.192-.674-.353-.235-.374a4.987,4.987,0,0,1,1.689.289,189.682,189.682,0,0,0,49.473,6.961c16.894.321,33.863-2.171,50.885-5.934,12.735-4.566,29.062-9.324,42.994-15.344,1.593-.706,3.1-1.059,3.379-.823.3.235-.8,1.026-2.342,1.7-5.111,2.3-10.34,4.437-15.675,6.319,6.672-2.363,13.291-4.961,19.792-7.955,3.422-1.786,6.822-3.6,10.179-5.539a10.042,10.042,0,0,1,3.336-1.283c.139,0,.2.043.235.1,30.73-16.038,57.589-37.273,80.877-61.481C598.642,73.864,599.989,72.9,600,73.586ZM336.241,163.562a196.653,196.653,0,0,0,51.5,8.917q-6.56-.481-13.1-1.508A248.062,248.062,0,0,1,336.241,163.562Z" transform="translate(-265.066 -69.01)"/>
        <path id="Path_142" data-name="Path 142" class="cls-1" d="M349.243,166.544c9.89,1.657,20.134,2.791,29.34,4.117.438.075.716.171.492.246a3.357,3.357,0,0,1-1.251.011c-8.832-1.3-18.829-2.438-28.3-3.988a2.254,2.254,0,0,1-1.08-.374C348.355,166.459,348.772,166.459,349.243,166.544Z" transform="translate(-260.468 -62.262)"/>
        <path id="Path_143" data-name="Path 143" class="cls-1" d="M382.863,175.218a178.546,178.546,0,0,0,46.469-1.347,268.94,268.94,0,0,0,45.924-11.334c24.507-8.447,46.49-19.663,68.41-33.585,7.207-4.576,14.167-9.463,20.657-13.857.545-.385.92-.5.8-.246a4.8,4.8,0,0,1-1.294,1.23c-26.709,19.161-56.413,36.44-88.265,46.971A285.354,285.354,0,0,1,429.2,174.245a178.682,178.682,0,0,1-47.089,1.262c-.406-.043-.641-.16-.492-.235A4.116,4.116,0,0,1,382.863,175.218Z" transform="translate(-258.173 -65.846)"/>
        <path id="Path_144" data-name="Path 144" class="cls-1" d="M519.951,140.214c-16.263,8.319-33.071,14.905-50.575,21.064a168.019,168.019,0,0,1-29.179,7.527,396.983,396.983,0,0,1-39.968,4.245,2.339,2.339,0,0,1-1.059-.086c-.032-.086.278-.182.748-.225,7.549-.556,14.83-1.133,22.112-2.053,7.164-.93,14.317-1.946,21.62-3.347,27.18-5.293,51.8-15.557,76.194-27.5.513-.267.866-.353.93-.278C520.8,139.679,520.411,139.979,519.951,140.214Z" transform="translate(-256.955 -64.128)"/>
        <path id="Path_145" data-name="Path 145" class="cls-1" d="M443.994,153.011a220.4,220.4,0,0,1-30.11,5.485,135.286,135.286,0,0,1-29.137-.31c-.481-.086-.556-.192-.257-.267a4.559,4.559,0,0,1,1.4-.043,129.238,129.238,0,0,0,28.463-.032,255.378,255.378,0,0,0,29.222-5.41,3.6,3.6,0,0,1,1.871-.128C445.534,152.487,444.935,152.775,443.994,153.011Z" transform="translate(-257.983 -63.249)"/>
        <path id="Path_146" data-name="Path 146" class="cls-1" d="M350.159,168.264c20.091,4.64,40.192,5.581,59.535,5.346,9.206-.577,18.444-1.754,27.4-3.208,1.283-.225,2.363-.235,2.427,0s-.93.631-2.224.855c-4.512.759-9.067,1.636-13.7,2.149.15.064.225.128.193.214a317.008,317.008,0,0,0,47.549-9.27c.855-.257,1.54-.31,1.582-.171.064.15-.6.481-1.443.727a288.1,288.1,0,0,1-49.388,9.4,14.053,14.053,0,0,1-2.1.278,234.084,234.084,0,0,1-42.866-.8c-20.743-2.331-41.176-5.966-61.214-15.921a112.338,112.338,0,0,1-22.443-15.226,82.992,82.992,0,0,1-15.942-17.354,87.69,87.69,0,0,1-11.3-25.822c-.139-.513-.064-.588.128-.225a5.775,5.775,0,0,1,.556,1.379,97.027,97.027,0,0,0,11.227,25.2c10.553,14.253,24.218,24.475,38.257,31.991C327.673,162.961,338.5,165.5,350.159,168.264Z" transform="translate(-266.163 -66.933)"/>
      </g>
    </g>
    <g id="Group_245" data-name="Group 245">
      <g id="Group_238" data-name="Group 238">
        <path id="Path_147" data-name="Path 147" class="cls-1" d="M210.616,211.589c.118,1.935,1.272,3.1,4.341,2.8,2.78-.267,5.592.128,8.383-.064,2.588-.182,3.165-.877,5.186-1.935,2.171-1.133,3.154-.428,5.528-.225a69.394,69.394,0,0,0,8.682.6c4.662-.182,10.532,1.294,15.033.075,2.78-.759,7.538-3.593,6.907-7.068-.748-4.138-7.784-2.609-10.6-3.25-5.945-1.358-8.949-8.1-14.52-10.265-5.891,5.25-11.954-4.769-14.4-9.57h0c-2.31-4.534-4.608-9.666-7.431-13.975-2.577-3.924-4.2-7.966-6.565-12.04-1.914-3.315-5.218-5.859-6.843-9.324-1.55-3.293-1.337-7.592-3.625-10.532-1.048-1.347-3.806-2.042-5.293-2.748-.663-.321-2.277-.791-2.705-1.433-.588-.887.609-1.508-.15-2.47a6.491,6.491,0,0,0-2.01-1.187c-1.1-.609-2.4-.941-3.422-1.647-3.913-2.684-7.581-6.009-11.762-8.287-2.1-1.144-4.266-2.224-6.319-3.432a14.913,14.913,0,0,0-4.223-2.117c.235-1.112.5-2.352.684-3.55,1.5,1.732,4.812,1.6,6.9,1.786,2.705.225,5.41.5,8.1.791,4.769.513,9.73.032,14.52.075,2.491.021,4.983-.289,7.474-.182a10.373,10.373,0,0,1,3.24.46c.909.364,1.625,1.187,2.577,1.572a8.008,8.008,0,0,1,2.759,1.176,12.734,12.734,0,0,1,1.24,1.668,4.727,4.727,0,0,0,2.759,1.775,5.8,5.8,0,0,0,3.283-.492c.577-.2.984-.8,1.572-.93a1.8,1.8,0,0,0,2.256.011c.342-.246.748-1.059,1.187-.952.086.021.428.481.6.588a1.241,1.241,0,0,0,.855.214c.823.011,1.208-.331,1.2-1.2a23.792,23.792,0,0,0-.406-2.833,4.275,4.275,0,0,0-1.721-2.844,9.667,9.667,0,0,1-1.85-1.828,11.035,11.035,0,0,0-1.978-2.513,10.887,10.887,0,0,0-2.876-1.219c-.513-.2-.909-.577-1.4-.8a9.18,9.18,0,0,0-1.615-.417,75.55,75.55,0,0,0-18.626-2.6c-4.042.011-7.688-1.283-11.291-2.449a30.735,30.735,0,0,1-6.9-2.855c-1.059-.642-5.41-1.433-5.913-2.277-1.518-2.555,4.181-5.122,5.688-5.913,3.561-1.86,5.635-4.833,8.169-7.966,1.422-1.764,2.78-3.475,4.074-5.3,1.005-1.411,2.235-3.689,3.347-4.737,2.1,2.2,4.587,4.245,6.619,6.458s2.577,4.769,3.945,7.324c1.529,2.855,3.988,5.036,5.763,7.741,2.064,3.144,3.165,6.2,6.276,8.468,3.582,2.62,4.983,5.357,7.42,9.046h0c.866,1.337,2.416,2.192,3.24,3.443.716,1.1.706,4.427,2.684,4.02.609-.128.781-.406,1.476-.331a4.7,4.7,0,0,0,1.967-.011,16.218,16.218,0,0,1,1.786-.642,7.664,7.664,0,0,0,2-.524c.706-.289,1.486.107,2.192-.139.6-.2,1.059-1.08,1.39-1.593a4.174,4.174,0,0,0,.513-2.459,26,26,0,0,0-.909-5.282,5.52,5.52,0,0,0-2.267-3.678,4.446,4.446,0,0,0-2.449-.428c-1.005-.086-1.978-.631-2.994-.759-.813-.1-1.764.182-2.331-.513a6,6,0,0,1-.9-2.288c-.417-1.828-.235-3.8-.994-5.539a74.308,74.308,0,0,0-4.993-9.377c-1.711-2.737-4.3-4.469-6.18-7.025-4.181-5.667-4.747-14.991-5.539-21.727A20.868,20.868,0,0,0,205.26,42.7c-1.743-2.106-4.395-3.379-5.817-5.774-1.85-3.144.417-3.7.941-6.79.353-2.042.086-3.924.513-6.03a33.944,33.944,0,0,0,.588-8.254A38.755,38.755,0,0,0,200.373,8.2c-1.112-4.384-5.068-6.02-9.142-7.335-7.805-2.513-18.786.6-20.4,9.719-.642,3.625.535,8.618.962,12.264.257,2.2.182,7.41,2.673,8.308-3.122.257-5.025.3-7.891,2.106-4.7,2.983-10.639,3.913-15.023,7.41-4.02,3.208-5.977,8.212-9.4,11.954-2.876,3.154-5.8,4.747-7.634,8.714-1.893,4.1-4.608,7.976-6.736,12.05-1.411,2.705-1.454,6.084-3.079,8.661a25.08,25.08,0,0,1-7.388,6.79c-3.849,2.449-4.448,5.122-5.806,9.035-.716,2.064-2.16,3.486-2.416,5.752-.257,2.224.417,4.523.716,6.715.727,5.175,1.369,10.361,2.32,15.493.321,1.754,1.508,3.55,1.55,5.357.043,1.9-1.026,3.774-1.6,5.549a31.159,31.159,0,0,1-2.94,7.324h0c-2.106,3.336-7.388,5.8-3.411,9.281-1.005,4.117-4.9,6.234-6.779,9.762A31.034,31.034,0,0,1,93.8,170.5c-3.218,3.25-7.934,3.9-12.157,5.036s-8.254,3.507-12.221,5.325c-4.341,1.989-8.051,5-12.05,7.559a42.362,42.362,0,0,1-5.742,3.357c-1.679.716-5.881,3.208-7.559,1.743C42,191.68,44.1,188,42.063,185.927c-2.352-2.384-6.447-.845-9.024.16a45.716,45.716,0,0,0-10.061,5.924,103.618,103.618,0,0,1-12.114,8.062C8,201.666,4.308,202.746,2.2,205.409.608,207.419-.953,211.6.769,213.845c2.694,3.507,9.58-1.315,12.553-2.213,3.667-1.112,7.474-.118,11.12-.738a125.649,125.649,0,0,1,12.724-1.818c4.01-.267,7.688-2.277,11.58-3.283,10.7-2.759,21.406-5.389,32.163-8.083a52.325,52.325,0,0,0,9.655-3.411c2.812-1.326,5.325-1.625,8.126-2.748,3.1-1.24,5.389-4.833,7.7-7.1,3.978-3.9,8.361-7.592,12.574-11.4,2.235-2.021,4.48-4.042,6.7-6.084.994-.92,2.117-2.47,3.283-3.122.823-.46,1.732-.225,2.449-.695,4.812-3.09,8.383-10.4,11.291-15.183h0c1.615-2.609,2.245-4.416,4.619-6.672.406-.417,7.5,2.481,8.222,2.769,3.967,1.561,8.062,3.165,12.114,4.48,2.833.92,5.132,3,8.169,3.678.406.086.984.909,1.315.887,1.636-.139,2.032-2.705,3.892-2.705,1.764.011,3.389,2.652,4.33,3.86a47.67,47.67,0,0,1,5.613,9.666c1.39,3.09,2.491,6.426,4.416,9.26,5.143,7.57,17.257,11.494,19.77,21.021C216.048,197.785,210.317,206.916,210.616,211.589Z" transform="translate(-0.017 -0.027)"/>
        <g id="Group_237" data-name="Group 237" transform="translate(204.355 70.367)">
          <path id="Path_148" data-name="Path 148" class="cls-1" d="M258.79,104.483c.364.118,1.369.727,1.647.235.332-.588-1.144-1.668-1.518-1.85-6.426-3.069-13.889-3.806-20.9-3.571-.738.021-3.1.567-2.887-.781.139-.866,1.711-1.294,2.374-1.561,4.17-1.657,7.57-4.79,10.521-8.126a43.968,43.968,0,0,0,3.764-4.341c.759-1.133,1.39-2.342,2.074-3.518.535-.92,1.593-2.032,1.786-3.09.021-.086-.021-1.443-.353-1.208a10.537,10.537,0,0,0-2.652,3.186,65.893,65.893,0,0,1-6.651,8.233,26.88,26.88,0,0,1-4.608,3.881,53.874,53.874,0,0,1-5.934,3.817,12.052,12.052,0,0,1-2.684,1.262c-.887.246-1.208-.289-2.053-.331-.877-.043-12.264,2.93-13.911,3.443-2.545.791-5.186,1.369-7.752,2.085-3.357.93-6.8,1.625-10.19,2.481a59.733,59.733,0,0,1-7.72,1.529c.246,2.032.374,4.373,1.24,6.244.866-.321,1.882-.225,2.78-.481,7.848-2.181,15.921-3.667,23.876-5.485a65.958,65.958,0,0,0,6.79-1.6c1.294-.449,2.673-.7,3.978-1.1a11.131,11.131,0,0,0,1.957-.577,18.879,18.879,0,0,1,1.679-1.1,12.894,12.894,0,0,1,4.566-.62c1.561-.021,3.122-.257,4.7-.139.855.064,1.721.235,2.577.364a88.522,88.522,0,0,1,9.719,1.732C256.256,103.884,257.55,104.108,258.79,104.483Z" transform="translate(-191.14 -65.089)"/>
          <g id="Group_236" data-name="Group 236" transform="translate(59.135)">
            <path id="Path_149" data-name="Path 149" class="cls-1" d="M296.629,79.89a21.555,21.555,0,0,0-12.082-12.253A25.442,25.442,0,0,0,278.153,66a31.441,31.441,0,0,0-25.469,9.559c-5.4,5.6-8.18,14.082-4.694,21.47a20.847,20.847,0,0,0,14.381,11.3,34.891,34.891,0,0,0,11.794.47,43.8,43.8,0,0,0,8.041-1.775,23.3,23.3,0,0,0,14.189-12.563A18.187,18.187,0,0,0,296.629,79.89ZM293.2,95.8l-.1-.278.31-.1C293.336,95.554,293.261,95.683,293.2,95.8Zm-2.908,3.881-.449-1.219,1.155-.342.2.545C290.909,99.008,290.6,99.35,290.289,99.681Zm-19.749,6.7,1.572-.47.428,1.165c-.567.043-1.133.075-1.711.1Zm-11.986-1.572c-.31-.16-.62-.342-.93-.524l1.176-.353.449,1.219C259.014,105.038,258.789,104.931,258.554,104.814Zm-5.464-4.288,4.02-1.208.428,1.165-3.475,1.048C253.732,101.21,253.4,100.879,253.09,100.526ZM248.8,89.363l4.223-1.272.364.994-4.576,1.379C248.792,90.1,248.792,89.738,248.8,89.363Zm.6-3.913,2.384-.727.4,1.069-3.069.909C249.188,86.284,249.294,85.867,249.4,85.45Zm4.362-7.987.877-.267.588,1.615-1.967.6-.342-.93C253.2,78.136,253.475,77.794,253.764,77.463Zm.695-.759.021.053-.1.032c.021-.032.053-.053.075-.086Zm28.463-7.324.342.93-1.625.492-.577-1.572.823-.246C282.237,69.1,282.58,69.24,282.922,69.379ZM286.1,71.09l.2.556-1.732.535-.609-1.679.781-.235C285.2,70.523,285.659,70.8,286.1,71.09ZM294.2,93.9c-.15.321-.31.642-.471.952l-.8.235-.471-1.3,1.743-.524.128.364C294.288,93.715,294.245,93.811,294.2,93.9Zm-1.9-.556-.406-1.123,1.743-.524.406,1.123Zm-7.453-18.69.5,1.369-1.625.481-.492-1.347Zm-.139-2.074,1.732-.535.545,1.5-1.732.535Zm2.6,18.936-.428-1.165L288.022,90l.428,1.165Zm1.315.1.364.994-1.155.342-.364-.994Zm-2.545-3.454-.46-1.262,1.155-.342.46,1.262Zm1.315.1.481,1.3-1.155.342-.47-1.3Zm-1.711.513.481,1.3L285,90.422l-.481-1.3Zm-1.326-.1-.46-1.262,1.165-.353.46,1.262Zm-16.178-3.55.492,1.358-1.23.374-.492-1.358Zm-1.39-.075-.364-.994,1.23-.374.364.994Zm4.865,3.9-.4-1.091,1.294-.4.4,1.091Zm1.454.053.385,1.048-1.294.4-.385-1.059Zm-1.315,1.572-1.059.321-.385-1.059,1.059-.321Zm-.7-3.154-.385-1.069L272,85.963l.385,1.069Zm-.246.567.4,1.091-1.058.321-.4-1.091Zm-1.219-.128-.385-1.069,1.059-.321.385,1.069Zm-.556-1.508-.492-1.358,1.059-.321.492,1.358Zm-.652-1.8-.364-.994,1.059-.321.364.994Zm.417,2.363.385,1.069-1.23.374-.385-1.069Zm.545,1.508.4,1.091-1.23.374-.4-1.091Zm.556,1.54.385,1.048-1.23.374-.385-1.059Zm.556,1.486.46,1.262-1.23.374-.46-1.262Zm.406-.118,1.059-.321.46,1.262-1.059.321Zm1.454-.438,1.294-.4.46,1.262-1.294.4Zm1.155-2.01,1.208-.364.385,1.059-1.208.364Zm.545,1.5,1.208-.364.46,1.262-1.208.364Zm1.069-1.989.973-.289.385,1.059-.973.289Zm.545,1.5.973-.289.46,1.262-.973.289Zm1.379-.406,1.23-.374.46,1.262-1.23.374Zm1.625-.492,1.24-.374.46,1.262-1.24.374Zm-.16-.449-.385-1.048,1.24-.374.385,1.059Zm-.545-1.5-.4-1.091,1.24-.374.4,1.091Zm-.246.567.385,1.048-1.23.374-.385-1.059Zm-1.39-.075-.4-1.091,1.23-.374.4,1.091Zm-.556-1.529-.385-1.069,1.23-.374.385,1.069Zm-.246.567.4,1.091-.973.289-.4-1.091Zm-1.133-.15-.385-1.069.973-.289.385,1.069Zm-.246.567.4,1.091-1.208.364-.4-1.091ZM272.8,86.9l-.385-1.069,1.208-.364L274,86.541ZM272.24,85.4l-.492-1.358,1.208-.364.492,1.358Zm-.652-1.8-.363-.994,1.208-.364.363.994Zm-.246.567.492,1.358-1.294.385-.492-1.358Zm-1.454-.053-.363-.994,1.294-.4.364.994Zm-.524-1.433-.481-1.315,1.294-.385.481,1.3Zm-.406.118-1.059.321-.481-1.326,1.059-.31Zm-1.465.438-1.23.374-.492-1.337,1.23-.364Zm-1.636.5-1.251.374-.492-1.347,1.251-.374Zm.16.438.364.994-1.251.374-.363-.994Zm.524,1.433.492,1.358-1.251.374-.492-1.358Zm.652,1.8.385,1.069-1.251.374-.385-1.069Zm.556,1.508.4,1.091-1.251.374-.4-1.091Zm.556,1.54.385,1.059-1.251.374-.385-1.048Zm.545,1.5.46,1.262-1.251.374-.46-1.262Zm.62,1.7.481,1.3-1.251.374-.471-1.3Zm.406-.128,1.23-.374.481,1.3-1.23.374Zm1.647-.492,1.058-.321.481,1.3L272,94.335Zm1.454-.438,1.294-.4.481,1.3-1.294.385Zm1.7-.513,1.208-.364.471,1.3-1.208.364Zm1.615-.481.973-.289.481,1.3-.973.289Zm1.379-.417,1.23-.374.481,1.3-1.23.374Zm1.636-.492,1.24-.374.47,1.3-1.24.374Zm1.636-.984-.46-1.262,1.144-.342.46,1.262Zm1.294.1.481,1.3-1.144.342-.481-1.3Zm.406-.609-.46-1.262,1.155-.353.46,1.262Zm-.631-1.711-.385-1.048,1.155-.353.385,1.059ZM281.468,86l-.4-1.091,1.155-.353.4,1.091Zm-.4.609.385,1.059-1.144.342-.385-1.048Zm-1.3-.1-.4-1.091,1.144-.342.4,1.091Zm-.556-1.54-.385-1.069,1.144-.342.385,1.069Zm-.556-1.508-.492-1.358,1.144-.342.492,1.358Zm-.4.609.385,1.069-1.24.374-.385-1.069Zm-1.4-.064-.492-1.358,1.24-.374.492,1.358Zm-.406.118-1.23.374-.492-1.358,1.23-.374ZM274.571,82.7l-.363-.994,1.23-.374.364.994Zm-.246.556.492,1.358-.973.289-.492-1.358Zm-1.133-.15-.363-.994.973-.289.364.994Zm-.524-1.433-.47-1.294.973-.289.47,1.294Zm-.406.128-1.208.364-.481-1.3,1.208-.353Zm-1.839-1.39-.449-1.23,1.208-.364.449,1.24Zm-.406.118-1.294.385-.449-1.219,1.294-.4Zm-1.711.5-1.059.31-.438-1.208,1.048-.321Zm-1.454.438-1.23.364-.438-1.187,1.23-.374Zm-1.647.481-1.251.374-.428-1.176,1.251-.385Zm-1.657.492-1.572.46-.417-1.155,1.572-.481Zm.16.438.492,1.347-1.572.47-.492-1.358Zm.652,1.8.363.994-1.572.47-.364-.994Zm.524,1.433.492,1.358-1.572.47-.492-1.358Zm.652,1.8.385,1.069-1.572.47-.385-1.069Zm.556,1.508.4,1.091-1.572.47-.4-1.091Zm.556,1.529.385,1.048-1.572.47-.385-1.048Zm.545,1.5.46,1.262-1.572.47-.46-1.262Zm.62,1.711.481,1.3-1.572.47-.481-1.3Zm.642,1.743.428,1.165-1.572.47-.428-1.165Zm.588,1.615.364.994-1.572.47-.363-.994Zm.246-.567-.428-1.165,1.251-.374.428,1.165Zm1.411.064.364.994-1.251.374-.364-.994Zm.246-.567-.428-1.165,1.23-.374.428,1.165Zm1.39.075.363.994-1.23.374-.364-.994Zm.246-.567-.428-1.165,1.059-.321.428,1.165Zm1.219.128.364.994-1.059.321-.364-.994Zm.246-.567-.428-1.165,1.294-.4.428,1.165Zm1.454.053.363.994-1.294.4-.363-1.005Zm.246-.567-.428-1.165,1.208-.364.428,1.165Zm1.369.075.364.994-1.208.364-.363-.994Zm.246-.567-.428-1.165.973-.289.428,1.165Zm1.123.16.364.994-.962.289-.363-.994Zm.246-.567-.428-1.165,1.23-.374.428,1.165Zm1.39.064.364.994-1.23.374-.363-.994Zm.246-.567-.428-1.165,1.24-.374.428,1.165Zm1.4.075.363.994-1.24.374-.364-.994Zm-.032-1.775,1.144-.342.428,1.165-1.144.342Zm1.54-.962-.481-1.3,1.155-.353.47,1.3Zm.46-3.967-.385-1.048,1.165-.353.385,1.048Zm-.545-1.5-.4-1.091,1.165-.353.4,1.091Zm-.556-1.529-.385-1.069,1.165-.353.385,1.069Zm-.556-1.508-.492-1.358,1.165-.353.492,1.358Zm-.4.609.385,1.069-1.155.353-.385-1.069Zm-1.326-.1-.492-1.358,1.155-.353.492,1.358Zm-.652-1.8-.364-.994,1.155-.353.364.994Zm-.524-1.433-.46-1.262,1.155-.342.46,1.251Zm-.4.609.363.994L278,81.665l-.364-.994Zm-1.3-.1-.46-1.272,1.144-.342.46,1.262Zm-.4.609.364.994-1.24.374-.364-.994Zm-1.4-.075-.47-1.283,1.24-.364.46,1.272Zm-.406.128-1.23.374-.471-1.294,1.23-.364Zm-1.86-1.358-.46-1.262,1.229-.374.46,1.272Zm-.406.118-.973.289-.46-1.251.962-.3ZM271.438,78.3l-.545-1.5.973-.3.545,1.5Zm-.406.118-1.208.364-.545-1.5,1.208-.364Zm-1.615.492-1.294.4-.545-1.5,1.294-.4Zm-1.7.524-1.048.321-.545-1.5,1.059-.321Zm-1.454.438-1.23.374-.545-1.5,1.23-.374Zm-1.636.5-1.251.385-.545-1.5,1.251-.385Zm-1.657.5-1.572.481-.545-1.5,1.572-.481Zm-1.978.6-1.5.46-.545-1.5,1.5-.46Zm-1.337,2.117-2.01.6-.406-1.123,2-.609Zm-.011-1.262,1.5-.46.417,1.155-1.5.438Zm2.085,1.144.492,1.358-1.5.449-.5-1.369Zm.652,1.8.364.994-1.5.449-.363-.994Zm.524,1.443.492,1.358-1.5.449-.492-1.358Zm.652,1.8.385,1.069-1.5.449-.385-1.069Zm.556,1.508.4,1.091-1.5.449-.4-1.091Zm.556,1.529.385,1.048-1.5.449-.385-1.048Zm.545,1.5.46,1.262-1.5.449-.46-1.262Zm.631,1.7.481,1.3-1.5.449-.481-1.3Zm-.845,3.5-2.01.609-.428-1.165,2.01-.609Zm.16.438.364.994-2.01.609-.364-.994Zm.246-.567-.428-1.165,1.5-.449.428,1.165Zm1.657-.011.364.994-1.5.449-.363-.994Zm.524,1.443.406,1.123-1.5.449-.406-1.123Zm.406-.118,1.572-.47.406,1.123-1.572.47Zm1.978-.6,1.251-.374.406,1.123-1.251.374Zm1.657-.5,1.23-.374.406,1.123-1.23.374Zm1.647-.492,1.058-.321.406,1.123-1.059.321Zm1.454-.438,1.294-.385.406,1.123-1.294.4Zm1.7-.513,1.208-.364.406,1.123L276.838,98Zm1.775,1.2.471,1.3-1.208.364-.47-1.3Zm-.16-1.689.973-.289.406,1.123-.973.289Zm1.379-.417,1.23-.374.406,1.123-1.23.374Zm1.625-.492,1.24-.374.406,1.123-1.24.374Zm1.636-.984-.364-.994,1.144-.342.364.994Zm.749-3.111,1.155-.353.428,1.165-1.155.353Zm1.754,1.262.364.994-1.155.353L284.034,93Zm-.032-1.786,1.166-.353.428,1.165-1.165.353Zm1.754,1.262.364.994-1.165.353-.364-.994Zm1.518-2.737-.481-1.3,1.625-.492.481,1.3Zm-.642-1.754-.46-1.262,1.625-.492.46,1.262Zm-.62-1.7-.385-1.059,1.625-.492.385,1.048Zm-.545-1.5-.4-1.091,1.625-.492.4,1.091Zm-.4.62.385,1.048-1.155.342-.385-1.059Zm-1.315-.1-.4-1.091,1.155-.342.4,1.091Zm-.556-1.54-.385-1.069,1.155-.342.385,1.069Zm-.556-1.508-.492-1.358,1.155-.342.492,1.358Zm-.652-1.8-.364-.994,1.155-.342.364.994Zm-.524-1.433-.449-1.24,1.155-.342.449,1.23Zm-.4.609.364.994-1.165.353-.364-.994Zm-1.326-.1-.46-1.251,1.165-.342.449,1.24Zm-.62-1.689L279.8,76.19l1.165-.353.481,1.326Zm-.631-1.711-.545-1.5,1.165-.353.545,1.5Zm-.406.567.481,1.315-1.165.342-.481-1.3Zm-1.3-.053-.545-1.5,1.155-.353.545,1.5Zm-.417.577.47,1.294-1.144.331-.47-1.283Zm-1.283-.053-.545-1.5,1.144-.342.545,1.5Zm-.417.567.471,1.283-1.24.364-.46-1.272Zm-1.379-.021-.545-1.5,1.24-.374.545,1.5Zm-.406.128-1.23.374-.545-1.5,1.23-.374Zm-1.925-1.529-.62-1.689,1.23-.374.62,1.689Zm-.406.128-.962.3-.62-1.689.962-.3Zm-1.369.417-1.208.364-.62-1.7,1.208-.364Zm-1.615.492-1.294.4-.62-1.7,1.294-.4Zm-1.689.513-1.059.321-.62-1.7,1.058-.321Zm-1.465.449-1.23.374-.62-1.7,1.23-.374Zm-1.636.492-1.251.385-.62-1.7,1.251-.385Zm-1.657.513-1.572.481-.62-1.711,1.572-.47Zm-1.967.6-1.5.46-.62-1.711,1.5-.449Zm-1.219,2.481-2,.609-.545-1.5,2-.609Zm-2.406.727-1.957.6-.545-1.5,1.967-.6Zm.15.406.406,1.112-1.967.577-.406-1.1Zm.567,1.55.5,1.39-1.967.588-.513-1.4Zm.663,1.828.364.994-1.967.588-.364-.994Zm.246-.567-.5-1.379,2.01-.588.5,1.369Zm2.171-.16.363.994-2.01.609-.364-.994ZM261,87.278l.492,1.358-2.01.609-.492-1.358Zm.652,1.807.385,1.069-2.01.609-.385-1.069Zm.556,1.508.4,1.091-2.01.609-.4-1.091Zm.556,1.529.385,1.048-2.01.609-.385-1.059Zm.545,1.5.46,1.262-2.01.609-.46-1.262Zm.62,1.7.481,1.3-2.01.609-.481-1.3Zm-1.347,3.646-1.967.588-.428-1.165,1.967-.588Zm.171.438.364.994-1.967.588-.364-.994Zm.524,1.443.406,1.123-1.967.588-.406-1.123Zm.406-.128,2.01-.609.406,1.123-2.01.609Zm2.577.962.47,1.3-2.01.609-.47-1.3Zm.406-.118,1.5-.449.47,1.3-1.5.449Zm1.9-.577,1.572-.47.47,1.294-1.572.47Zm1.978-.6,1.251-.374.47,1.3-1.251.374Zm1.657-.5,1.23-.374.47,1.3-1.23.374Zm1.636-.492,1.059-.321.47,1.3-1.059.321Zm1.465-.438,1.294-.4.47,1.3-1.294.4Zm1.925,1.358.481,1.326-1.294.4-.481-1.326Zm.406-.128,1.208-.364.481,1.315-1.208.364Zm.973-2.224.973-.289.47,1.3-.973.289Zm1.379-.417,1.23-.374.47,1.3-1.23.374Zm1.636-.492,1.24-.374.47,1.3-1.24.374Zm1.636-.984-.406-1.123L284,94.6l.406,1.123Zm1.3.1.47,1.3-1.144.342-.47-1.294Zm.4-.609-.406-1.123,1.155-.353.406,1.123Zm1.315.086.47,1.3L285.6,97.3l-.47-1.3Zm.4-.609-.406-1.123,1.166-.353.406,1.123Zm1.337.1.47,1.3-1.165.353-.47-1.3Zm.4-.609L288,93.394l1.155-.342.406,1.123Zm1.3.1.47,1.3-1.155.342-.47-1.3Zm.406-.62-.406-1.123,1.625-.492.406,1.123Zm-.577-1.561-.364-.994,1.625-.492.364.994ZM289.016,91l-.428-1.165,1.625-.492.428,1.165Zm1.593-2.277-.481-1.3,1.743-.524.481,1.3Zm-.641-1.743-.46-1.262,1.732-.524.46,1.262Zm-.62-1.7-.385-1.048,1.732-.524.385,1.059Zm-.545-1.5-.4-1.091,1.743-.524.4,1.091Zm-.556-1.54-.385-1.069,1.732-.524.385,1.069Zm-.556-1.508-.492-1.358,1.732-.524.492,1.358Zm-.4.62.385,1.069-1.625.492-.385-1.069Zm-1.786.043-.492-1.358,1.625-.492.492,1.358Zm-.652-1.8-.364-.994,1.625-.492.364.994Zm-.524-1.433-.449-1.23,1.625-.481.449,1.219Zm-1.251-3.422-.545-1.5,1.625-.492.545,1.5Zm-.417.567.492,1.347L282,77l-.492-1.337Zm-1.294-.043-.545-1.5,1.144-.353.545,1.5Zm-.7-1.9-.62-1.679,1.155-.353.62,1.679Zm-.738-2.042-.577-1.572,1.155-.342.577,1.572Zm.182,2.213-1.165.353-.62-1.689,1.165-.353Zm-1.722.524-1.155.353-.62-1.689,1.155-.353Zm-1.711.524-1.144.353-.62-1.689,1.144-.342Zm-1.7.513-1.24.374-.62-1.689,1.24-.374ZM273,73.421l-.577-1.582,1.24-.374.577,1.582Zm-.406.128-1.23.374-.577-1.593,1.23-.374Zm-1.636.492-.973.289-.577-1.593.973-.289Zm-1.369.417-1.208.364-.577-1.593,1.208-.364Zm-1.615.492-1.294.4-.588-1.593,1.294-.4Zm-1.7.513-1.059.321-.588-1.6,1.059-.321Zm-1.454.449-1.23.374-.588-1.6,1.23-.374Zm-1.636.492-1.251.385-.588-1.6,1.251-.374Zm-1.657.5-1.572.481-.588-1.615,1.572-.47Zm-1.978.6-1.5.449-.588-1.615,1.5-.449ZM258.4,80.157l-2.01.609-.62-1.711,2.01-.609Zm-2.416.738-1.967.6-.631-1.711,1.967-.6Zm-1.668,2.62-2.267.7-.545-1.5,2.267-.695Zm.139.4.4,1.091-2.278.674-.4-1.069Zm.567,1.54.513,1.4-2.267.684-.513-1.411Zm.674,1.839.364.994-2.267.684-.364-.994Zm.524,1.433.492,1.358-2.267.684-.492-1.358Zm.406-.118,1.967-.588.492,1.358-1.967.588Zm2.62,1.208.385,1.069-1.967.588-.385-1.069Zm.545,1.508.4,1.091L258.223,93l-.4-1.091Zm.567,1.529.385,1.059-1.967.588-.385-1.048Zm.545,1.5.46,1.262L259.4,96.2l-.46-1.262Zm.62,1.7.481,1.3-1.967.588-.47-1.3Zm-1.3,3.635-2.267.684-.428-1.165,2.267-.684Zm.16.438.364.994-2.267.684-.364-.994Zm.524,1.443.406,1.123-2.267.684-.406-1.123Zm.577,1.561.47,1.3-2.267.684-.47-1.3Zm.406-.128,1.967-.588.47,1.3-1.967.588Zm2.6,1.155.481,1.326-1.967.588-.481-1.326Zm.406-.118,2.01-.609.481,1.315-2.01.609Zm2.406-.727,1.5-.449.481,1.326-1.5.449Zm1.9-.577,1.572-.47.481,1.326-1.572.47Zm1.978-.6,1.251-.374.481,1.326-1.251.374Zm1.657-.5,1.23-.374.481,1.326-1.23.374Zm1.647-.492,1.059-.321.481,1.326-1.059.321Zm1.689,1.443.535,1.454-1.058.321-.535-1.454Zm.406-.118,1.294-.4.535,1.454-1.294.385Zm1.7-.513,1.208-.364.535,1.454-1.208.364Zm.973-2.245.973-.289.481,1.326-.973.289Zm1.379-.417,1.23-.374.481,1.315-1.23.374Zm1.625-.492,1.24-.374.481,1.315-1.24.374Zm1.882,1.39.535,1.454-1.24.374-.535-1.454Zm.406-.609-.481-1.315,1.144-.342.481,1.326Zm1.294.1.535,1.454-1.144.342-.535-1.454Zm.406-.609-.481-1.326,1.155-.353.481,1.326Zm1.315.086.535,1.454-1.155.353-.535-1.454Zm.4-.609-.481-1.326,1.165-.353.481,1.315Zm1.326.1.535,1.454-1.165.353-.535-1.454Zm.406-.609-.481-1.326,1.155-.342.481,1.315Zm1.059-2.288-.47-1.3,1.625-.492.47,1.3Zm.973-3.956-.364-.994,1.743-.524.364.994Zm-.524-1.443-.428-1.165,1.732-.524.428,1.165Zm1.711-2.3-.481-1.3,3.2-.962a12.857,12.857,0,0,1,.054,1.433Zm-.641-1.754-.46-1.262,3.571-1.08c.085.449.15.887.2,1.337Zm-.62-1.7-.385-1.048,3.753-1.133c.107.364.192.716.278,1.091Zm-.545-1.5-.4-1.091,3.8-1.144q.209.545.385,1.091Zm-.567-1.529-.385-1.069,3.689-1.112c.171.342.332.684.47,1.037Zm-.545-1.508-.492-1.358,3.379-1.016c.267.417.524.845.759,1.272Zm-.663-1.807-.364-.994,2.962-.887c.225.289.449.588.663.9Zm-.513-1.433-.438-1.2,2.32-.684c.321.331.631.684.93,1.037Zm-.406.609.364.994-1.743.524-.364-.994Zm-1.893.086-.438-1.219,1.743-.513.438,1.208Zm-.609-1.657-.5-1.369,1.732-.524.5,1.379Zm1.647-2.47-.545-1.5.15-.043c.513.385,1.026.791,1.508,1.208Zm-3.539-1.026-1.625.492-.609-1.679,1.625-.492Zm-3.1-3.561-.043-.128c.075.021.16.053.235.075Zm-.567.171-1.155.342-.406-1.112q.69.112,1.379.289Zm-.973,2.534-1.165.353-.577-1.582,1.165-.353Zm-1.721.513-1.155.353-.577-1.582,1.155-.353Zm-1.711.524-1.144.342-.577-1.582,1.144-.342Zm-1.882-1.679L273,67.947c.417-.032.834-.053,1.24-.064l.962,2.63Zm-.567.171-1.24.374-1.176-3.25q.658-.1,1.315-.16Zm-1.636.492-1.23.374-1.251-3.432c.428-.086.845-.171,1.272-.235Zm-1.636.492-.973.289-1.283-3.518c.331-.086.652-.171.984-.246Zm-1.379.417-1.208.364-1.283-3.518c.4-.128.8-.257,1.208-.364Zm-1.615.481-1.294.4-1.251-3.432c.417-.171.834-.321,1.262-.47Zm-1.7.513-1.059.321-1.187-3.261c.331-.15.674-.3,1.005-.438Zm-1.454.449-1.23.374-1.091-2.994c.385-.2.759-.4,1.155-.588Zm-1.636.492-1.251.374-.962-2.63c.374-.235.759-.449,1.144-.663Zm-1.657.5-1.572.47-.748-2.064c.46-.321.92-.642,1.4-.941Zm-1.978.588-1.5.449-.5-1.369c.417-.353.855-.684,1.294-1.005Zm-1.155,2.63-2.01.609-.588-1.615,2.01-.609Zm-4.779,1.454-.877.267c.2-.31.417-.62.642-.92Zm.128.364.631,1.711-2.267.695-.331-.9c.2-.374.417-.748.642-1.112Zm-2.042,2.523-.5.15c.107-.225.2-.438.31-.663Zm.139.406.545,1.5-2.1.642a17.072,17.072,0,0,1,.684-1.871Zm1.251,3.411.513,1.411-4.031,1.219a14.123,14.123,0,0,1,.192-1.647Zm1.2,3.293.492,1.358-5.047,1.518a13.475,13.475,0,0,1-.171-1.454Zm.663,1.8.385,1.069-5.239,1.582c-.107-.364-.193-.738-.267-1.1Zm.545,1.508.4,1.091c-.866.257-1.721.535-2.577.791-.46.139-1.9.62-2.673.834-.15-.374-.289-.748-.406-1.123Zm.246-.567-.385-1.069,2.267-.684.385,1.069Zm2.438-.246.4,1.091-2.267.684-.4-1.091Zm.556,1.54.385,1.048-2.267.684-.385-1.048Zm-2.128,2.3.46,1.262-4.769,1.433a13.5,13.5,0,0,1-.738-1.176Zm.406-.118,2.267-.684.46,1.262-2.267.684Zm2.887,1.016.481,1.3-2.267.684-.47-1.3Zm-1.443,4.17.364.994-2.662.8c-.321-.267-.642-.535-.941-.823Zm.524,1.433.406,1.123-1.54.46c-.417-.267-.834-.567-1.24-.877Zm3.881,2.5.481,1.315-.267.086a21.476,21.476,0,0,1-2.3-.77Zm1.112,1.625,1.9-.577.363.984c-.749-.107-1.486-.235-2.213-.406C263.259,106.5,263.237,106.492,263.227,106.492Zm2.309-.7,2.01-.609.535,1.454-1.358.406c-.257-.021-.5-.053-.759-.086Zm2.694,1.283.032.075c-.075,0-.16-.011-.235-.011Zm-.278-2.01,1.5-.449.535,1.454-1.5.449Zm1.9-.577,1.572-.47.535,1.454-1.572.47Zm1.978-.6,1.251-.374.535,1.454-1.251.374Zm1.657-.5,1.23-.374.535,1.454-1.23.374Zm1.925,1.529.62,1.711c-.428.075-.855.15-1.294.2l-.567-1.54Zm.406-.128,1.059-.321.674,1.85-1.091.225Zm1.454-.438,1.294-.385.706,1.946q-.657.176-1.315.321Zm1.7-.513,1.208-.364.716,1.957c-.4.128-.8.246-1.208.353Zm.92-2.374.973-.289.535,1.454-.973.289Zm1.379-.417,1.23-.374.535,1.454-1.23.374Zm1.914,1.518.641,1.754c-.385.182-.781.342-1.176.5l-.684-1.893Zm.406-.118,1.24-.374.535,1.465q-.561.321-1.155.609Zm1.8-.545,1.144-.342.374,1.016c-.332.225-.674.449-1.026.663Zm1.7-.513,1.155-.353.15.406c-.321.267-.663.524-1,.781Zm1.721-.513.385-.118-.321.289Zm2.737-2.93.257-.075-.192.257Zm.716-.706-.877.267-.481-1.315,1.625-.492.267.738C292.63,96.709,292.459,96.976,292.267,97.244Zm2.32-4.6-.406-1.123.994-.3c-.118.46-.267.92-.428,1.379Zm-.567-1.561-.363-.994,1.86-.556c-.053.4-.128.781-.214,1.165Zm-.524-1.443-.428-1.165,2.609-.791c-.011.449-.043.887-.1,1.326ZM290.31,74.554l-2.106.62-.5-1.39,1.347-.406c.417.374.823.748,1.219,1.133A.083.083,0,0,1,290.31,74.554Zm-6.041-4.544-.438.139-.16-.428c.053.032.118.053.171.086C283.98,69.861,284.119,69.935,284.269,70.01Zm-6.137-1.925.5,1.379-1.165.353-.684-1.882c.278.021.556.043.823.075C277.79,68.043,277.961,68.064,278.132,68.086Zm-1.978-.182.759,2.085-1.155.353-.9-2.47C275.288,67.872,275.715,67.882,276.154,67.9Zm-19.7,6.929.438,1.2-2.01.609-.1-.267Q255.592,75.57,256.458,74.832Zm-6.373,21.139c.781-.246,2.641-.823,3.026-.941.738-.225,1.465-.438,2.2-.663l.385,1.059-5.122,1.54c-.128-.246-.257-.492-.374-.738A1.368,1.368,0,0,1,250.086,95.971Zm1.743,2.994,4.651-1.4.481,1.3-4.2,1.272C252.427,99.756,252.128,99.371,251.829,98.965Zm16.894,8.212-.075-.214,1.5-.449.246.674C269.834,107.2,269.278,107.2,268.722,107.177Zm5.271-.246c-.342.043-.674.075-1.016.107l-.46-1.251,1.251-.374.535,1.476C274.208,106.9,274.1,106.92,273.994,106.931Zm7.314-1.615-.716-1.957.973-.289.695,1.914C281.949,105.1,281.628,105.209,281.307,105.316Z" transform="translate(-246.446 -65.837)"/>
          </g>
        </g>
      </g>
      <g id="Group_240" data-name="Group 240" transform="translate(321.65 62.019)">
        <path id="Path_152" data-name="Path 152" class="cls-1" d="M361.369,122.359H341.856V74.6h-21.5v47.752H300.84V59.05h60.54v63.309Z" transform="translate(-300.84 -57.959)"/>
        <path id="Path_153" data-name="Path 153" class="cls-1" d="M369.56,59.06h32.515q10.617,0,15.91,5.057T423.278,78.5q0,9.591-5.763,14.98-5.758,5.405-17.6,5.4H389.2v23.491H369.56Zm19.652,26.987H394c3.774,0,6.415-.652,7.944-1.967a6.306,6.306,0,0,0,2.288-5.025,7,7,0,0,0-1.989-5.047q-1.989-2.069-7.474-2.074H389.2V86.047Z" transform="translate(-296.082 -57.959)"/>
        <path id="Path_154" data-name="Path 154" class="cls-1" d="M429.33,59.06h52.425V72.575H448.94V82.637h30.441V95.542H448.94V108.02h33.766v14.338H429.341V59.06Z" transform="translate(-291.944 -57.959)"/>
        <path id="Path_155" data-name="Path 155" class="cls-1" d="M488.9,59.06h25.726l9.922,38.514L534.4,59.06h25.7v63.3H544.083V74.083l-12.339,48.276h-14.51L504.917,74.083v48.276H488.9Z" transform="translate(-287.82 -57.959)"/>
        <path id="Path_156" data-name="Path 156" class="cls-1" d="M655.993,104.028a28.389,28.389,0,0,1-10.3,14.05q-7.362,5.421-21.1,5.421-15.236,0-23.683-8.575T592.48,90.332q0-15.365,8.533-23.833t24.378-8.468q21.331,0,29.19,15.932L636.96,80.655q-2.887-7.939-11.569-7.944-11.147,0-13,12.221h19.171v11.74H612.475q1.6,12.141,12.82,12.136,9.623,0,12.307-9.762Z" transform="translate(-280.649 -58.03)"/>
        <path id="Path_157" data-name="Path 157" class="cls-1" d="M660.48,59.06H693q10.617,0,15.91,5.057T714.2,78.5q0,9.591-5.763,14.98-5.758,5.405-17.6,5.4H680.122v23.491H660.48V59.06Zm19.652,26.987h4.79c3.774,0,6.415-.652,7.944-1.967a6.307,6.307,0,0,0,2.288-5.025,7,7,0,0,0-1.989-5.047q-1.989-2.069-7.474-2.074h-5.571V86.047Z" transform="translate(-275.941 -57.959)"/>
      </g>
      <g id="Group_241" data-name="Group 241" transform="translate(321.725 37.448)">
        <path id="Path_158" data-name="Path 158" class="cls-1" d="M300.921,39.69h10.864v2.566h-3.849V51.7h-3.176V42.256H300.91V39.69Z" transform="translate(-300.91 -34.729)"/>
        <path id="Path_159" data-name="Path 159" class="cls-1" d="M328.53,47.887l3.165.535a5.183,5.183,0,0,1-1.925,2.652,5.64,5.64,0,0,1-3.293.909,5.4,5.4,0,0,1-4.641-2.042A6.866,6.866,0,0,1,320.65,45.8a6.632,6.632,0,0,1,1.561-4.673,5.142,5.142,0,0,1,3.945-1.689,5.33,5.33,0,0,1,4.234,1.775q1.556,1.764,1.476,5.421H323.9a3.212,3.212,0,0,0,.77,2.2,2.4,2.4,0,0,0,1.828.781,1.953,1.953,0,0,0,1.251-.406A2.47,2.47,0,0,0,328.53,47.887Zm.182-3.208a3.019,3.019,0,0,0-.716-2.1,2.172,2.172,0,0,0-1.647-.716,2.231,2.231,0,0,0-1.721.759,2.914,2.914,0,0,0-.663,2.053Z" transform="translate(-299.543 -34.746)"/>
        <path id="Path_160" data-name="Path 160" class="cls-1" d="M342.11,39.69h3.176v4.395h4.544V39.69h3.186V51.7H349.83V46.651h-4.544V51.7H342.11Z" transform="translate(-298.058 -34.729)"/>
        <path id="Path_161" data-name="Path 161" class="cls-1" d="M363.98,38.35V35.41h3.176v2.94Zm0,13.643V39.986h3.176V51.994Z" transform="translate(-296.543 -35.025)"/>
        <path id="Path_162" data-name="Path 162" class="cls-1" d="M389.174,43.255l-3.133.567a2.265,2.265,0,0,0-.716-1.411,2.144,2.144,0,0,0-1.454-.47,2.377,2.377,0,0,0-1.893.823,4.219,4.219,0,0,0-.706,2.748,4.836,4.836,0,0,0,.716,3.015,2.365,2.365,0,0,0,1.925.887,2.12,2.12,0,0,0,1.476-.513,3.094,3.094,0,0,0,.813-1.775l3.122.535a5.5,5.5,0,0,1-1.871,3.25,5.8,5.8,0,0,1-3.7,1.1,5.531,5.531,0,0,1-4.2-1.657,6.425,6.425,0,0,1-1.561-4.6,6.46,6.46,0,0,1,1.572-4.63,5.6,5.6,0,0,1,4.256-1.657,5.761,5.761,0,0,1,3.486.941A4.914,4.914,0,0,1,389.174,43.255Z" transform="translate(-295.573 -34.744)"/>
        <path id="Path_163" data-name="Path 163" class="cls-1" d="M399.25,39.69h3.176v4.395h4.544V39.69h3.186V51.7H406.97V46.651h-4.544V51.7H399.25Z" transform="translate(-294.102 -34.729)"/>
        <path id="Path_164" data-name="Path 164" class="cls-1" d="M421.04,39.69H424.1v7.538l4.886-7.538h3.122V51.7h-3.058V44.02L424.1,51.7H421.04Z" transform="translate(-292.593 -34.729)"/>
        <path id="Path_165" data-name="Path 165" class="cls-1" d="M443.02,40.006h3.058v7.538l4.886-7.538h3.122V52.013h-3.058V44.336l-4.951,7.677H443.02V40.006Zm7.613-4.876h1.55a3.569,3.569,0,0,1-1.08,2.416,3.857,3.857,0,0,1-4.9,0,3.569,3.569,0,0,1-1.08-2.416h1.55a1.777,1.777,0,0,0,.567,1.219,2.6,2.6,0,0,0,2.823,0A1.777,1.777,0,0,0,450.633,35.13Z" transform="translate(-291.071 -35.044)"/>
        <path id="Path_166" data-name="Path 166" class="cls-1" d="M479.64,39.7H482.8V44.6a1.718,1.718,0,0,0,1.123-.481,6.385,6.385,0,0,0,.791-1.732,4.588,4.588,0,0,1,1.337-2.277,3.286,3.286,0,0,1,1.9-.5c.246,0,.663.021,1.251.053l.011,2.106a3.372,3.372,0,0,0-1.6.235,3.273,3.273,0,0,0-.759,1.486,2.94,2.94,0,0,1-1.593,2.042,4.375,4.375,0,0,1,2.545,2.609c.043.075.075.15.128.235l1.775,3.315H486.3l-1.582-3.475a4.036,4.036,0,0,0-.845-1.347,1.583,1.583,0,0,0-1.058-.3v5.122h-3.165v-12Z" transform="translate(-288.536 -34.734)"/>
        <path id="Path_167" data-name="Path 167" class="cls-1" d="M500.474,39.69h10.639V51.7h-3.165V42.267h-4.33v5.389a6.373,6.373,0,0,1-.471,2.887,2.464,2.464,0,0,1-1.048,1.091,4.893,4.893,0,0,1-1.85.257,12.544,12.544,0,0,1-2-.2V49.345c.064,0,.246.011.535.021q.5.032.77.032c.428,0,.695-.139.791-.428a10.515,10.515,0,0,0,.15-2.363V39.69Z" transform="translate(-287.247 -34.729)"/>
        <path id="Path_168" data-name="Path 168" class="cls-1" d="M520.26,39.69h3.379l2.876,8.522,2.8-8.522h3.293l-4.245,11.558-.759,2.1a7.891,7.891,0,0,1-.8,1.6,3.484,3.484,0,0,1-.866.9,3.692,3.692,0,0,1-1.208.535,6.276,6.276,0,0,1-1.625.192,8.4,8.4,0,0,1-1.8-.192l-.278-2.491a7.2,7.2,0,0,0,1.347.15,1.972,1.972,0,0,0,1.636-.652,4.451,4.451,0,0,0,.813-1.657Z" transform="translate(-285.724 -34.729)"/>
        <path id="Path_169" data-name="Path 169" class="cls-1" d="M551.424,35.05h2.16a3.651,3.651,0,0,1-.748,2.181q-.658.738-3.208.738c-.2,0-.406,0-.609-.011h-.406a7.574,7.574,0,0,0-2.47.331,2.971,2.971,0,0,0-1.55,1.294,6.174,6.174,0,0,0-.631,3.1,4.82,4.82,0,0,1,1.818-1.978,5.424,5.424,0,0,1,6.651,1.187,6.209,6.209,0,0,1,1.636,4.256,6.083,6.083,0,0,1-1.721,4.33,5.937,5.937,0,0,1-4.5,1.807,6.152,6.152,0,0,1-3.357-.92,5.117,5.117,0,0,1-2.074-2.5,15.753,15.753,0,0,1-.62-5.261q0-4.314,1.593-6.212t5.549-1.893h1.6A.865.865,0,0,0,551.424,35.05ZM545.03,46.106a3.827,3.827,0,0,0,.823,2.6,2.535,2.535,0,0,0,2.01.952,2.588,2.588,0,0,0,2.1-.994,4.387,4.387,0,0,0-.01-5.132,2.619,2.619,0,0,0-4.074-.021A3.818,3.818,0,0,0,545.03,46.106Z" transform="translate(-284.233 -35.05)"/>
      </g>
    </g>
  </g>
</svg>
