<svg id="ic_local_phone_black_24px" xmlns="http://www.w3.org/2000/svg" viewBox="0 0 53.16 53.16">
  <defs>
    <style>
      .cls-1 {
        fill: none;
      }

      .cls-2 {
        fill: #727aaa;
      }
    </style>
  </defs>
  <path id="Path_8" data-name="Path 8" class="cls-1" d="M0,0H53.16V53.16H0Z"/>
  <path id="Path_9" data-name="Path 9" class="cls-2" d="M11.018,20.255a33.554,33.554,0,0,0,14.6,14.6l4.873-4.873a2.2,2.2,0,0,1,2.259-.532,25.267,25.267,0,0,0,7.908,1.263,2.222,2.222,0,0,1,2.215,2.215v7.73a2.222,2.222,0,0,1-2.215,2.215A37.652,37.652,0,0,1,3,5.215,2.222,2.222,0,0,1,5.215,3h7.753a2.222,2.222,0,0,1,2.215,2.215,25.163,25.163,0,0,0,1.263,7.908,2.223,2.223,0,0,1-.554,2.259Z" transform="translate(3.805 3.645)"/>
</svg>
