<svg xmlns="http://www.w3.org/2000/svg" viewBox="0 0 122.2 122.229">
  <defs>
    <style>
      .cls-2 {
        fill:#727AAA
      }
    </style>
  </defs>
  <g id="tennis" class="cls-1" transform="translate(-0.001)">
    <path id="Path_207" data-name="Path 207" class="cls-2" d="M106.043,71.809c.187-.179.384-.341.568-.526,18.375-18.408,20.868-45.862,5.553-61.2C105.674,3.58,96.619,0,86.673,0,73.963,0,60.98,5.7,51.051,15.647c-12.6,12.623-17.729,29.5-14.772,43.806l-10.334,20.2L3.429,102.208A11.722,11.722,0,1,0,20,118.791L42.515,96.24,62.466,85.989c.6.132,1.2.258,1.812.36a27.639,27.639,0,0,0,6.778,27.8,27.361,27.361,0,0,0,19.49,8.085h0a27.357,27.357,0,0,0,19.489-8.087,27.666,27.666,0,0,0,0-39.03,28.094,28.094,0,0,0-3.994-3.3Zm7.886,19.754a15.437,15.437,0,0,1-5.668,1.094A15.775,15.775,0,0,1,92.519,76.886a15.546,15.546,0,0,1,1.1-5.694,23.5,23.5,0,0,1,20.314,20.371ZM71.075,75.1c-.029,0-.059.007-.089.007a29.262,29.262,0,0,1-3.232-.2l2.124-2.129,1.785,1.786C71.471,74.747,71.264,74.909,71.075,75.1ZM99.592,61.472,90.38,52.245l6.069-6.08,8.379,8.392a44.261,44.261,0,0,1-5.236,6.914Zm-12-29.763-6.072-6.08,6.072-6.082,6.072,6.08Zm8.857-3.288,6.07,6.08-6.072,6.08L90.382,34.5ZM84.806,34.5l-6.07,6.08L72.664,34.5l6.07-6.08ZM75.95,43.37l-6.07,6.08-6.071-6.078,6.069-6.08Zm-8.86,8.873-6.069,6.08-6.07-6.08,6.07-6.08Zm2.788,2.792,6.07,6.08-6.072,6.08-6.067-6.08Zm2.788-2.792,6.07-6.08,6.07,6.08-6.07,6.08Zm8.856-8.871,6.07-6.08,6.071,6.08-6.069,6.08Zm25.252,7.549-7.535-7.549,6.07-6.08,4.511,4.519a37.951,37.951,0,0,1-3.046,9.11ZM108.1,34.5l2.141-2.145a29.187,29.187,0,0,1,.185,4.475Zm-2.788-2.792-6.07-6.082,5.786-5.8a22.365,22.365,0,0,1,4.274,7.88Zm-8.858-8.873-6.069-6.08,3.877-3.886a22.161,22.161,0,0,1,7.986,4.164Zm-8.855-8.87L85.524,11.9c.383-.016.767-.067,1.149-.067.99,0,1.954.061,2.9.154Zm-7.071-1.5,4.286,4.294-6.072,6.082L71.4,15.491a37.422,37.422,0,0,1,9.123-3.028Zm-12.736,4.99,8.164,8.176-6.07,6.08-9.017-9.031a44.246,44.246,0,0,1,6.923-5.224ZM58.07,25.461,67.093,34.5l-6.07,6.08-8.194-8.205a44.2,44.2,0,0,1,5.24-6.914ZM50.886,36.011l7.35,7.361-6.07,6.08L47.852,45.13A37.613,37.613,0,0,1,50.886,36.011ZM49.377,52.245l-1.989,1.992a29.894,29.894,0,0,1-.09-4.074Zm2.786,2.79,6.072,6.08L52.455,66.9A22.4,22.4,0,0,1,48.307,58.9Zm8.86,8.871,6.07,6.08-3.975,3.98a22.088,22.088,0,0,1-7.9-4.249Zm13.7,8.144-2.06-2.064,6.072-6.08,4.2,4.2a27.2,27.2,0,0,0-8.207,3.943Zm12.868-4.855-6.07-6.08,6.07-6.08,9.206,9.22c-1.1,1-2.265,1.974-3.519,2.908q-1.354-.133-2.736-.134a27.513,27.513,0,0,0-2.951.166ZM17.21,116.008A7.78,7.78,0,0,1,6.22,104.993L27.56,83.621,38.553,94.629Zm24.507-23.79-.374-.376L29.969,80.449,37.91,64.924A32.857,32.857,0,0,0,57.033,84.346Zm6.571-18.155C34.505,60.259,37,35.3,53.841,18.431,63.036,9.225,75,3.943,86.673,3.943c8.894,0,16.955,3.17,22.7,8.924,13.781,13.8,11.291,38.759-5.553,55.633-.442.444-.9.847-1.364,1.259a27.136,27.136,0,0,0-4.083-1.6c.937-.8,1.836-1.617,2.671-2.451,15.309-15.332,17.8-37.785,5.555-50.053-5.082-5.086-11.97-7.773-19.927-7.773-10.638,0-21.589,4.861-30.054,13.339C49.056,28.8,44.384,38.295,43.465,47.961c-.879,9.242,1.82,17.523,7.6,23.31A26.749,26.749,0,0,0,67.927,78.9a27.143,27.143,0,0,0-2.145,3.683,30.524,30.524,0,0,1-17.495-8.523Zm18.876,23.63A15.468,15.468,0,0,1,72.83,96.6a15.776,15.776,0,0,1,15.745,15.772,15.539,15.539,0,0,1-1.1,5.694A23.509,23.509,0,0,1,67.164,97.693Zm40.08,13.663a23.412,23.412,0,0,1-15.655,6.879,19.392,19.392,0,0,0,.929-5.863A19.722,19.722,0,0,0,72.83,92.658a19.3,19.3,0,0,0-5.839.927A23.551,23.551,0,0,1,73.849,77.9v0A23.4,23.4,0,0,1,89.5,71.023a19.421,19.421,0,0,0-.928,5.863A19.721,19.721,0,0,0,108.261,96.6a19.3,19.3,0,0,0,5.839-.927,23.545,23.545,0,0,1-6.857,15.683Zm0,0"/>
    <path id="Path_208" data-name="Path 208" class="cls-2" d="M98.168,374.294l3.937-3.942,2.792,2.787-3.937,3.943Zm0,0" transform="translate(-73.976 -279.086)"/>
    <path id="Path_209" data-name="Path 209" class="cls-2" d="M42.273,412.185l9.843-9.857,2.792,2.788-9.843,9.857Zm0,0" transform="translate(-31.855 -303.182)"/>
  </g>
</svg>
