<svg xmlns="http://www.w3.org/2000/svg" viewBox="0 0 107.015 107">
  <defs>
    <style>
      .cls-2 {
        fill:#727AAA
      }
    </style>
  </defs>
  <g id="sneaker" class="cls-1" transform="translate(0 -0.036)">
    <path id="Path_251" data-name="Path 251" class="cls-2" d="M69.839,88.146c6.369-7.623,15.808-9.347,24.35-13.407a1.568,1.568,0,0,0-1.346-2.831c-9.016,4.287-18.684,6.179-25.41,14.228-6.592,7.889-16.876,14.144-26.2,15.937-9.043,1.738-21.607,3-30.551-.688,18.334,2.989,37.677-3.649,50.949-16.431A88.8,88.8,0,0,1,83.112,70.083c5.942-3.059,10.472-7.17,13.1-11.888a17.7,17.7,0,0,0,2.4-9.286,12,12,0,0,1,4.115,4.177c1.978,3.962,1.9,10.051-4.242,15.259a1.568,1.568,0,0,0,2.027,2.391c6.2-5.258,8.173-12.736,5.02-19.051-1.8-3.61-5.951-5.959-7.592-6.776a16.551,16.551,0,0,0-.586-1.622c-2.312-5.479-12.464-13.081-20.572-18.493a8.686,8.686,0,0,0-7.593-1L53.654.716a1.568,1.568,0,0,0-2.6,1.75L66.438,25.321C63.5,27.746,61.5,31.327,58.81,34.036a16.747,16.747,0,0,1-8.791,4.943c-.257-3.636-1.412-8.8-5.905-9.014L24.182.709a1.568,1.568,0,0,0-2.591,1.765L41.084,31.085c-1.474,1.364-2.5,3.976-3.271,8.3a1.568,1.568,0,0,0,3.086.553c.275-1.537.915-7.37,3.591-6.756,1.775.408,2.514,4.754,2.454,7.561,0,.007,0,.014,0,.021s0,.015,0,.023c.039,7.415-.982,18.074-6.064,26.75a22.78,22.78,0,0,1-6.127,7.217,1.56,1.56,0,0,0-.471.473,18.963,18.963,0,0,1-11.274,3.192l.055-.027a20.666,20.666,0,0,0,6.409-5.032l2.366,1.088a1.568,1.568,0,0,0,1.31-2.848l-1.691-.778a38.984,38.984,0,0,0,3.332-5.859l3.388,1.183a1.568,1.568,0,0,0,1.033-2.96L36.023,62.07a61.883,61.883,0,0,0,2.143-6.556l3.5.943a1.569,1.569,0,0,0,.816-3.027l-3.57-.962q.62-2.792,1.054-5.741a1.568,1.568,0,0,0-3.1-.452c-1.139,7.82-3.309,15.961-7.854,22.541-4.693,6.793-12.689,9.06-19.564,13.108C3.856,85.214-1.128,89.068.224,94.937c1.024,4.45,4.257,7.111,8.488,9.02,10.153,4.581,22.517,3.231,33.112,1.194C51.815,103.23,62.811,96.556,69.839,88.146Zm24.628-43.64a13.513,13.513,0,0,1-.993,12.163c-2.214,3.975-6.2,7.627-11.254,10.337-4.706-13.466-3.193-30.653-2.5-36.377C87.872,36.453,93.157,41.4,94.466,44.506ZM65.243,31.412c.808-.987,1.643-2.007,2.527-3.028a5.557,5.557,0,0,1,7.272-.982q.54.36,1.066.717A10.446,10.446,0,0,1,74.375,36.2c-3.6,5.247-12.043,8.553-24.432,9.575.075-1.259.116-2.471.13-3.623C57.429,40.951,61.232,36.31,65.243,31.412ZM49.684,48.94H49.7c12.737-.982,21.518-4.192,26.153-9.546-.334,8.141.071,19.358,3.522,28.989.011.032.028.061.041.092-1.762.933-3.409,1.842-4.984,2.769-3.572-2.4-9.724-4.616-19.8-3.3A54.226,54.226,0,0,0,42.33,71.1c.373-.548.749-1.135,1.125-1.766C47.283,62.9,49,55.5,49.684,48.94ZM11.034,84.625c2.131-1.255,4.672-2.584,7.406-3.955a16.284,16.284,0,0,0,5.532.9,22.732,22.732,0,0,0,12.6-4.094c8.409-5.546,25.277-9.511,34.857-4.385a76.738,76.738,0,0,0-11.975,9.6A57.22,57.22,0,0,1,26.392,98.435c-11.9,1.333-22.273-.552-23.113-4.2C2.543,91.039,4.718,88.345,11.034,84.625Z" transform="translate(0 0)"/>
    <path id="Path_252" data-name="Path 252" class="cls-2" d="M312.773,23.614h29.676a1.568,1.568,0,0,0,0-3.135H312.773A1.568,1.568,0,0,0,312.773,23.614Z" transform="translate(-246.209 -16.171)"/>
    <path id="Path_253" data-name="Path 253" class="cls-2" d="M420.013,90.046a1.567,1.567,0,0,0,1.567,1.567h16.092a1.568,1.568,0,0,0,0-3.135H421.58A1.567,1.567,0,0,0,420.013,90.046Z" transform="translate(-332.237 -69.96)"/>
    <path id="Path_254" data-name="Path 254" class="cls-2" d="M437.866,413.479H421.774a1.568,1.568,0,0,0,0,3.135h16.092A1.568,1.568,0,0,0,437.866,413.479Z" transform="translate(-332.43 -327.04)"/>
    <path id="Path_255" data-name="Path 255" class="cls-2" d="M311.015,476.294h-.007l-8.673.039a1.569,1.569,0,0,0,.014,3.135l8.673-.039A1.568,1.568,0,0,0,311.015,476.294Z" transform="translate(-237.972 -376.727)"/>
    <path id="Path_256" data-name="Path 256" class="cls-2" d="M401.443,476.2h0l-18.948.058a1.569,1.569,0,0,0,.01,3.135l18.948-.058A1.568,1.568,0,0,0,401.443,476.2Z" transform="translate(-301.375 -376.655)"/>
  </g>
</svg>
