<svg id="youtube" xmlns="http://www.w3.org/2000/svg" viewBox="0 0 60.316 60.316">
  <defs>
    <style>
      .cls-1 {
        fill: #727aaa;
      }
    </style>
  </defs>
  <path id="Path_258" data-name="Path 258" class="cls-1" d="M224.113,219.339l9.81-5.65-9.81-5.65Zm0,0" transform="translate(-197.711 -183.531)"/>
  <path id="Path_259" data-name="Path 259" class="cls-1" d="M30.158,0A30.158,30.158,0,1,0,60.316,30.158,30.161,30.161,0,0,0,30.158,0ZM49,30.189s0,6.116-.776,9.065A4.722,4.722,0,0,1,44.9,42.576c-2.949.776-14.746.776-14.746.776s-11.766,0-14.746-.807a4.723,4.723,0,0,1-3.322-3.322c-.776-2.918-.776-9.065-.776-9.065s0-6.116.776-9.065a4.818,4.818,0,0,1,3.322-3.353c2.949-.776,14.746-.776,14.746-.776s11.8,0,14.746.807a4.723,4.723,0,0,1,3.322,3.322c.807,2.949.776,9.1.776,9.1Zm0,0"/>
</svg>
